<?xml version="1.0" encoding="UTF-8"?>
<svg id="Capa_1" data-name="Capa 1" xmlns="http://www.w3.org/2000/svg" viewBox="0 0 88.85 62.98">
  <defs>
    <style>
      .cls-1 {
        fill: #fff;
      }
    </style>
  </defs>
  <path class="cls-1" d="M43.4,40.15c0,.21,0,.38,0,.55,0,4.44,0,8.89,0,13.33,0,1.12-.83,1.96-1.86,1.83-.37-.05-.74-.22-1.06-.43-4.28-2.87-8.56-5.75-12.83-8.63-7.6-5.12-15.2-10.23-22.8-15.35-1.01-.68-1.24-1.73-.56-2.61,.16-.21,.39-.38,.61-.53,7.09-4.78,14.18-9.55,21.27-14.32,4.79-3.22,9.57-6.44,14.36-9.66,1.01-.68,2.1-.51,2.62,.46,.17,.32,.24,.74,.24,1.11,.02,4.09,.01,8.17,.01,12.26,0,.17,0,.34,0,.44,2.32,.45,4.59,.82,6.83,1.33,6.34,1.44,12.41,3.6,18.04,6.89,3.32,1.94,6.36,4.26,8.96,7.1,3.93,4.3,6.43,9.3,7.28,15.08,.24,1.65,.32,3.33,.43,5,.06,.93-.47,1.62-1.3,1.84-.76,.2-1.6-.17-2.01-.96-2.87-5.46-7.51-8.86-13.04-11.22-3.51-1.5-7.2-2.33-10.98-2.77-4.65-.55-9.31-.71-13.99-.75-.06,0-.11,0-.22,.02Z"/>
</svg>