<?xml version="1.0" encoding="UTF-8"?>
<svg id="Capa_1" data-name="Capa 1" xmlns="http://www.w3.org/2000/svg" viewBox="0 0 333.29 216">
  <defs>
    <style>
      .cls-1 {
        letter-spacing: 0em;
      }

      .cls-2, .cls-3 {
        fill: #fff;
      }

      .cls-4 {
        font-size: 24.65px;
      }

      .cls-4, .cls-3 {
        font-family: BebasNeue-Regular, 'Bebas Neue';
      }

      .cls-4, .cls-5 {
        fill: #010101;
      }

      .cls-6 {
        letter-spacing: 0em;
      }

      .cls-7 {
        letter-spacing: -.05em;
      }

      .cls-8 {
        letter-spacing: 0em;
      }

      .cls-9 {
        letter-spacing: 0em;
      }

      .cls-10 {
        fill: #82498b;
      }

      .cls-3 {
        font-size: 17.02px;
      }
    </style>
  </defs>
  <rect class="cls-10" x="1.06" y="5.4" width="333.99" height="209.88" rx="14.77" ry="14.77"/>
  <text class="cls-4" transform="translate(109.62 55.87)"><tspan x="0" y="0">P</tspan><tspan class="cls-1" x="9.51" y="0">L</tspan><tspan class="cls-8" x="17.89" y="0">GR gi</tspan><tspan class="cls-9" x="55.77" y="0">f</tspan><tspan class="cls-8" x="64.5" y="0">t card</tspan></text>
  <text class="cls-3" transform="translate(132.24 77.08)"><tspan x="0" y="0">B</tspan><tspan class="cls-6" x="6.88" y="0">D</tspan><tspan class="cls-7" x="13.75" y="0">A</tspan><tspan x="19.79" y="0">Y EDITION</tspan></text>
  <g>
    <path class="cls-2" d="M127.15,183.36h36.6c.84,0,1.52-.68,1.52-1.52v-52.63c0-.84-.68-1.52-1.52-1.52h-36.6c-.84,0-1.52,.68-1.52,1.52v52.63c0,.84,.68,1.52,1.52,1.52Zm47.45,.02h34.99c.84,0,1.52-.68,1.52-1.52v-52.63c0-.84-.68-1.52-1.52-1.52h-34.99c-.84,0-1.52,.68-1.52,1.52v52.63c0,.84,.68,1.52,1.52,1.52Zm-10.81-71.85h-40.22c-.84,0-1.52,.68-1.52,1.52v10.41c0,.84,.68,1.52,1.52,1.52h40.22c.84,0,1.52-.68,1.52-1.52v-10.41c0-.84-.68-1.52-1.52-1.52Zm9.35,1.45v10.48c0,.84,.68,1.52,1.52,1.52h39.21c.84,0,1.52-.68,1.52-1.52v-10.48c0-.84-.68-1.52-1.52-1.52h-39.21c-.84,0-1.52,.68-1.52,1.52Zm-9.18-7.48c-3.67-5.13-7.49-9.56-12.34-13.01-.91-.65-2.59-1.27-3.7-1.26-3.96,.03-7.23,3.02-7.68,7-.46,4.16,2.44,8.29,6.76,8.74,5.07,.52,10.17,.69,15.65,.95,1.28,.06,2.06-1.38,1.31-2.42Zm9.97,0c-.74,1.04,.04,2.48,1.32,2.42,5.47-.27,10.58-.45,15.66-.95,3.93-.38,6.73-3.9,6.79-7.84s-2.95-7.19-6.75-7.91c-1.38-.26-2.77-.07-4.15,.88-5.1,3.52-9.09,8.07-12.87,13.4Z"/>
    <rect class="cls-2" x="125.63" y="127.68" width="39.64" height="55.68" rx="1.52" ry="1.52"/>
    <rect class="cls-2" x="173.08" y="127.7" width="38.04" height="55.67" rx="1.52" ry="1.52"/>
    <rect class="cls-2" x="122.05" y="111.52" width="43.26" height="13.46" rx="1.52" ry="1.52"/>
    <rect class="cls-2" x="173.14" y="111.46" width="42.26" height="13.53" rx="1.52" ry="1.52"/>
    <path class="cls-2" d="M163.96,105.5c.75,1.04-.03,2.48-1.31,2.42-5.48-.26-10.59-.43-15.65-.95-4.31-.44-7.22-4.58-6.76-8.74,.44-3.98,3.72-6.97,7.68-7,1.11,0,2.8,.62,3.7,1.26,4.85,3.45,8.67,7.88,12.34,13.01Z"/>
    <path class="cls-2" d="M175.26,107.92c-1.28,.06-2.06-1.37-1.32-2.42,3.78-5.33,7.77-9.88,12.87-13.4,1.37-.95,2.77-1.14,4.15-.88,3.8,.72,6.8,4.04,6.75,7.91s-2.85,7.46-6.79,7.84c-5.08,.49-10.18,.68-15.66,.95Z"/>
  </g>
  <g>
    <path class="cls-5" d="M145.69,158.91v-4.88c0-3.13,.71-5.19,2.89-5.87v-.08c-1.94-.79-2.85-2.62-2.85-5.47v-1.71c0-4.28,1.94-6.38,6.46-6.38h6.46v27.76h-4.36v-11.9h-1.51c-1.98,0-2.74,.83-2.74,3.41l-.4,5.08m4.64-12.45v-7.93h-1.98c-1.55,0-2.22,.87-2.22,2.86v2.14c0,2.22,.99,2.93,2.62,2.93h1.59Z"/>
    <path class="cls-5" d="M132.24,134.41h6.42c4.36,0,6.5,2.42,6.5,6.86v2.74c0,4.44-2.14,6.86-6.5,6.86h-2.06v11.3h-4.36v-27.76Zm6.42,12.49c1.39,0,2.14-.63,2.14-2.62v-3.29c0-1.98-.75-2.62-2.14-2.62h-2.06v8.53h2.06Z"/>
    <path class="cls-5" d="M132.24,134.38h4.36v23.79h7.18v3.97h-11.54v-27.76Z"/>
    <path class="cls-5" d="M143.51,176.7c-4.28,0-6.5-2.54-6.5-6.98v-7.3h6.3v2.18h-2.18v5.43c0,1.98,.87,2.7,2.26,2.7s2.26-.71,2.26-2.7v-15.19c0-1.98-.87-2.74-2.26-2.74s-2.26,.75-2.26,2.74v2.66h-4.12v-2.38c0-4.44,2.22-6.98,6.5-6.98s6.5,2.54,6.5,6.98v14.59c0,4.44-2.22,6.98-6.5,6.98Z"/>
  </g>
</svg>