<?xml version="1.0" encoding="UTF-8"?>
<svg id="Capa_1" data-name="Capa 1" xmlns="http://www.w3.org/2000/svg" viewBox="0 0 142.57 77.03">
  <defs>
    <style>
      .cls-1 {
        fill: #fff;
        stroke: #1d1d1b;
        stroke-miterlimit: 10;
        stroke-width: 2px;
      }

      .cls-2 {
        fill: #1d1d1c;
      }
    </style>
  </defs>
  <rect class="cls-1" x=".27" width="142.3" height="77.03"/>
  <g>
    <path class="cls-2" d="M27.77,28.49l-3.11-6.64,11.39,5.45,2.46,1.94v16.16l-6.69,4.88,.6,12.37,.15,5.05-5.71-9.13h.91V28.49Zm3.94,15.81l2.87-2.27v-9.19h-2.87v11.47Z"/>
    <path class="cls-2" d="M45.56,43.36l.72-.6v-1.97l4.3-3.51,.12,8.22-5.49,9.35-5.49-9.23V27.3h5.73l.12,16.06Z"/>
    <path class="cls-2" d="M55.47,39.48v5.29l2.39-2v-1.98h4.42v4.65l-5.9,4.37-4.97-4.01V29.03l1.54-1.73h7.72l1.61,1.63v5.06h-4.42v-2.39h-2.39v3.46h2.63l1.11,4.04-3.74,.38Z"/>
    <path class="cls-2" d="M63.65,46.51l.06-18.41-5.33-12.32,12.8,11.52,2.43,1.45v3.57h-4.18v-.84h-2.51v11.97l3.46,5.16-.95-7.1h-1.31v-6.67l5.49,2.73v16.88l.29,6.22-10.25-14.15Z"/>
    <path class="cls-2" d="M79.11,41.98v10.61l-4.18-6.91V29.02l1.56-1.72h7.67l1.63,1.62v16.77l-4.42,6.91v-10.61h-2.27Zm1.99-2.41l.4-7.97h-2.39v6.09l1.99,1.88Z"/>
    <path class="cls-2" d="M96.12,27.18l1.38,1.68v6.42l-2.82,1.54,2.82,1.58v7.24l-4.42,9.71v-14.87l-2.39-1.5v13.62l-4.18-6.96V28.73l1.13-1.43,8.48-.12Zm-5.43,4.18l-.31,4.9,2.69-2.86v-2.04h-2.39Z"/>
    <path class="cls-2" d="M98.21,26.46v-3.27l-1.52-5.87,6.17,4.97-.71,.91v3.27h-3.94Zm0,.84h3.94l-.04,26.39,.29,9.05-4.72-10.05,.53-.86V27.3Z"/>
    <path class="cls-2" d="M102.99,28.76l2.44-1.46,12.41-8.26-4.22,9.15v26.45l.31,2.87-1.26-1.26-3.33-5.37,.1-1.07v-8.31l-2.51-1.56v10.34l-4.19-3.28,.25-.21V28.76Zm3.94,2.72v5.85h2.51v-5.85h-2.51Z"/>
  </g>
</svg>