<?xml version="1.0" encoding="UTF-8"?>
<svg id="Capa_1" data-name="Capa 1" xmlns="http://www.w3.org/2000/svg" viewBox="0 0 142.57 77.03">
  <defs>
    <style>
      .cls-1 {
        fill: #fff;
        stroke: #1d1d1b;
        stroke-miterlimit: 10;
        stroke-width: 2px;
      }

      .cls-2 {
        fill: #1d1d1c;
      }
    </style>
  </defs>
  <rect class="cls-1" x=".27" width="142.3" height="77.03"/>
  <g>
    <g>
      <path class="cls-2" d="M28.24,39.84V18.68h6.67v3.37h-2.44v14.42h2.44v3.37h-6.67Z"/>
      <path class="cls-2" d="M41.18,18.7h5.59c1.69,0,2.89,.55,3.62,1.64,.72,1.09,1.08,2.69,1.08,4.79s-.32,3.68-.96,4.75c-.64,1.07-1.79,1.6-3.45,1.6h-1.72v8.37h-4.16V18.7Zm4.4,8.96c.51,0,.88-.09,1.12-.28,.24-.19,.39-.46,.47-.81,.07-.35,.11-.86,.11-1.51,0-.89-.1-1.53-.3-1.92-.2-.39-.59-.59-1.18-.59h-.47v5.12h.25Z"/>
      <path class="cls-2" d="M57.72,39.84V18.7h4.23v17.54h4.36v3.59h-8.59Z"/>
      <path class="cls-2" d="M73.35,38.42c-.75-1.07-1.12-2.7-1.12-4.88v-9.1c0-1.95,.43-3.43,1.3-4.43,.87-1,2.17-1.5,3.89-1.5,1.39,0,2.48,.28,3.25,.84,.77,.56,1.3,1.37,1.6,2.44,.29,1.07,.44,2.44,.44,4.11h-4.13v-1.9c0-.51-.07-.9-.21-1.18-.14-.28-.39-.42-.75-.42-.8,0-1.21,.53-1.21,1.57v10.24c0,.64,.08,1.12,.25,1.45,.16,.33,.45,.49,.86,.49s.7-.16,.86-.49c.16-.33,.25-.81,.25-1.45v-3.03h-1.13v-3.64h5.17v12.3h-1.7l-.71-1.77c-.75,1.31-1.92,1.97-3.49,1.97s-2.66-.54-3.41-1.61Z"/>
      <path class="cls-2" d="M89.26,18.7h6.5c1.03,0,1.83,.23,2.4,.7s.95,1.12,1.14,1.97c.2,.85,.3,1.92,.3,3.24,0,1.2-.16,2.13-.47,2.81-.31,.67-.85,1.14-1.62,1.4,.64,.13,1.1,.45,1.39,.96,.29,.51,.43,1.2,.43,2.07l-.05,8h-4.13v-8.27c0-.59-.11-.97-.34-1.13-.23-.16-.65-.25-1.25-.25v9.65h-4.28V18.7Zm5.32,7.83c.59,0,.89-.64,.89-1.92,0-.56-.02-.98-.07-1.25-.05-.28-.14-.47-.27-.58-.13-.11-.32-.16-.57-.16h-.98v3.91h1.01Z"/>
      <path class="cls-2" d="M105.4,39.84v-3.37h2.44v-14.42h-2.44v-3.37h6.67v21.16h-6.67Z"/>
    </g>
    <g>
      <path class="cls-2" d="M20.36,55.88v-12.49h5v2.41h-2.46v2.43h2.36v2.36h-2.36v2.86h2.62v2.43h-5.16Z"/>
      <path class="cls-2" d="M29.26,55.88v-12.49h2.57l1.15,5.98v-5.98h2.41v12.49h-2.44l-1.25-6.25v6.25h-2.44Z"/>
      <path class="cls-2" d="M39.41,55.88v-12.49h5v2.41h-2.46v2.43h2.36v2.36h-2.36v2.86h2.62v2.43h-5.16Z"/>
      <path class="cls-2" d="M48.31,43.39h3.84c.61,0,1.08,.14,1.42,.41,.33,.28,.56,.66,.68,1.16,.12,.5,.17,1.14,.17,1.91,0,.71-.09,1.26-.28,1.66s-.5,.67-.96,.83c.38,.08,.65,.27,.82,.57,.17,.3,.25,.71,.25,1.22l-.03,4.73h-2.44v-4.89c0-.35-.07-.57-.2-.67s-.38-.15-.74-.15v5.7h-2.53v-12.49Zm3.14,4.62c.35,0,.52-.38,.52-1.13,0-.33-.01-.58-.04-.74-.03-.16-.08-.28-.16-.34-.08-.06-.19-.09-.33-.09h-.58v2.31h.6Z"/>
      <path class="cls-2" d="M58.71,55.04c-.44-.63-.66-1.6-.66-2.89v-5.38c0-1.15,.26-2.03,.77-2.62s1.28-.89,2.3-.89c.82,0,1.46,.17,1.92,.49,.46,.33,.77,.81,.95,1.44,.17,.63,.26,1.44,.26,2.43h-2.44v-1.12c0-.3-.04-.53-.12-.7-.08-.16-.23-.25-.44-.25-.48,0-.71,.31-.71,.93v6.05c0,.38,.05,.66,.15,.86s.27,.29,.51,.29,.41-.1,.51-.29,.15-.48,.15-.86v-1.79h-.67v-2.15h3.05v7.27h-1l-.42-1.05c-.45,.78-1.13,1.16-2.06,1.16s-1.57-.32-2.01-.95Z"/>
      <path class="cls-2" d="M69.62,55.88v-4.11l-1.99-8.38h2.47l.7,4.23,.7-4.23h2.47l-1.99,8.38v4.11h-2.36Z"/>
      <path class="cls-2" d="M83.82,55.88v-12.49h5v2.43h-2.49v1.99h2.36v2.4h-2.36v5.67h-2.52Z"/>
      <path class="cls-2" d="M92.41,55.88v-12.49h2.41v12.49h-2.41Z"/>
      <path class="cls-2" d="M98.73,55.88v-12.49h5v2.41h-2.46v2.43h2.36v2.36h-2.36v2.86h2.62v2.43h-5.16Z"/>
      <path class="cls-2" d="M107.63,55.88v-12.49h2.5v10.37h2.57v2.12h-5.07Z"/>
      <path class="cls-2" d="M116.31,43.39h3.45c.89,0,1.56,.25,2.01,.74,.45,.49,.67,1.23,.68,2.2l.03,5.85c0,1.23-.2,2.16-.64,2.78-.44,.62-1.16,.93-2.17,.93h-3.36v-12.49Zm2.95,10.28c.46,0,.68-.22,.68-.67v-6.44c0-.28-.02-.49-.07-.63-.04-.14-.12-.23-.24-.28-.12-.05-.3-.07-.54-.07h-.28v8.1h.44Z"/>
    </g>
  </g>
</svg>