<?xml version="1.0" encoding="UTF-8"?>
<svg id="Capa_1" data-name="Capa 1" xmlns="http://www.w3.org/2000/svg" viewBox="0 0 142.57 77.03">
  <defs>
    <style>
      .cls-1 {
        fill: #fff;
        stroke: #1d1d1b;
        stroke-miterlimit: 10;
        stroke-width: 2px;
      }

      .cls-2 {
        fill: #1d1d1c;
      }
    </style>
  </defs>
  <rect class="cls-1" x=".27" width="142.3" height="77.03"/>
  <g>
    <path class="cls-2" d="M54.74,30.69c.22,0,.31,.08,2.78,.19,1.88,.08,3.03,.17,6.5,.23-.96-.9-1.9-1.84-2.88-2.71-.17-.15-.26-.47-.26-.71,0-.56,.4-1,.89-1,.26,0,.44,.12,.63,.29,1.12,1,2.18,2.08,3.29,3.09-.08-4.63-.16-9.26-.09-13.89,0-.55,.4-1,.89-1s.9,.46,.89,1c-.07,4.61,.02,9.22,.09,13.83,.75-1.05,1.66-2.12,2.22-2.99,.14-.22,.29-.39,.53-.46,.47-.15,.97,.17,1.1,.7,.06,.24,.05,.57-.09,.77-.71,1.09-1.53,2.07-2.29,3.11,2.77-.02,5.53-.1,8.3-.24,.49-.03,.89,.47,.89,1,0,.57-.41,.98-.89,1-2.73,.14-5.45,.22-8.18,.24,1,1.07,2.01,2.12,2.57,3.57,.03,.08,.06,.16,.09,.24,.18,.77-.45,1.44-1.1,1.23-.2-.06-.45-.24-.53-.46-.18-.46-.39-.88-.66-1.28-.55-.81-1.23-1.46-1.89-2.17,.12,9.27-.07,11.01-.11,13.92,0,.55-.4,1-.89,1s-.9-.46-.89-1c.04-2.77,.23-4.92,.11-14.14-.19,.35-.42,.67-.64,.99-.58,.82-1.29,1.53-1.86,2.36-.24,.35-.44,.72-.62,1.12-.21,.49-.83,.62-1.22,.36-.2-.13-.35-.35-.41-.6-.07-.28-.02-.52,.09-.77,.66-1.53,1.87-2.6,2.78-3.93,.1-.15,.2-.31,.29-.48-3.56-.06-4.86-.15-6.47-.22-.97-.04-1.93-.08-2.9-.19-.25-.03-.45-.09-.63-.29-.35-.39-.35-1.03,0-1.42,.14-.16,.37-.3,.58-.3"/>
    <path class="cls-2" d="M88.5,47.54c.4-.39,2.57-4.57,2.68-5.17,.03-.14,.23-.76,.46-1.37,.44-1.17,.48-1.31,.59-1.92,.04-.21,.13-.69,.2-1.07,.14-.74,.2-1.48,.25-2.93,.03-.89-.15-3.23-.32-4.15-.08-.43-.17-1.02-.2-1.31-.03-.29-.16-.84-.28-1.23-.12-.39-.34-1.13-.48-1.66-.35-1.3-.87-2.6-1.33-3.28-.11-.17-.34-.57-.5-.88-.16-.31-.36-.65-.44-.76-.08-.1-.25-.38-.37-.61-.42-.78-.81-1.36-1.47-2.17-.36-.44-.82-1.03-1.02-1.3-.41-.57-1.14-1.29-1.66-1.65-.19-.13-.63-.48-.96-.76-1.1-.93-3.08-2.25-4.4-2.92-.81-.41-1.24-.6-1.3-.56-.15,.09-.09,.22,.2,.41,1.6,1.03,1.83,1.22,2.09,1.69,.11,.21,.26,.4,.32,.43s.16,.2,.22,.38c.07,.23,.18,.36,.35,.44,.15,.07,.24,.17,.23,.25,0,.08,.09,.18,.23,.25,.2,.09,.25,.17,.24,.41,0,.16-.03,.33-.04,.37-.02,.04,.06,.19,.18,.33,.22,.27,.3,.48,.31,.81,0,.11,.1,.33,.22,.49,.17,.23,.19,.32,.1,.46-.1,.15-.08,.2,.1,.33,.18,.13,.2,.18,.1,.37-.1,.2-.08,.26,.21,.54,.42,.42,.47,.55,.31,.74-.11,.12-.1,.19,.02,.31,.09,.09,.16,.22,.17,.29,0,.07,.09,.22,.18,.32,.09,.11,.14,.25,.11,.32-.07,.13,.1,.65,.3,.92,.09,.12,.09,.2-.02,.32-.12,.14-.12,.17,.06,.26,.22,.1,.28,.4,.11,.56-.06,.05-.08,.19-.05,.3,.03,.11,.02,.23-.03,.26-.05,.03-.04,.26,0,.52,.05,.26,.08,.55,.07,.65-.02,.1,.02,.4,.07,.65,.06,.3,.06,.51-.02,.6-.08,.08-.08,.27,0,.53,.06,.23,.07,.67,.02,1.01-.09,.63-.03,1.01,.09,.56,.04-.13,.07-.3,.08-.38,0-.1,.07-.11,.24-.05,.19,.07,.2,.09,.05,.1-.14,.01-.17,.05-.15,.2,.02,.23,.28,.21,.31-.03,.01-.13,.02-.13,.1,.02,.06,.12,.04,.23-.06,.35-.08,.1-.1,.14-.05,.1,.09-.08,.29,.08,.24,.18-.04,.08-.36-.09-.44-.24-.03-.06-.07,.11-.08,.4-.01,.28-.04,.55-.06,.59-.07,.14-.23-.13-.19-.32,.04-.2-.09-.65-.16-.53-.02,.04-.03,.22-.03,.4,.01,.33-.03,.58-.31,1.71-.08,.34-.15,.74-.15,.88,0,.14-.08,.41-.18,.61s-.27,.65-.37,1.01c-.11,.36-.28,.97-.4,1.36-.22,.76-.39,1.21-.91,2.38-.27,.6-.37,.78-.54,.87-.12,.07-.23,.19-.25,.28-.14,.52-.15,.61-.08,.65,.05,.02,.11-.07,.16-.25,.04-.16,.14-.33,.2-.39,.11-.1,.12-.09,.16,.09,.03,.18,.05,.17,.21-.14,.09-.18,.29-.65,.43-1.04,.29-.78,.38-.87,.75-.75,.14,.05,.26,.03,.32-.05,.14-.18,.06-.37-.15-.32-.26,.06-.35-.3-.23-.87,.11-.53,.3-.68,.35-.29,.02,.12,.06,.23,.1,.25,.11,.05,.2-.21,.16-.43-.02-.11,0-.28,.05-.37,.07-.13,.13-.15,.25-.07,.13,.08,.2,.05,.34-.12,.1-.12,.16-.24,.14-.27-.02-.03-.21-.09-.42-.13-.36-.07-.39-.09-.44-.32-.05-.2,0-.36,.24-.82,.25-.47,.3-.54,.32-.39,.01,.1,.05,.33,.08,.5,.03,.18,.05,.43,.05,.57-.01,.29,.08,.37,.19,.16,.04-.08,.11-.14,.14-.12,.12,.06,.18,.64,.08,.83-.11,.22-.01,.3,.2,.17,.12-.08,.14-.04,.12,.29-.03,.43,.07,.52,.36,.36,.17-.1,.21-.09,.28,.05,.07,.14,.08,.14,.14,.04,.09-.17,.3,.11,.26,.35-.01,.1,.02,.19,.07,.2,.3,.09,.43,.62,.24,1-.12,.24-.27,.11-.26-.23,0-.13-.02-.23-.06-.22-.03,.01-.06,.11-.05,.23,0,.11-.12,.45-.28,.74-.16,.29-.37,.7-.47,.9l-.18,.37-.12-.35c-.06-.19-.13-.35-.15-.36s-.08,.13-.14,.29c-.06,.19-.15,.31-.22,.32-.06,0-.21,.2-.33,.44-.18,.36-.19,.41-.04,.3,.19-.15,.33-.12,.25,.05-.03,.06-.03,.13,.01,.15s.02,.19-.03,.37c-.09,.3-.14,.35-.36,.4-.25,.05-.26,.05-.24-.11,0-.09,.06-.27,.12-.39,.08-.16,.07-.21-.01-.16-.13,.08-.1-.26,.07-.82,.05-.17,.06-.32,.01-.34-.05-.02-.11,.07-.17,.26-.06,.2-.1,.27-.14,.21-.03-.05-.03-.14,0-.21,.05-.1,.03-.11-.08-.07-.1,.03-.25,.26-.46,.69-.17,.35-.34,.63-.37,.61-.11-.05-.05-.29,.16-.71,.33-.65,.37-.9,.17-1-.14-.07-.16-.15-.11-.39,.15-.62-.28-.46-.55,.21-.13,.32-.13,.36,.01,.29,.13-.07,.12,.03-.07,.59-.29,.84-.61,1.48-.63,1.27-.01-.08,.09-.36,.22-.62,.13-.26,.21-.48,.18-.5s-.16,.2-.28,.48c-.14,.32-.27,.53-.35,.55-.1,.03-.11,.01-.07-.08,.04-.08,.01-.13-.08-.14-.08,0-.17,.05-.21,.13s-.13,.12-.19,.09-.13-.04-.14-.02-.36,.58-.78,1.24c-.42,.66-.83,1.34-.91,1.51-.08,.17-.28,.5-.44,.75-.18,.27-.32,.59-.38,.84-.1,.45-.5,.97-.92,1.2-.13,.07-.27,.19-.31,.26-.09,.18-.37,.36-.43,.27-.03-.04-.19,.12-.36,.34-.17,.23-.41,.48-.54,.56-.48,.32-.53,.39-.62,.76-.15,.6-.24,.73-.85,1.18-.31,.23-.59,.46-.61,.51s-.2,.13-.39,.19c-.31,.09-.37,.15-.58,.57-.18,.36-.31,.5-.54,.63-.17,.09-.45,.28-.62,.42-.17,.14-.37,.26-.43,.26-.15,.01-1.44,.91-1.64,1.14-.09,.1-.27,.18-.43,.19-.4,0-.59,.1-1.62,.83-1.11,.78-1.84,1.08-2.4,.97-.27-.05-.51-.01-.9,.15-.29,.12-.72,.23-.95,.25-.23,.02-.49,.05-.57,.08-.08,.02-.31,.05-.5,.06-.42,.02-1.07,.2-1.13,.32-.07,.14-.41,.19-.9,.12-.26-.04-.52-.09-.57-.11-.06-.03-.41-.04-.78-.04-.37,0-.71-.01-.77-.03-.15-.07-1.1-.05-1.13,.02-.02,.04-.14,.04-.26,0-.12-.04-.26-.04-.3,0-.14,.14,.54,.5,1.41,.75,.45,.13,1.08,.33,1.4,.45,.5,.18,.89,.28,2.31,.57,.41,.08,2.63,.46,3.21,.54,.23,.03,.56,.06,.73,.05,.17,0,.63,.03,1.01,.08,.39,.05,.75,.08,.81,.07,.06-.01,.73-.03,1.48-.05,1.65-.03,2.39-.09,3.2-.24,.34-.06,.79-.13,1.01-.15,.42-.04,4.5-1.36,4.55-1.47,.02-.04,.29-.17,.61-.3,.87-.35,1.77-.8,3.1-1.56,.46-.26,.96-.54,1.13-.64,.16-.09,.49-.31,.71-.48,.23-.17,.69-.52,1.02-.77,.33-.25,.64-.51,.68-.6s.17-.22,.29-.3c.12-.08,.45-.39,.75-.69,.29-.3,.63-.62,.75-.72,.44-.37,.92-.94,1.58-1.85,.37-.52,.71-.98,.76-1.03m-29.35,8.67s-.11-.02-.15-.06c-.05-.05-.02-.06,.07-.02,.08,.03,.12,.07,.08,.09Zm1.43,.29c-.17,.07-.39,0-.34-.1,.04-.08,.21-.08,.38,0,.09,.04,.08,.06-.04,.11Zm2.02-.54c-.06,.12-.33,.14-.37,.02-.03-.08,.26-.22,.36-.17,.04,.02,.04,.08,.01,.15Zm-.24,.67c-.27,0-.37-.05-.26-.16,.05-.05,.14-.14,.19-.19,.13-.13,.21-.07,.24,.16,.02,.16,0,.19-.17,.2Zm4.51-.1c.04-.08,.52-.04,.59,.05,.03,.04,0,.08-.05,.09-.15,.04-.58-.07-.54-.14Zm-2.34,.56c-.14-.07,.11-.13,1.11-.26,.96-.13,1.44-.05,.57,.09-.92,.15-1.57,.22-1.68,.17Zm-.27,.58c.45,.06,.62,.12,.58,.18-.04,.07-.83,.02-1.03-.07-.27-.12-.05-.18,.44-.11Zm-.35-1.75c.79-.08,1.27-.02,1.28,.16,0,.04-.09,.16-.22,.26-.16,.14-.4,.19-.9,.21-.75,.02-.88,0-.87-.21,.02-.2,.31-.38,.69-.41Zm1.44-.27c-.17-.12-.4-.15-.92-.14l-.69,.02,.33-.12c.18-.06,.48-.09,.67-.06,.19,.03,.41,.02,.5-.01,.14-.06,.42,.08,.56,.29,.11,.15-.24,.17-.46,.03Zm1.36-.7c-.05,.09-.25,.11-.27,.03-.03-.08,.14-.18,.24-.14,.04,.02,.06,.07,.04,.11Zm-.69,1.45c.15,.07,.26,.16,.25,.19-.05,.11-.53,.09-.56-.02-.06-.18,.03-.49,.12-.45,.05,.02,.05,.06,0,.09-.05,.03,.03,.11,.19,.18Zm1.1-1.13c-.27,.19-.57,.19-.48,0,.06-.13,.55-.29,.6-.2,.03,.04-.03,.13-.13,.19Zm.35-.46c.07-.14,.39-.34,.43-.27,.04,.06,0,.12-.1,.19h0c-.15,.1-.37,.16-.33,.09Zm1.59-1.22c-.07,.14-.91,.46-1.05,.39-.18-.08,.13-.33,.57-.45,.45-.12,.57-.11,.48,.06Zm-.86,1.69s.06,.06,.04,.1c-.06,.11-.4,.25-.43,.17-.03-.09,.28-.32,.38-.27Zm1.27-2.11s-.08,.06-.12,.04-.04-.06,0-.09c.05-.03,.1-.04,.12-.04s.02,.05,0,.09Zm12.39-37.74c.06,.03,.11,.07,.1,.08s-.08,.02-.15,.02c-.08,0-.12-.04-.1-.08s.09-.05,.15-.02Zm.47-.62s-.08-.08-.09-.14c0-.05,.02-.08,.07-.06s.08,.08,.09,.13c0,.05-.03,.08-.07,.06Zm.49,3.11c.07,.03,.1,.09,.08,.13s-.07,.06-.11,.04-.08-.08-.08-.13c0-.05,.04-.07,.11-.04Zm1.51-.74c-.3,0-.31,0-.48-.41-.1-.23-.16-.45-.14-.49,.04-.09,.02-.1,.47,.33,.5,.49,.52,.56,.16,.57Zm2.66,30.22c.26-.26,.55-.39,.7-.32,.06,.03,.1,.07,.08,.09s-.19,.12-.39,.21c-.35,.16-.38,.19-.46,.54-.05,.2-.13,.4-.18,.45-.35,.32-.11-.62,.26-.97Zm-2.63,3.08c.07-.2,.52-.55,.59-.45,.02,.04-.08,.22-.23,.41-.28,.34-.46,.36-.36,.04Zm5.21-10.18c.06,.06,.08,.14,.06,.18-.05,.1-.2-.05-.18-.18,0-.06,.05-.06,.12,0Zm.75-1.75s-.06-.07-.04-.11,.07-.06,.12-.04,.06,.07,.04,.11-.07,.06-.12,.04Zm-2.27,5.03c-.03,.06-.08,.08-.11,.03-.03-.05-.04-.11-.02-.15s.07-.05,.11-.03,.05,.09,.02,.15Zm-1.37,1.82c.22-.43,.3-.51,.38-.45,.07,.05,.06,.16-.03,.32-.21,.37-.49,.71-.56,.68-.03-.02,.06-.26,.21-.55Zm1.8-4.11c.18-.43,.35-.55,.32-.22-.02,.23-.43,1.22-.49,1.19-.1-.05-.01-.52,.17-.96Zm1.38-2.21s-.02-.15,.05-.28c.1-.18,.13-.21,.14-.1,.01,.08-.01,.21-.05,.28-.04,.07-.1,.11-.14,.09Zm-6.37,11.29c-.49,.04-.57,.02-.51-.09,.04-.08,.74-.3,.83-.26,.03,.01,.07,.09,.09,.17,.03,.12-.04,.16-.4,.18Zm-1.92,3.25s.07-.06,.12-.04,.06,.07,.04,.11-.07,.06-.12,.04-.06-.07-.04-.11Zm.37-1.15c.23-.09,.33,.04,.13,.17-.08,.06-.21,.22-.29,.37-.16,.31-.31,.29-.28-.03,.02-.24,.16-.4,.44-.52Zm.58-1.67s.06-.04,.09,0c.03,.05,.04,.12,.02,.16s-.06,.04-.09,0c-.03-.05-.04-.12-.02-.16Zm.28-1.77c-.12-.12-.03-.36,.09-.25,.05,.04,.06,.14,.04,.21-.03,.09-.07,.11-.14,.03Zm.32-.8c-.06,.05-.06,.02-.02-.07,.04-.08,.08-.12,.09-.08,.01,.04-.02,.1-.07,.15Zm-4.06,6.78c.3-.1,.54-.06,.35,.05-.3,.19-.62,.34-.69,.31-.14-.07,.05-.27,.33-.36Zm-.74-.26c.48-.34,.92-.41,.95-.15,0,.05-.02,.08-.06,.06s-.23,.08-.43,.22c-.29,.21-.36,.28-.34,.44,.03,.27-.29,.43-.43,.22-.21-.32-.15-.45,.32-.78Zm1.11-1.2c-.14,.03-.17,.01-.16-.11,0-.1,.13-.19,.35-.27,.31-.11,.49-.12,.44-.02-.05,.09-.47,.36-.63,.39Zm-.46,0c.03,.1-.02,.17-.17,.25-.27,.14-.34,.09-.29-.17,.08-.35,.37-.4,.45-.08Zm-.22-.6c.07-.04,.12-.02,.14,.05,.02,.06,0,.14-.06,.17-.07,.04-.11,.02-.14-.05-.02-.06,0-.14,.06-.17Zm-.87,1.27c.05,.02,.02,.07-.07,.11-.09,.04-.17,.05-.18,.02-.03-.08,.16-.17,.25-.12Zm-1.98,1.54c.34-.01,.38,.14,.09,.34-.28,.2-1.02,.41-1.09,.3-.11-.17,.61-.63,1-.64Zm.79-2.1s-.05-.09-.02-.15,.09-.1,.14-.08,.05,.09,.02,.15-.09,.1-.13,.08Zm-2.24,1.38c.01-.11,.58-.48,.77-.51,.14-.02,.32,.06,.28,.12-.05,.11-1.07,.48-1.05,.39Zm.84-2.04c-.05-.02-.01-.11,.12-.25,.16-.17,.18-.24,.12-.36-.04-.08-.04-.17,.02-.21,.07-.04,.12-.02,.17,.09,.06,.12,.1,.13,.25,.06,.27-.14,.44-.51,.25-.56-.17-.05-.13-.12,.35-.74,.18-.22,.44-.6,.59-.84,.15-.24,.32-.45,.38-.47,.06-.02,.15-.11,.19-.2s.15-.18,.24-.2c.09-.02,.31-.24,.5-.5,.52-.7,.69-.73,.28-.06-.22,.35-.32,.58-.28,.64,.1,.15-.02,.25-.16,.13-.29-.24-.78,.3-.51,.57,.2,.2,1.52-.45,1.72-.85,.04-.07,.12-.1,.18-.07s.1,.09,.07,.14c-.07,.14,.11,.05,.23-.12,.12-.17,.32-.22,.4-.1,.08,.12,.28-.05,.46-.4,.16-.31,.47-.53,.64-.45,.04,.02-.02,.17-.13,.33-.11,.17-.28,.44-.37,.62-.14,.26-.2,.3-.32,.25-.1-.05-.22,0-.36,.13-.28,.27-.3,.31-.12,.39s.9-.23,1.01-.44c.04-.08,.15-.17,.24-.19,.14-.03,.15,0,.06,.16-.06,.11-.06,.22-.01,.24,.05,.02,.11-.04,.14-.16,.04-.13,.13-.22,.26-.26,.18-.05,.2-.04,.17,.12-.02,.12,.04,.21,.16,.27,.23,.11,.19,.21-.17,.4l-.27,.14,.16,.08c.18,.08,.13,.25-.12,.42-.09,.06-.23,.22-.31,.35-.08,.13-.36,.34-.62,.48-.26,.14-.61,.35-.78,.47-.17,.12-.47,.28-.66,.35-.19,.07-.4,.17-.45,.22-.06,.05-.15,.04-.23-.02-.1-.09-.16-.06-.3,.12-.25,.34-1.03,.61-1.42,.5-.17-.05-.4-.05-.51-.01-.11,.04-.25,.06-.3,.03s-.17-.01-.25,.02c-.27,.12-.31,0-.06-.17,.13-.09,.4-.2,.6-.24,.44-.09,.55-.34,.22-.49-.18-.08-.28-.05-.65,.23-.46,.34-.69,.45-.82,.39Zm7.31-4.2c-.12,.07-.23-.01-.17-.13,.03-.07,.09-.07,.15-.01,.05,.05,.06,.12,.02,.14Zm-.38-.68c-.04,.07-.03,.11,.01,.1,.04-.01,.11,.03,.14,.11,.08,.16-.16,.66-.29,.6-.05-.02-.17,0-.26,.04-.28,.14-.28-.11-.01-.67,.22-.47,.27-.52,.51-.57,.33-.06,.37-.05,.36,.13-.02,.18-.14,.25-.28,.18-.06-.03-.14,0-.18,.07Zm-.45-.46s.04,.12-.02,.23-.12,.16-.15,.11c-.03-.05-.02-.15,.02-.23s.11-.13,.15-.11Zm.17-.51c-.13,.08-.14,.08-.09-.02,.06-.13,.2-.2,.23-.12,0,.03-.05,.09-.14,.15Zm-1.55,.93c.17,.02,.17,.05-.03,.33-.28,.39-.47,.46-.29,.1,.11-.21,.11-.28,0-.29-.11,0-.11-.07-.02-.24,.08-.16,.16-.22,.25-.17,.08,.04,.09,.09,.02,.15-.08,.07-.06,.1,.08,.12Zm.41-.6s.05,.08,.02,.13c-.07,.14-.3,.26-.33,.17-.04-.1,.22-.34,.31-.3Zm-1.79,2c-.2,.1-.25,.09-.21,0,.11-.22,.39-.37,.43-.24,.03,.08-.04,.15-.23,.24Zm-4.34,4.29c.03-.06,.09-.1,.14-.08s.05,.09,.02,.15-.09,.1-.14,.08-.05-.09-.02-.15Zm.58-1.82c-.1-.05-.09-.11,.09-.35,.12-.16,.29-.37,.38-.45,.09-.09,.22-.21,.28-.28,.21-.21,.18,.01-.06,.44-.29,.51-.52,.72-.68,.64Zm-1.51,1.84c.29-.1,.46-.04,.43,.14,0,.05-.1,.08-.2,.07-.11-.02-.22,.04-.27,.14-.05,.09-.15,.2-.22,.24-.12,.07-.14,.06-.15-.07-.03-.25,.1-.42,.41-.52Zm3.01-5.33c-.06-.03-.22,.01-.34,.1l-.22,.15,.13-.26c.29-.57,.64-.71,.6-.23-.03,.3-.03,.3-.17,.24Zm-3.29,5.21c-.41,.13-.4,.06,.04-.23,.34-.23,.49-.23,.38-.02-.04,.07-.22,.18-.41,.24Zm2.83-5.58c-.03-.07,0-.17,.06-.22,.16-.15,.2-.08,.09,.15-.08,.15-.12,.17-.15,.08Zm-1.93,3.56c-.06,.05-.07,.02-.02-.07,.04-.08,.08-.12,.09-.08,.01,.04-.02,.1-.07,.15Zm-3.05,5.77c-.11,.02-.3,0-.41-.06s-.3-.08-.41-.06c-.24,.05-.34,.02-.3-.07,.05-.1,.9-.04,1.17,.08,.16,.07,.16,.07-.05,.11Zm-.9,.2c.32,.04,.58,.13,.55,.19-.04,.08-1.16,.18-1.19,.11-.05-.14,.36-.34,.64-.3Zm-1.44,.2c.13-.11,.38-.02,.26,.09-.04,.04-.15,.06-.22,.04-.1-.03-.11-.07-.04-.13Zm.23-1.15s.08-.06,.12-.04,.07,.05,.06,.07-.06,.04-.12,.04c-.06,0-.08-.03-.06-.07Zm.8-1.27c.11,0,.17-.05,.21-.22,.05-.17,.09-.22,.17-.18,.06,.03,.1,.11,.1,.18h0c-.02,.17,.17,.26,.49,.22,.39-.05,.23,.14-.27,.32-.34,.12-.47,.12-.69,.01-.28-.14-.29-.35-.01-.33Zm-.5-.71c.12-.05,.36-.15,.53-.23,.32-.14,.42-.15,.43-.02,.01,.11-.39,.4-.75,.56-.28,.12-.32,.12-.37-.04-.06-.16-.04-.18,.16-.27Zm-1.16,1.2s-.06-.07-.04-.11,.05-.07,.07-.06,.04,.06,.04,.11c0,.05-.03,.08-.07,.06Zm6.23-5.64c-.24,.31-.41,.4-.49,.28-.05-.07,.02-.24,.25-.59,.27-.42,.3-.5,.2-.55-.14-.07-.23,.02-.61,.59-.22,.33-.31,.41-.45,.38-.19-.04-.35,.19-.22,.32,.05,.05,.17,.07,.28,.05,.11-.02,.22,0,.24,.03,.08,.12-.56,.55-.83,.56-.24,0-.26,.02-.21,.2,.03,.1,.02,.26-.03,.35s-.05,.18,0,.2,.1-.01,.13-.07,.13-.12,.22-.14c.14-.03,.15,0,.07,.15-.05,.1-.06,.22-.02,.26,.09,.09-.38,.96-.59,1.11-.16,.11-.55-.08-1.27-.59-.43-.31-.75-.37-.86-.17-.05,.1-.25,.14-.29,.05-.04-.1,.62-.56,.93-.65,.16-.05,.31-.13,.34-.19s.25-.23,.49-.39c.32-.21,.49-.39,.62-.64s.22-.35,.32-.34c.08,0,.17-.04,.2-.1s.15-.18,.27-.26c.66-.46,1.17-.87,1.41-1.12,.15-.16,.33-.35,.41-.41,.08-.07,.2-.18,.27-.24,.28-.25-.17,.81-.47,1.14-.24,.26-.27,.31-.2,.42,.06,.09,.03,.19-.1,.36Zm-.96,1.9c-.1,.14-.12,.14-.11,0,0-.09,.08-.24,.17-.34,.16-.17,.16-.17,.11,0-.03,.1-.11,.25-.17,.34Zm-.79,1.98c-.11,.21-.49,.54-.61,.53-.08,0-.18,.06-.22,.16-.09,.18-.54,.38-.69,.31s.27-.64,.55-.74c.14-.05,.21-.11,.16-.14s-.11-.01-.12,.02c-.05,.09-.74-.03-.88-.16-.09-.08-.25-.05-.58,.09-.47,.21-.65,.22-.56,.04,.07-.13,.6-.28,1-.29,.18,0,.34-.04,.36-.08,.07-.13-.18-.18-.47-.1-.72,.2-.98,.26-1.05,.23-.14-.07,.02-.25,.34-.38,.27-.12,.31-.16,.32-.36,0-.35,.18-.46,.42-.27,.11,.08,.26,.24,.34,.34,.19,.23,.89,.5,1.14,.44,.21-.06,.47,.04,.41,.15-.02,.04-.12,.14-.21,.2-.16,.12-.16,.12,.13,.04,.16-.05,.28-.05,.26-.02Zm6.51-11.24c-.06,.12-.15,.21-.19,.19-.09-.04,.06-.37,.18-.41,.13-.04,.13,0,.01,.22Zm.19,.27c.06,.03,.09,.15,.06,.27-.06,.28-.2,.37-.29,.18-.09-.18,.08-.51,.23-.45Zm2.83-4.1c.03,.07,0,.29-.05,.49-.05,.2-.17,.49-.25,.66-.13,.26-.16,.28-.21,.14-.07-.21,.42-1.48,.5-1.28Zm.32-.05c-.03,.06-.09,.1-.14,.08s-.05-.09-.02-.15,.09-.1,.14-.08,.05,.09,.02,.15Zm-.4,3.28c-.02,.24,.11,.25,.29,.02,.12-.15,.6-.07,.72,.11,.04,.06,.17,.16,.29,.21,.17,.08,.25,.06,.36-.07,.11-.12,.16-.14,.19-.05,.08,.23,.17,.18,.38-.23l.21-.41,.81,.45,.24-.25c.25-.26,.36-.61,.15-.48-.09,.05-.13,.03-.19-.13-.05-.11-.14-.22-.21-.26-.15-.07-.14-.26,.03-.6,.08-.15,.09-.27,.03-.28-.1-.02-.08-.22,.07-.77,.06-.21,.11-.29,.15-.23,.03,.05,.03,.13,0,.19s-.06,.21-.08,.35c-.04,.39,.17,.19,.41-.4,.17-.41,.23-.49,.3-.42,.05,.05,.04,.23-.01,.4-.06,.17-.12,.4-.13,.51-.03,.21,.08,.33,.16,.18,.02-.05,.13-.1,.23-.12,.14-.02,.23-.13,.39-.46,.21-.43,.27-.48,.36-.24,.04,.1,.09,.11,.24,.04,.22-.11,.33-.26,.21-.31-.04-.02-.04-.1,0-.19,.08-.17,.23-.15,.21,.03,0,.06,.03,.1,.08,.08,.05-.01,.07-.09,.06-.16-.07-.28,.03-.51,.28-.66l.25-.14-.11,.32c-.06,.17-.11,.5-.1,.71,.01,.3-.02,.43-.15,.54-.1,.09-.16,.21-.15,.32,0,.15-.25,.85-.46,1.23-.03,.06-.12,.22-.19,.36-.2,.4-.27,.22-.1-.28,.09-.25,.11-.4,.05-.32-.06,.07-.17,.16-.24,.19-.07,.03-.15,.15-.17,.26-.03,.15-.1,.21-.24,.22-.17,0-.2,.04-.24,.31-.05,.29,.06,.45,.24,.34,.24-.15,.22,.06-.05,.54-.22,.39-.27,.55-.21,.64,.06,.09,.02,.1-.16,.01-.16-.08-.35-.07-.56,0-.41,.14-.44,.21-.13,.29,.24,.06,.25,.08,.2,.47-.03,.23-.11,.52-.17,.65-.14,.28-.5,.49-.67,.38-.37-.22-.47-.11-.33,.35,.09,.28,.14,.33,.47,.44,.22,.08,.43,.09,.5,.04,.07-.05,.19-.06,.25-.03,.12,.06,.07,.14-.39,.73-.05,.06-.11,.14-.13,.18-.02,.03-.06,.02-.1-.03-.04-.05,.01-.19,.11-.33,.1-.14,.13-.23,.08-.23-.05,0-.12,.05-.15,.11s-.11,.1-.19,.09c-.08,0-.17,.05-.22,.14s-.12,.15-.18,.16c-.06,0-.2,.2-.33,.43-.12,.23-.34,.54-.48,.68l-.26,.25,.23-.47c.25-.51,.23-.56-.23-.57-.14,0-.29,.05-.33,.13-.09,.18-.25,.09-.2-.12,.03-.13-.03-.2-.23-.29-.15-.07-.28-.09-.3-.05s-.09,.05-.15,.02c-.07-.03-.07-.18,0-.39,.08-.26,.07-.33-.03-.29-.3,.1-.36-.05-.14-.35,.12-.16,.26-.35,.32-.41,.06-.06,.07-.13,.02-.15s-.11,0-.13,.06-.14,.1-.26,.12c-.17,.02-.25,.09-.36,.34-.23,.5-.29,.58-.38,.54-.06-.03-.03-.11,.07-.24,.1-.13,.13-.25,.09-.34-.04-.08-.09-.14-.11-.13-.02,.01-.25,.28-.5,.59-.77,.95-.88,1.06-1.02,1.04-.08,0-.16,.04-.19,.1s-.13,.1-.22,.09c-.09-.01-.25,.06-.35,.17-.22,.23-.37,.2-.28-.07,.09-.26,.02-.42-.14-.33-.17,.1-.22,.2-.09,.19,.06,0,.1,.05,.09,.13-.02,.2-.3,.49-.39,.4-.32-.32-.36-.33-.62-.15-.22,.15-.24,.15-.12,.01,.07-.09,.23-.29,.34-.43,.14-.19,.23-.23,.29-.17,.07,.07,.11,.04,.19-.16,.1-.25-.02-.5-.13-.29-.08,.16-.26,.16-.33,0-.05-.1-.1-.11-.21-.07-.08,.04-.31,.02-.5-.04-.24-.07-.45-.06-.63,.01-.23,.1-.27,.09-.21-.02,.04-.07,.2-.23,.36-.34,.16-.12,.41-.33,.55-.48,.26-.27,.45-.32,.33-.09-.06,.11-.05,.12,.15,.07,.12-.03,.27-.02,.34,.03,.22,.15,.57-.39,.59-.9,0-.22,0-.44-.04-.49-.07-.1,.17-.59,.3-.6,.05,0,.11,.06,.13,.15,.02,.09,.11,.19,.19,.23,.12,.06,.16,.03,.2-.16,.03-.13,.03-.38,0-.56-.03-.18-.01-.43,.05-.55s.09-.26,.07-.3c-.12-.17,.57-1,.75-.91,.06,.03,.02,.15-.17,.41-.2,.3-.23,.36-.11,.32,.08-.03,.24,0,.36,.05,.24,.11,.66-.06,.68-.29,.02-.19-.2-.26-.39-.13-.23,.16-.29-.04-.09-.34,.12-.19,.2-.23,.35-.18,.23,.07,.51-.14,.73-.55,.09-.16,.21-.29,.27-.28,.07,0,.08,.08,.02,.19-.11,.21-.48,.67-.65,.82-.16,.14,.08,.27,.3,.16,.2-.1,.38,.1,.36,.39Zm6.52-2.45c-.02,.21-.08,.2-.11-.02-.01-.1,.01-.18,.05-.16s.06,.1,.06,.18Zm.24-1.08c-.13-.09-.04-.46,.15-.64,.1-.09,.12-.08,.15,.1,.02,.11-.01,.3-.07,.41-.08,.17-.14,.19-.24,.13Zm.73-.71s.01,.16-.04,.24c-.09,.16-.09,.16-.08-.02,.01-.25,.05-.32,.11-.23Zm-1.22,2.58s-.06,.04-.12,.04c-.06,0-.08-.03-.06-.07s.08-.06,.12-.04,.07,.05,.06,.07Zm-2.03,3.8s0,.19-.08,.32c-.12,.22-.13,.23-.1,.02,.05-.31,.11-.43,.17-.34Zm-.26,.71c-.01,.1-.08,.22-.16,.28-.2,.14-.2,.11,0-.19,.14-.21,.17-.23,.16-.09Zm2.63-8.12c0-.05,.04-.07,.11-.04s.11,.07,.11,.09c-.04,.08-.21,.04-.22-.05Zm-.92,1.43c-.04-.08-.04-.2,0-.27,.06-.1,.07-.09,.11,.08,.02,.11,.03,.23,0,.27s-.07,0-.11-.08Zm-.67-.4c-.07-.03-.07-.09-.01-.14,.06-.05,.13-.08,.17-.06s.04,.08,.01,.15-.11,.09-.17,.06Zm-.45,.31c-.08,0-.19,.08-.25,.21s-.15,.2-.19,.18-.02-.14,.04-.28,.14-.37,.15-.53c.03-.23,.07-.3,.19-.36,.23-.1,.28-.05,.26,.23-.05,.5-.07,.55-.21,.54Zm-1.5,2.2c.12-.07,.14-.01,.05,.16-.07,.13-.09,.14-.1,.03,0-.08,.02-.16,.05-.18Zm-.28-.35c-.17,.6-.21,.67-.26,.53-.04-.12,.14-1.05,.25-1.27l.08-.15,.03,.2c.02,.11-.03,.42-.11,.68Zm1.3-2.92s-.04-.11-.02-.15,.07-.05,.11-.03,.05,.09,.02,.15-.08,.08-.11,.03Zm-2.24,4.02s-.07,.06-.12,.04-.06-.07-.04-.11,.07-.06,.12-.04,.06,.07,.04,.11Zm.32-.37c.11-.1,.12-.09,.19,.08,.05,.15,.04,.2-.07,.23-.19,.06-.28-.17-.11-.31Zm-1.12,.83c-.25,.11-.48-.04-.39-.25,.03-.07-.05-.05-.19,.06-.26,.19-.44,.18-.46-.02-.02-.19,.56-1.21,.72-1.29,.13-.06,.15-.01,.12,.27-.02,.19-.06,.45-.08,.59-.04,.21-.03,.23,.04,.09,.08-.14,.12-.15,.28-.02,.34,.27,.33,.4-.05,.57Zm1.34-1.72c-.03,.07-.1,.25-.15,.39-.11,.3-.23,.34-.36,.1-.08-.14-.07-.18,.05-.23,.08-.03,.2-.14,.25-.26,.12-.23,.31-.23,.2,0Zm1.69-3.51c.03-.06,.09-.1,.14-.08s.05,.09,.02,.15-.09,.1-.14,.08-.05-.09-.02-.15Zm-.34-2.58c.11-.22,.2-.19,.34,.11l.11,.22h-.22c-.27,.02-.35-.1-.23-.33Zm-.43-1.66c-.01-.31,.07-.69,.15-.65,.04,.02,.04,.22,.02,.45-.03,.23-.05,.57-.04,.76,0,.19-.01,.39-.05,.44-.08,.15-.22-.51-.14-.67,.04-.07,.07-.23,.06-.33Zm-.29,.26c-.02,.09-.05,.16-.07,.16s-.03-.1-.04-.2c0-.1,.03-.17,.07-.16s.06,.11,.04,.2Zm-.51,.39c-.03,1.09-.04,1.21-.11,1.18-.08-.04-.12-.79-.07-1.4,.05-.64,.19-.45,.17,.22Zm.83-3.1c.12,.17,.22,.41,.22,.54,.01,.67,0,.75-.16,.85-.09,.05-.18,.18-.21,.29-.05,.18-.05,.18-.13-.12-.05-.18-.07-.36-.04-.42,.03-.05,0-.1-.04-.09-.15,.01-.18-.29-.03-.43,.09-.09,.12-.26,.08-.52-.08-.58-.04-.59,.32-.1Zm-1.53,1.55c.12-.08,.14,.13,.03,.45-.06,.17-.1,.35-.09,.4,0,.05-.03,.07-.07,.05-.09-.04,.02-.83,.13-.9Zm.8-1.08c.09,.33-.02,.42-.14,.12-.11-.27-.1-.42,.02-.36,.03,.02,.09,.13,.12,.24Zm.06-4.46c.09,.13,.15,.29,.11,.34s-.02,.14,.03,.19c.06,.06,.1,.02,.13-.14,.06-.26,.02-.27,.48,.13,.22,.19,.39,.43,.44,.6,.04,.15,.09,.24,.12,.2,.07-.12,.61,.14,.73,.35,.06,.1,.19,.23,.29,.27,.11,.05,.16,.13,.12,.2-.03,.06-.11,.09-.18,.06-.16-.08-.23,.1-.16,.41,.03,.15,.02,.3-.03,.35-.05,.05-.02,.28,.07,.52,.14,.37,.18,.42,.28,.34,.06-.06,.13-.18,.15-.27,.02-.09,.07-.15,.11-.13s.07,0,.07-.06c0-.05-.05-.1-.11-.09-.05,0-.08-.03-.05-.07s-.03-.11-.11-.15c-.21-.1-.21-.29,0-.33,.16-.03,.17-.05,.13-.25-.05-.32,.08-.32,.21,0,.07,.18,.12,.23,.14,.15,.03-.12,.07-.11,.31,.04,.08,.05,.16,.97,.09,1.11-.02,.03-.1,.02-.19-.02-.15-.07-.16-.06-.11,.33,.08,.73,.09,1.08,.01,1.1-.04,.01-.12-.14-.17-.35l-.1-.37v.52c.01,.28,.03,.67,.06,.86,.02,.19,0,.4-.03,.48-.08,.15,.11,.27,.24,.16,.05-.05,.07-.03,.03,.05-.05,.1,0,.15,.24,.22,.16,.05,.28,.11,.27,.14-.05,.1-.36,.16-.49,.1-.11-.05-.15,0-.22,.23-.04,.16-.1,.28-.12,.27-.12-.06-.29-.76-.3-1.26-.01-.71-.13-1.63-.2-1.51-.03,.05-.12,.06-.21,.01-.12-.06-.17-.04-.18,.06-.02,.19-.28,.48-.34,.38-.03-.04-.04,.14-.03,.4,.02,.39,.05,.46,.14,.35,.12-.13,.12-.13,.21,.11l.1,.24,.1-.19c.15-.3,.26-.15,.23,.31-.02,.24-.02,.51-.02,.61,.02,.24-.09,.26-.27,.05-.13-.15-.16-.16-.26-.02-.09,.12-.11,.07-.11-.29,0-.68-.15-.78-.19-.13-.03,.44-.08,.51-.27,.38-.12-.08-.15-.2-.11-.45,.07-.42,.07-.7,0-1.15-.03-.18,0-.42,.04-.52,.06-.11,.03-.36-.07-.64-.09-.25-.18-.57-.19-.7-.02-.14-.09-.24-.17-.25-.22-.02-.38-.37-.39-.85-.02-1.09-.06-1.63-.12-1.66-.09-.04-.13,.07-.08,.29,.06,.29-.03,.4-.24,.3-.13-.06-.18-.17-.17-.36,0-.15,0-.28-.03-.29-.06-.03-.08-.55-.03-.83,.04-.23,.1-.21,.33,.11Zm4.81,4.94s.08,.02,.13,.13c.05,.12,.07,.24,.05,.28s-.08-.02-.13-.13c-.05-.11-.07-.24-.05-.28Zm-.38,2.02c.11,.27,.09,.38-.08,.3-.06-.03-.1-.09-.08-.13s-.01-.1-.08-.13-.14-.01-.17,.04c-.09,.17-.09-.19,0-.37,.1-.2,.25-.09,.41,.29Zm.71-3.63c.05-.12,.26,.06,.36,.31,.12,.28,.09,.67-.05,.61-.09-.04-.36-.82-.32-.92Zm-.95,.83c.03-.48,.22-.33,.3,.25,.03,.26,.04,.51,.01,.56-.07,.13-.29,.02-.28-.14,0-.07-.03-.17-.08-.22-.07-.07-.08-.03-.05,.18,.03,.15,.05,.41,.05,.58,0,.3,0,.3-.15,.23-.18-.08-.37-1.19-.24-1.43,.08-.17,.21-.13,.2,.06,0,.07,.04,.16,.11,.19,.11,.05,.12,.02,.14-.26Zm-.76,.81s.07,.07,.05,.11-.05,.07-.07,.06-.04-.06-.04-.11c0-.05,.03-.08,.07-.06Zm1.38-1.33c-.02-.07,0-.25,.03-.38l.06-.25,.13,.33c.07,.19,.11,.38,.08,.43-.06,.13-.26,.04-.3-.13Zm-1.44,1.19c-.07,.02-.17-.33-.12-.43,.05-.11,.15,0,.17,.2,.01,.11,0,.22-.05,.23Zm-.1-3.03c.05,.27,.07,.52,.05,.55-.05,.1-.32-.18-.43-.43-.07-.17-.11-.2-.18-.14-.06,.06-.12,.02-.24-.17-.09-.14-.2-.26-.25-.28-.06-.01-.13-.15-.16-.3-.03-.15-.08-.25-.1-.21s-.01,.13,.01,.2c.07,.21-.05,.19-.28-.03-.23-.23-.33-.76-.35-1.84,0-.19-.06-.45-.14-.59-.13-.23-.12-.26,.09-.42l.22-.18,.11,.27c.06,.15,.17,.29,.23,.32,.29,.11,.46,.23,.42,.31-.03,.05-.13,.03-.26-.06-.2-.13-.22-.13-.26,.07-.03,.12-.01,.43,.03,.7,.04,.26,.07,.5,.06,.52s.02,.16,.06,.31l.09,.27,.1-.24c.06-.13,.09-.39,.07-.58-.03-.42-.03-.43,.16-.34,.22,.1,.22,.69,0,.82-.22,.13-.17,.32,.11,.5,.2,.12,.3,.12,.58,0l.33-.14v.22c.01,.12-.03,.25-.07,.3-.05,.05-.05,.3,0,.57Zm-1.19-4.15s.15,.08,.26,.12c.19,.07,.57,.45,.53,.53-.08,.16-.31,.09-.51-.14-.12-.14-.28-.27-.36-.29-.08-.02-.2-.1-.26-.19-.1-.13-.12-.13-.15,.03-.03,.16-.06,.16-.2,.04-.09-.07-.26-.18-.37-.23-.25-.12-.46-.52-.32-.6,.13-.08,.86,.26,.88,.4,0,.06,.11,.14,.23,.19,.12,.05,.25,.11,.29,.14Zm-.76-.69c-.73-.4-.99-.68-.7-.78,.09-.03,.32,.11,.92,.54,.68,.49,.54,.65-.22,.24Zm-.92,2.38c-.04-.42-.03-.44,.21-.34,.13,.06,.23,.23,.29,.51,.07,.28,.15,.43,.25,.44,.1,.01,.15,.1,.14,.26,0,.13-.01,.24-.02,.26,0,.01-.15-.04-.32-.11-.2-.09-.35-.21-.43-.37-.07-.13-.16-.26-.2-.28s-.09-.09-.09-.15c0-.08,.02-.08,.1,0,.1,.1,.11,.08,.08-.21Zm.07-.78c-.21-.09-.36-.2-.34-.24,.05-.09,.42,.08,.59,.28,.09,.1,.03,.1-.25-.03Zm1.65-.34s.08,.08,.08,.13c0,.05-.05,.07-.11,.04s-.1-.09-.08-.13,.07-.06,.11-.04Zm.74,.63c.02,.16,0,.18-.12,.12-.21-.1-.41-.48-.26-.49,.18-.02,.35,.15,.38,.37Zm-3.18-.73c.22-.07,.32,.02,.36,.31,.02,.15,.07,.32,.11,.38,.04,.06,.05,.16,.02,.22s-.02,.12,.02,.14,.04,.11,0,.19c-.06,.12-.13,.13-.39,0-.23-.11-.3-.18-.26-.26,.03-.06,.11-.09,.18-.06s.13,.03,.15,0c.06-.11-.05-.51-.15-.55-.17-.08-.2-.32-.04-.37Zm.19-.92c.05,.06,.14,.08,.18,.05,.13-.08,.42,.09,.55,.31,.06,.11,.12,.33,.12,.49v.29s-.26-.2-.26-.2c-.15-.11-.4-.29-.56-.39-.25-.17-.28-.22-.21-.42,.07-.18,.11-.21,.18-.13Zm.06-.57c.1-.2,.44-.04,.55,.26,.08,.23,.05,.4-.06,.35-.03-.02-.17-.12-.31-.24-.18-.15-.23-.26-.18-.36Zm-.6-1.24c.18-.17,.85,.14,.86,.4,0,.08,.08,.18,.18,.22,.09,.05,.12,.08,.06,.08-.06,0-.12,.05-.12,.12-.02,.19-.27,.04-.49-.28-.1-.15-.18-.23-.17-.18,0,.05-.04,.1-.1,.11-.13,.01-.31-.37-.21-.47Zm1.67-.16c0,.1-.07,.11-.22,.04-.25-.12-.19-.28,.11-.29,.29,0,.43,.05,.39,.15-.02,.04-.09,.05-.15,.02-.07-.03-.12,0-.13,.08Zm-.03-.53s-.04-.06-.05-.11c0-.05,.03-.08,.07-.06s.07,.07,.04,.11-.05,.07-.07,.06Zm-.19,.03c-.1,.09-.46,0-.41-.11,.04-.08,.2-.09,.38-.02,.06,.02,.07,.08,.03,.12Zm-1.07,0c.3,.09,.37,.14,.35,.25,0,.05-.15,.03-.33-.05-.36-.15-.38-.31-.02-.21Zm.49-.58c-.07-.03-.11-.12-.11-.19,0-.07,.04-.12,.08-.1s.08,.1,.11,.19c.03,.13,.02,.15-.08,.1Zm-.55-.59s-.06,.04-.12,.04c-.06,0-.08-.03-.06-.07s.08-.06,.12-.04,.07,.05,.06,.07Zm-.09,.94c-.04,.08-.68-.01-.72-.11-.01-.03,.07-.08,.18-.1,.23-.04,.59,.1,.53,.21Zm2.38-.32c-.17,.06-.2,.04-.33-.16-.13-.2-.14-.21-.15-.08-.02,.17-.17,.12-.42-.14-.29-.3-.58-1.25-.45-1.51,.06-.12,.21-.02,.3,.2,.04,.11,.06,.23,.03,.28-.08,.16,.06,.33,.59,.72,.6,.44,.69,.6,.42,.69Zm.53-.04c-.03-.1,0-.15,.04-.12,.05,.02,.09,.09,.09,.14,.02,.17-.09,.15-.14-.02Zm-.18,2.41c.14,.22-.13,.17-.53-.08-.38-.24-.74-.41-1.13-.53-.1-.03-.15-.1-.13-.19,.03-.12,.13-.1,.88,.27,.46,.23,.87,.46,.91,.52Zm1.37,.26c-.19,.24-.28,.19-.69-.4-.22-.33-.31-.54-.27-.64,.04-.08,.11-.12,.15-.1s.06,.07,.04,.1c-.05,.1,.51,.65,.66,.66,.21,.02,.25,.18,.1,.38Zm-.36,.27s.06,.07,.04,.11-.07,.06-.12,.04-.06-.07-.04-.11,.07-.06,.12-.04Zm-.31,.76c-.09-.14-.19-.2-.35-.22-.25-.02-.61-.34-.54-.48,.04-.07,.21,.03,.58,.35,.15,.13,.16,.12,.15-.07-.01-.33,.2-.16,.31,.23,.1,.38,.02,.46-.15,.17Zm.14,.75c-.09-.25-.06-.42,.06-.36,.04,.02,.1,.13,.13,.24,.09,.31-.08,.43-.19,.12Zm-.1,1.39c.04,.28,.05,.52,.02,.53-.16,.05-.29-.22-.33-.66-.02-.27-.06-.55-.09-.63-.04-.12-.02-.14,.11-.11,.2,.05,.33,.17,.27,.28-.02,.05-.01,.32,.03,.6Zm.6-.95c-.06-.06-.09-.14-.07-.17,.05-.1,.09-.06,.13,.12,.03,.13,.02,.14-.06,.05Zm.34,.51c-.12,.12-.3,.06-.23-.07,.03-.06,.12-.09,.18-.06s.09,.09,.05,.13Zm-.23,1.36c.06,.24,.1,.47,.08,.51s0,.26,.02,.49c.09,.6,.09,.66,0,.62-.04-.02-.12-.4-.17-.85-.11-.9-.19-1.15-.34-1.06-.06,.04-.13-.09-.18-.33-.09-.43,.15-1.09,.36-1,.06,.03,.06,.09,0,.14-.06,.05-.06,.09,0,.09,.06,0,.08,.03,.06,.07s0,.1,.07,.13,.08,.2,.05,.39c-.03,.19,0,.54,.06,.78Zm1.25-1.95c-.06,0-.1-.08-.08-.17,.01-.09,.02-.23,.02-.32,0-.23,.1-.16,.22,.13,.1,.25,.04,.39-.15,.36Zm.52,.1c-.05,.08-.15,.02-.14-.1,0-.06,.05-.07,.09-.03,.04,.04,.06,.1,.05,.13Zm-.78,2.08c-.1,.2-.5,.3-.65,.16-.18-.17-.31-.79-.19-.94,.08-.1,.11-.07,.24,.21,.2,.43,.35,.38,.17-.06-.08-.19-.12-.37-.1-.42,.09-.18,.35,.09,.47,.49,.07,.24,.1,.48,.07,.55Zm-.11,2.58s-.12-.15-.21-.27c-.14-.18-.19-.2-.37-.15-.19,.05-.21,.04-.29-.19-.09-.27,.02-.39,.28-.32,.14,.04,.16,.02,.11-.12-.1-.3-.08-.59,.03-.82s.26-.25,.24-.03c0,.07-.06,.17-.11,.22-.13,.12-.04,.8,.14,1.04,.13,.18,.29,.78,.17,.63Zm1-1c-.02-.13-.09-.23-.16-.24-.12-.01-.23-.21-.18-.32,.02-.03,.07-.04,.11-.02s.06,.07,.04,.11,.05,.1,.18,.12c.18,.03,.22,.09,.21,.28,0,.31-.16,.36-.2,.06Zm.04,.52l.12,.24c.07,.13,.12,.27,.11,.31-.03,.15-.1,.05-.17-.24l-.07-.31Zm-.01,1.16c.07,.03,.11,.09,.08,.13s-.07,.06-.11,.04-.08-.08-.08-.13c0-.05,.05-.07,.11-.04Zm.79-1.9c-.02-.13-.02-.26,0-.29,.04-.07,.27,.4,.26,.52-.01,.21-.22,.02-.25-.23Zm-.85,2.94c-.06,.02-.35-1.08-.32-1.16,.04-.09,.13,.02,.28,.38,.15,.34,.17,.73,.03,.78Zm.61-1.13c-.06,.05-.06,.02-.02-.07,.04-.08,.08-.12,.09-.08,.01,.04-.02,.1-.07,.15Zm-2.5,5.32c.09,.04,.14,.13,.11,.18-.11,.21-.27,.3-.43,.23-.14-.06-.17-.04-.23,.18-.07,.25-.07,.25-.35,.08-.39-.24-.53-.45-.49-.76,.02-.18-.02-.29-.13-.34-.09-.04-.14-.12-.1-.19s-.01-.14-.09-.18-.16-.17-.17-.3c0-.12-.02-.36-.03-.53-.02-.26,0-.29,.1-.24,.07,.03,.15,0,.18-.06,.07-.14,.21-.08,.51,.25,.22,.24,.25,.25,.37,.17,.09-.06,.18-.05,.27,.04,.11,.1,.14,.1,.17-.04,.04-.18,.26-.37,.38-.31,.04,.02,0,.14-.07,.27-.11,.19-.11,.25,0,.33,.2,.13,.19,.74-.01,.97-.13,.15-.13,.19,0,.25Zm2.86-5.1h0c-.12,.04-.13-.11,0-.18,.09-.05,.11-.05,.09,.04,0,.06-.05,.12-.09,.13Zm.26,1.97c-.13,.12-.55-.09-.62-.31-.27-.76-.15-1.41,.25-1.22,.06,.03,.06,.13,.01,.23-.12,.23,.03,.62,.27,.73,.2,.09,.25,.43,.1,.56Zm-1.72,2.41c.07,.23,.07,.23-.06,.06-.07-.09-.12-.2-.09-.24,.05-.11,.08-.07,.16,.18Zm1.5,.18c-.06,.12-.1,.07-.2-.27-.1-.36-.09-.48,.07-.79,.25-.5,.35-.37,.27,.34-.03,.31-.1,.64-.14,.72Zm-.37,2.37c.14,.3,.15,.39,.02,.53-.21,.24-.28,.17-.27-.26,.02-.49-.19-.62-.22-.14-.02,.4-.13,.48-.39,.28-.14-.1-.24-.12-.33-.06-.11,.07-.13,.04-.16-.18-.02-.18-.09-.28-.2-.3-.37-.07-.47-.72-.11-.73,.18,0,.19-.02,.18-.36,0-.24-.1-.46-.28-.69-.18-.22-.24-.38-.19-.47,.12-.23,.24-.19,.5,.18l.24,.34,.46-.38,.05,.25c.03,.14,.11,.29,.19,.33,.08,.04,.26,.16,.4,.27,.23,.17,.24,.22,.13,.35-.07,.08-.11,.19-.07,.24,.03,.05,.02,.17-.03,.27-.06,.11-.03,.31,.08,.54Zm.72-.68c-.1,.03-.1-.1,.01-.41l.11-.31-.03,.35c-.02,.19-.06,.36-.09,.37Zm-6.3,13.23c-.05,.09-.3,.16-.42,.1-.08-.04-.07-.08,.06-.16,.16-.11,.42-.07,.36,.06Zm5.45-10.31c-.06,0-.12-.01-.13-.04-.03-.09,.18-1.01,.28-1.2,.13-.26,.26-.16,.24,.19-.03,.44-.25,1.04-.39,1.05Zm-1.91,4.25c.14-.1,.31-.19,.37-.2,.11-.01,.32,.05,.3,.1,0,.01-.15,.12-.32,.24-.43,.31-.59,.66-.46,1,.11,.31,.08,.45-.08,.37-.17-.08-.23-.42-.15-.89,.07-.4,.1-.46,.33-.63Zm1.18-1.66s-.05-.09-.02-.15,.08-.08,.11-.03c.03,.05,.04,.12,.02,.15s-.07,.05-.11,.03Zm.38-.38c-.34-.16,0-1.29,.45-1.53,.26-.14,.35-.1,.32,.14-.01,.1-.07,.19-.13,.2-.05,0-.2,.17-.33,.36-.19,.28-.21,.38-.14,.54,.11,.25,.03,.4-.17,.31Zm-.19,.82c-.08,0-.14,.11-.2,.34-.05,.18-.11,.34-.14,.35-.11,.04-.09-.27,.02-.5,.11-.22,.37-.38,.41-.26,.01,.03-.03,.07-.1,.07Z"/>
  </g>
</svg>