<?xml version="1.0" encoding="UTF-8"?>
<svg id="Capa_1" data-name="Capa 1" xmlns="http://www.w3.org/2000/svg" viewBox="0 0 142.57 77.03">
  <defs>
    <style>
      .cls-1 {
        fill: #fff;
        stroke: #1d1d1b;
        stroke-miterlimit: 10;
        stroke-width: 2px;
      }

      .cls-2 {
        fill: #1d1d1c;
      }
    </style>
  </defs>
  <rect class="cls-1" x=".27" width="142.3" height="77.03"/>
  <path class="cls-2" d="M55.32,12.97h7.77c5.27,0,7.86,2.92,7.86,8.29v3.31c0,5.37-2.59,8.29-7.86,8.29h-2.49v13.66h-5.27V12.97Zm7.77,15.1c1.68,0,2.59-.77,2.59-3.16v-3.98c0-2.4-.91-3.16-2.59-3.16h-2.49v10.31h2.49Z"/>
  <g>
    <path class="cls-2" d="M71.58,42.59v-5.9c0-3.79,.86-6.28,3.5-7.09v-.1c-2.35-.96-3.45-3.16-3.45-6.61v-2.06c0-5.18,2.35-7.72,7.81-7.72h7.81V46.66h-5.27v-14.38h-1.82c-2.4,0-3.31,1.01-3.31,4.12l-.48,6.14m5.61-15.05v-9.59h-2.4c-1.87,0-2.68,1.05-2.68,3.45v2.59c0,2.68,1.2,3.55,3.16,3.55h1.92Z"/>
    <path class="cls-2" d="M55.32,12.94h5.27v28.76h8.68v4.79h-13.95V12.94Z"/>
    <path class="cls-2" d="M68.93,64.09c-5.18,0-7.86-3.07-7.86-8.44v-8.82h7.62v2.64h-2.64v6.57c0,2.4,1.05,3.26,2.73,3.26s2.73-.86,2.73-3.26v-18.36c0-2.4-1.05-3.31-2.73-3.31s-2.73,.91-2.73,3.31v3.21h-4.99v-2.88c0-5.37,2.68-8.44,7.86-8.44s7.86,3.07,7.86,8.44v17.64c0,5.37-2.68,8.44-7.86,8.44Z"/>
  </g>
</svg>