<?xml version="1.0" encoding="UTF-8"?>
<svg id="Capa_1" data-name="Capa 1" xmlns="http://www.w3.org/2000/svg" viewBox="0 0 142.57 77.03">
  <defs>
    <style>
      .cls-1 {
        fill: #fff;
        stroke: #1d1d1b;
        stroke-miterlimit: 10;
        stroke-width: 2px;
      }

      .cls-2 {
        fill: #1e1e1c;
        fill-rule: evenodd;
      }
    </style>
  </defs>
  <rect class="cls-1" x=".27" width="142.3" height="77.03"/>
  <g>
    <path class="cls-2" d="M50.4,12.48c1.97,1.41,4.87,3.27,5.97,5.08l-1.93,1.9,1.37-.76,1.42-.57c2,1.25,2.56,1.57,3.36,3.53l-1.54,2.13c1.61-.48,1.37-1.07,2.8-.95,1.84-.49,5.56,3.58,6.37,5.24-2.2,1.54-3.68,1.02-6.89-.07-2.18,.09-5.88-5.36-7.81-7.09-.78-.7-.43-.35-.96-.53,.88,2.05,1.74,2.78,3.52,4.4,2.99,2.73,3.35,2.85,2.28,4.04l.22,.3c1.37-.27,.98-.44,2.87-.1,.27,.78,.28,.29,.18,1.36-.05,.52-.23,1.03-.34,1.53l1.33-.1c1.39,.36,2.42,1.68,3.94,2.66,2.01-1.02,2.2,.08,3.14-2.31l-1.68-2.91,3.83-1.79,.48-.84c-1.68,.02-.9,.07-2.51,.7l-8.08-7.28c-2.05-1.7-4.14-2.86-5.14-4.74-3.34-.89-6.2-5.5-9.95-5.02l3.75,2.21Zm12.15,18.24c1.46-1.72,4.01-.36,6.17,.51l-1.59,2.04-4.58-2.55Z"/>
    <path class="cls-2" d="M64.04,36.37l1.95,1.54,4.6,1.76,1.14,1.99c1.29-1.11-.7-.87,1.42-.74,.92,.06,1.9,1.71,1.19,3.32l-1.68-.91-.6,.88,1.13,.98,.52,.5,1.84-.5c2.52,2.07,.73,2.29,4.62,2.44,2.08,.08,4.02,.82,5.84,1.82l1.13,.12-2.45-1.59c-2.49-.42-5.58-1.94-7.77-3.91,.07-1.25,.53-2.77-.69-3.96,1.53-1.3,1.34-2.02,3.25-2.23l3.09,.19-2.53-.87,1.46-.97c-1.05,.21-2.74-.02-4.27-.35-.79,.03-.05,.59-.47-.25l-.35-.89c-.05-.14-.11-.4-.18-.6-1.7,1.67-4.78,1.7-7.26,1.16l-1.66,.11-4.06-1.64c-1.19-.55-.56-.35-1.19-.48,5.17,4.57,6.71,2.25,8.73,4.22,1.87,1.82,1.68,2.3,1.69,2.32l-8.43-3.46Zm6.82,1.07c1.42-.54,2.53-1.14,4.05-.3,.42,2.17,.73,1.26-1.09,2.16-1.81-.53-1.4-.54-2.95-1.86Z"/>
    <path class="cls-2" d="M36.87,41.66c4.23,2.09,10.66,5.49,14.71,5.69-4.03-2.99-12.81-2.64-14.38-7.96,1.58-1.08,1.08-.84,3.04-.36,1.16,.28,2.35,.6,3.47,1l2.33,.68-.2,1.45,.52,1.48,.53-1.48,.11-1.53,4.98,1.45c.25,.43,.05,.63,.11,1.34l.38,1.6,.85-2.6,.95,.43c1.85-.68,1.86-.36,3.57,.73l1.71-.17,.51,.98,.46,1.67,.2,2.45,.98-3.53v-.99s1.77,.31,1.77,.31c1.82-.55,1.05-.56,2.91-.14,.62-.91,.15,.08-.44-.81-3.99-.8-9.93,.3-10.85-5.33,.16-1.89,.05-1.17,1.22-2.79l7.41,1.52,.32-.39c-4.05-1.29-4.49-.27-7.7-3.59l-.5-.14,1.28,1.61c-2.66,1.82-4.11,3.86-1.02,6.88-2.46,.2-5.47,.12-8.17-1.49-3.39,.96-7.82-3.57-11.47-.72l.4,2.73Z"/>
    <path class="cls-2" d="M77.34,30.11c-1.98-1.27-.9-.15-.78-2.36,3.78,4.07,2.63,1.77,6.15,3.69,1.54,.84,3.41,3.16,5.28,4.55l1.38,1.99c1.43,1.3,2.09,3.11,2.93,4.63,.98,1.78,1.05,2.6,.99,4.34l-1.48,2.27c3-.18,.13-.71,3.29-1.76,1.4-.02,5.74,2.08,7.49,2.87l1.63,.33h.56s-1.5-1.09-1.5-1.09l-1.46-1.01c-10.26-5.89-6.46-7.07-13.08-13.27-3.41-3.19-3.65-4.25-8.15-5.94-2.98-1.12-5.87-3.69-8.25-2.73,2.31,.35,3.49,.68,4.24,3.31l.77,.19Z"/>
    <path class="cls-2" d="M93.09,66.84c.24-1.6-.41-1.53-2.05-2.75l-6.37-4.09c-3.33-1.73-.71-1.02-5.04-1.88-5.17-1.02-16.18-4.86-18.05-8.59-2.71,.74-7.32-2.86-10-2.17,3.2,1.5,6.87,2.26,10.24,4.14,3.92,2.18,6.5,3.95,10.78,5.54,4.93,1.83,12.16,2.06,20.5,9.82"/>
    <path class="cls-2" d="M89.49,57.72l-2.41,2.19c2.73,.08,2.69-.57,4.35-1.63l-2.4,3.13,.9-.22,2.52-1.96,1.78-5.21-.05-.02-1.91,1.86,.69-3.03-1.21,.09c-.18,2.11-.4,1.95-1.33,4.07l-.43-1.91-.26,1.59c1.22,1.37,0-1.04,.62,.89l-.85,.16Z"/>
    <path class="cls-2" d="M68.48,46.81c.12,1.86-1.07,.66-.68,2.97l2.65-3.98,1.03-.21,1.7,1.31v-1.72c-2.65-.62-2.74,.21-6.04-1.85,.73,2.46,.06,1.85,.97,2.08l.37,1.41Z"/>
    <path class="cls-2" d="M52.38,20.53c-.91-2.18-2.49-2.62-5.05-5.28-1.74-1.8-1.48-3.41-1.69-5.07-2.42,3.9,3.18,7.78,6.74,10.34"/>
    <path class="cls-2" d="M74.02,53.44c.49-1.51,1.05-.62-.36-2.31l.36,2.31Z"/>
    <path class="cls-2" d="M82.11,36.15c1.37-.12,.84,.39,1.76-.39-1.37-.32-.4-.56-1.76,.39"/>
    <path class="cls-2" d="M83.95,40.01l-2.08-.72c.41,.61,.66,.9,2.08,.72"/>
  </g>
</svg>