<?xml version="1.0" encoding="UTF-8"?>
<svg id="Capa_1" data-name="Capa 1" xmlns="http://www.w3.org/2000/svg" viewBox="0 0 142.57 77.03">
  <defs>
    <style>
      .cls-1 {
        fill: #fff;
        stroke: #1d1d1b;
        stroke-miterlimit: 10;
        stroke-width: 2px;
      }

      .cls-2 {
        fill: #010101;
      }
    </style>
  </defs>
  <rect class="cls-1" x=".27" width="142.3" height="77.03"/>
  <g>
    <g>
      <path class="cls-2" d="M51.59,34.13c-.33,.71-.7,1.16-1.11,1.34-.41,.18-.84,.17-1.28-.05-.44-.22-.88-.61-1.32-1.17-.44-.56-.86-1.24-1.26-2.05-.31-.6-.58-1.25-.83-1.96-.25-.71-.46-1.44-.63-2.21-.26-1.21-.37-2.31-.34-3.3,.03-.99,.18-1.82,.42-2.47,.25-.66,.59-1.12,1.01-1.39,.43-.27,.9-.29,1.43-.06,.47,.2,.92,.59,1.36,1.18,.44,.59,.87,1.34,1.27,2.26,.33,.74,.64,1.56,.92,2.46,.28,.9,.49,1.79,.64,2.69,.15,.89,.21,1.76,.18,2.58-.03,.83-.18,1.54-.47,2.15Zm-3.85-4.65c.33,.67,.65,1.13,.94,1.38,.3,.25,.55,.35,.77,.29,.22-.06,.39-.26,.52-.6,.13-.34,.2-.76,.2-1.26,0-.5-.06-1.06-.2-1.68-.14-.62-.36-1.25-.68-1.89-.33-.66-.64-1.11-.92-1.35-.29-.24-.54-.33-.76-.26-.22,.07-.39,.27-.51,.6-.13,.33-.19,.74-.2,1.24,0,.5,.05,1.05,.19,1.66s.35,1.23,.65,1.85Z"/>
      <path class="cls-2" d="M55.92,18.3c.17,.64,.35,1.26,.55,1.86,.2,.6,.4,1.2,.61,1.81,.15,.45,.32,.97,.51,1.55,.19,.58,.35,1.18,.5,1.79,.15,.61,.25,1.2,.32,1.78,.07,.58,.07,1.09,0,1.53-.05,.31-.14,.55-.25,.72-.12,.17-.25,.27-.41,.31-.15,.04-.32,0-.51-.1-.18-.1-.37-.28-.55-.54-.25-.36-.49-.73-.73-1.11-.24-.39-.49-.76-.73-1.14-.18-.27-.34-.51-.5-.72-.16-.21-.28-.32-.36-.34-.08-.02-.11,.08-.08,.31,.03,.22,.13,.62,.32,1.18,.13,.35,.25,.69,.37,1.02,.12,.33,.22,.69,.3,1.08,.09,.45,.12,.86,.11,1.24-.01,.38-.06,.7-.15,.96-.09,.26-.2,.46-.34,.58-.14,.13-.29,.17-.45,.12-.16-.05-.32-.19-.49-.44-.17-.25-.32-.61-.46-1.09-.15-.5-.28-1.02-.39-1.56-.11-.53-.23-1.08-.34-1.63-.22-1.08-.47-2.09-.76-3.03-.29-.95-.6-1.89-.93-2.84-.13-.36-.28-.79-.45-1.3-.17-.5-.31-1-.41-1.49-.11-.49-.15-.95-.14-1.38,.01-.43,.13-.76,.34-.99,.21-.22,.38-.36,.53-.42,.14-.06,.28-.04,.4,.07,.12,.11,.24,.31,.36,.59,.12,.29,.26,.67,.42,1.15,.14,.4,.29,.85,.47,1.35,.18,.5,.37,.99,.57,1.47,.2,.48,.41,.93,.62,1.35,.22,.42,.43,.75,.64,1,.16,.19,.3,.3,.42,.31,.12,0,.19-.08,.23-.27,.03-.19,0-.5-.08-.92-.08-.42-.24-.97-.48-1.65-.13-.37-.25-.73-.38-1.09-.13-.36-.25-.73-.37-1.09-.12-.37-.23-.74-.33-1.11-.1-.38-.19-.76-.26-1.14-.1-.54-.13-1.02-.08-1.42,.05-.4,.14-.71,.28-.92,.14-.21,.31-.32,.51-.31,.2,0,.4,.13,.6,.39,.15,.19,.3,.47,.44,.86,.14,.39,.27,.8,.39,1.24,.12,.44,.23,.88,.33,1.32,.1,.44,.19,.81,.26,1.12Z"/>
      <path class="cls-2" d="M57.65,14.56c-.1-.57-.13-1.08-.08-1.51,.04-.43,.12-.78,.25-1.05,.13-.26,.29-.44,.48-.52,.19-.08,.39-.06,.59,.06,.2,.12,.4,.35,.59,.69,.19,.34,.35,.8,.47,1.38,.08,.38,.15,.77,.2,1.17,.05,.4,.08,.77,.09,1.11,.03,.67,.05,1.34,.07,2.01,.02,.67,.06,1.34,.11,2.02,.02,.24,.05,.54,.09,.9,.04,.36,.08,.73,.14,1.13,.06,.4,.13,.78,.2,1.15,.08,.37,.17,.69,.28,.95,.11,.26,.23,.45,.36,.55,.13,.11,.29,.09,.46-.05,.18-.16,.35-.34,.51-.56,.15-.21,.31-.41,.46-.59,.19-.2,.38-.21,.58-.02,.2,.18,.37,.46,.51,.83,.15,.37,.25,.79,.32,1.24,.07,.46,.07,.85,0,1.2-.05,.26-.15,.45-.29,.59-.14,.14-.29,.22-.46,.26-.17,.04-.35,.05-.53,.02-.18-.02-.33-.06-.47-.12-.18-.1-.34-.14-.5-.1-.16,.04-.3,.11-.44,.24-.12,.06-.26,.14-.41,.23-.15,.09-.3,.13-.44,.13-.15,0-.29-.08-.42-.23-.13-.15-.25-.44-.34-.87-.07-.29-.13-.6-.18-.92-.07-.37-.16-.88-.28-1.53-.12-.64-.25-1.31-.38-2-.28-1.35-.55-2.66-.8-3.94-.26-1.27-.5-2.56-.72-3.85Z"/>
      <path class="cls-2" d="M66.84,14.69c-.02-.44-.04-.87-.06-1.3-.02-.43-.01-.82,.02-1.18,.03-.36,.09-.67,.18-.92,.09-.25,.23-.42,.42-.5,.21-.09,.41-.08,.6,.04,.19,.12,.37,.32,.53,.61,.16,.31,.28,.65,.36,1.02,.07,.37,.12,.75,.12,1.12,0,.37,0,.74-.04,1.1-.04,.36-.09,.67-.14,.93-.11,.5-.26,.99-.47,1.47-.2,.48-.4,.97-.59,1.48-.19,.51-.35,1.04-.46,1.59-.12,.55-.15,1.15-.09,1.79,.03,.32,.07,.62,.12,.9,.05,.28,.1,.55,.15,.81,.05,.27,.1,.53,.14,.78,.04,.26,.07,.52,.07,.8,.02,.45-.02,.8-.11,1.07-.09,.26-.2,.45-.34,.54-.14,.1-.29,.12-.46,.08-.17-.05-.33-.15-.49-.32-.16-.17-.29-.38-.41-.65-.12-.26-.19-.57-.23-.92-.06-.56-.1-1.13-.1-1.7,0-.57,0-1.1,.03-1.6,0-.71-.1-1.38-.29-2.03-.18-.64-.41-1.24-.68-1.79-.19-.39-.38-.77-.59-1.13-.2-.37-.4-.74-.59-1.13-.19-.39-.37-.79-.53-1.2-.17-.41-.31-.85-.42-1.32-.14-.52-.21-.99-.21-1.4,0-.41,.06-.75,.17-1.03,.11-.27,.26-.47,.45-.59,.19-.12,.4-.15,.62-.1,.27,.08,.48,.3,.64,.65,.16,.36,.29,.77,.38,1.23,.1,.52,.18,1,.22,1.44,.05,.44,.1,.88,.17,1.31,.11,.66,.23,1.19,.37,1.59,.14,.4,.29,.69,.43,.87,.15,.18,.3,.25,.44,.22,.14-.03,.27-.15,.37-.37,.1-.22,.18-.52,.24-.91,.05-.39,.07-.85,.05-1.38Z"/>
      <path class="cls-2" d="M79.32,21.78c-.03,.62-.04,1.25-.02,1.89,.02,.63,.03,1.28,.04,1.93,.01,.48,.02,1.03,.03,1.64,0,.61-.01,1.2-.05,1.77-.04,.57-.12,1.08-.22,1.53-.11,.45-.26,.77-.46,.94-.14,.13-.3,.16-.46,.12-.16-.05-.33-.16-.49-.34s-.31-.43-.46-.73c-.15-.31-.27-.66-.37-1.06-.13-.55-.26-1.1-.38-1.66-.12-.56-.24-1.12-.37-1.68-.09-.41-.18-.78-.27-1.11-.09-.34-.17-.56-.24-.68-.07-.12-.13-.09-.17,.08-.04,.17-.05,.56-.04,1.16,.02,.39,.04,.76,.05,1.12,.02,.36,0,.72-.03,1.07-.05,.39-.14,.7-.27,.92-.13,.22-.27,.36-.43,.4-.16,.05-.33,.02-.5-.08-.17-.11-.33-.28-.47-.52s-.25-.54-.34-.92c-.09-.37-.13-.8-.12-1.28,0-.51,.04-1,.09-1.49,.05-.48,.1-.97,.16-1.46,.11-.96,.17-1.92,.18-2.88,0-.97-.01-1.96-.05-2.99-.02-.4-.04-.87-.05-1.4-.01-.54,0-1.03,.05-1.47,.05-.45,.14-.79,.28-1.04,.14-.25,.35-.3,.63-.16,.27,.14,.48,.28,.64,.43,.16,.15,.28,.35,.37,.58,.09,.23,.14,.51,.17,.85,.03,.33,.05,.76,.06,1.26,.01,.43,.03,.92,.05,1.46,.02,.54,.06,1.1,.11,1.66,.05,.57,.11,1.12,.2,1.66,.08,.54,.19,1.03,.32,1.46,.1,.33,.2,.58,.32,.75,.11,.16,.21,.21,.3,.13,.09-.08,.15-.3,.2-.67,.04-.37,.05-.92,.03-1.66-.01-.39-.03-.79-.04-1.19-.02-.4-.03-.78-.03-1.17,0-.38,0-.76,.01-1.13,.01-.37,.04-.72,.09-1.05,.07-.47,.18-.8,.35-.99,.17-.19,.35-.26,.55-.2,.2,.05,.39,.21,.59,.48,.19,.27,.35,.61,.47,1.04,.09,.32,.15,.69,.17,1.11,.02,.42,.02,.85,0,1.28-.02,.43-.04,.85-.08,1.25-.04,.4-.06,.75-.08,1.05Z"/>
      <path class="cls-2" d="M83.57,26.16c.18,.02,.34,.11,.46,.27,.13,.16,.22,.37,.29,.62,.07,.25,.1,.52,.12,.81,.01,.29,0,.57-.05,.84-.08,.46-.21,.72-.39,.78-.18,.06-.38-.08-.61-.42-.27-.4-.47-.62-.6-.67-.14-.05-.23,.02-.29,.21-.06,.19-.09,.46-.1,.82,0,.36,0,.73-.01,1.13,0,.33,.03,.57,.12,.71,.08,.14,.18,.24,.3,.29,.12,.05,.23,.07,.36,.06,.12-.01,.22-.02,.3-.01,.16,0,.32,.03,.48,.09,.16,.06,.31,.17,.44,.32,.13,.15,.24,.36,.33,.62,.09,.26,.14,.58,.14,.97,.01,.78-.09,1.44-.32,1.97-.09,.19-.19,.32-.3,.38-.11,.06-.24,.07-.38,.03-.25-.06-.49-.2-.72-.43-.23-.22-.47-.43-.71-.63-.18-.16-.37-.32-.57-.49-.2-.17-.39-.29-.58-.36-.32-.18-.56-.46-.73-.83-.16-.37-.25-.88-.26-1.53,0-.45,.03-.88,.07-1.28,.04-.41,.1-.81,.16-1.2,.1-.71,.18-1.44,.22-2.19,.04-.75,.06-1.51,.07-2.28,.03-1.46-.07-2.97-.31-4.51-.05-.31-.07-.61-.06-.9,0-.3,.04-.55,.1-.75,.06-.2,.14-.35,.25-.43,.11-.08,.24-.07,.39,.04,.42,.38,.83,.65,1.23,.81,.4,.16,.81,.27,1.22,.32,.22-.08,.43-.04,.63,.13,.19,.17,.36,.4,.49,.69,.14,.29,.24,.63,.33,1.01,.08,.38,.13,.75,.14,1.1,0,.36-.02,.68-.09,.97-.07,.29-.19,.48-.36,.58-.11,.07-.23,.09-.34,.06-.12-.03-.23-.1-.36-.19-.12-.09-.24-.21-.35-.34-.12-.13-.23-.26-.33-.39-.31-.37-.53-.51-.66-.43-.13,.08-.21,.44-.24,1.07-.02,.53-.02,.97,0,1.31,.02,.35,.07,.62,.15,.82,.08,.2,.2,.33,.36,.39,.15,.07,.36,.08,.61,.05Z"/>
      <path class="cls-2" d="M89.37,29.93c.18,0,.34,.09,.46,.25,.13,.16,.23,.36,.3,.61,.07,.25,.11,.52,.13,.81,.02,.29,0,.58-.03,.85-.08,.46-.2,.73-.38,.81s-.38-.06-.61-.39c-.27-.39-.47-.6-.61-.64-.13-.04-.23,.04-.29,.23-.06,.19-.09,.47-.09,.83,0,.36,0,.74,0,1.14,0,.33,.04,.57,.12,.71,.08,.14,.18,.23,.3,.28,.12,.05,.23,.06,.35,.04,.12-.02,.22-.03,.3-.03,.16-.01,.31,0,.47,.06,.16,.05,.31,.15,.44,.3,.13,.15,.24,.35,.34,.6,.09,.25,.14,.58,.15,.97,.02,.79-.08,1.45-.29,2-.09,.2-.19,.33-.3,.4-.11,.07-.23,.09-.37,.06-.24-.05-.48-.18-.72-.39-.23-.21-.47-.41-.71-.6-.18-.15-.38-.31-.57-.46-.2-.16-.39-.27-.58-.33-.32-.17-.56-.43-.73-.79-.17-.36-.26-.87-.28-1.53,0-.45,.02-.88,.05-1.29,.04-.41,.09-.82,.14-1.22,.09-.72,.16-1.46,.19-2.22,.03-.76,.05-1.52,.04-2.3,0-1.47-.11-2.98-.36-4.53-.05-.3-.07-.61-.07-.91,0-.3,.03-.55,.09-.76,.05-.21,.13-.36,.24-.45,.11-.09,.23-.08,.39,.02,.42,.36,.83,.61,1.23,.75,.4,.14,.8,.23,1.21,.26,.22-.09,.43-.06,.62,.09,.19,.16,.36,.38,.5,.67s.25,.62,.34,1c.08,.38,.13,.75,.15,1.1,.01,.36-.01,.68-.08,.98-.07,.29-.18,.5-.35,.6-.11,.08-.23,.11-.34,.08-.12-.03-.23-.08-.35-.17-.12-.09-.24-.19-.36-.32-.12-.12-.23-.25-.34-.37-.32-.35-.54-.49-.66-.4-.13,.09-.2,.45-.22,1.09-.01,.53,0,.97,.01,1.32,.02,.35,.08,.62,.16,.81,.08,.19,.2,.32,.36,.38,.15,.06,.36,.06,.61,.02Z"/>
      <path class="cls-2" d="M96.75,28.72c.3,.8,.55,1.62,.73,2.46s.32,1.71,.41,2.6c.08,.85,.12,1.68,.14,2.49,.01,.81-.04,1.59-.16,2.33-.08,.49-.18,.95-.29,1.38-.11,.43-.24,.81-.4,1.13-.15,.33-.33,.59-.53,.8-.2,.21-.43,.34-.68,.38-.37,.04-.74,0-1.11-.11-.37-.12-.75-.35-1.15-.71-.4-.35-.74-.88-.99-1.61-.07-.19-.11-.4-.13-.63-.02-.23-.03-.49-.02-.75,0-.27,.02-.54,.05-.82,.03-.28,.06-.56,.1-.84,.1-.81,.16-1.57,.18-2.27,.02-.7,0-1.39-.06-2.06-.06-.67-.15-1.35-.28-2.04-.13-.69-.28-1.44-.45-2.24-.04-.21-.08-.41-.12-.6-.05-.19-.08-.38-.1-.59-.03-.32-.04-.62,0-.88,.03-.26,.09-.47,.17-.63,.08-.16,.19-.27,.33-.33,.13-.06,.29-.06,.46,0,.34,.12,.68,.25,1.03,.38,.35,.13,.7,.33,1.04,.58,.34,.25,.67,.58,.98,.99,.31,.41,.6,.94,.86,1.6Zm-.28,7.71c.04-.38,.05-.78,.04-1.22s-.04-.86-.1-1.3c-.06-.44-.13-.87-.22-1.29-.09-.42-.2-.82-.31-1.2-.23-.73-.52-1.32-.87-1.76-.14-.18-.26-.28-.36-.29-.1,0-.17,.05-.22,.17-.05,.12-.08,.28-.08,.49s.02,.44,.07,.7c.08,.49,.13,.94,.17,1.38,.04,.43,.07,.85,.08,1.26,.02,.41,.03,.82,.03,1.23,0,.41,0,.85,.02,1.3,0,.55,.04,1,.12,1.33,.08,.33,.18,.58,.29,.73,.12,.15,.25,.22,.39,.21,.14,0,.28-.08,.41-.22,.13-.14,.24-.34,.34-.6,.1-.26,.16-.57,.2-.91Z"/>
    </g>
    <g>
      <path class="cls-2" d="M49.81,42.9c-.08,.29-.16,.55-.23,.79-.08,.24-.17,.46-.27,.66-.1,.19-.21,.3-.35,.34-.13,.04-.27,.03-.41-.03-.14-.06-.26-.17-.38-.32-.12-.15-.21-.33-.28-.54-.09-.26-.13-.52-.11-.76,.02-.24,.07-.46,.15-.67,.08-.2,.18-.39,.29-.55,.11-.16,.21-.3,.31-.41,.14-.2,.26-.42,.37-.65,.11-.23,.21-.47,.3-.71,.09-.25,.17-.5,.25-.75,.08-.26,.16-.52,.24-.78,.07-.22,.17-.39,.29-.5s.25-.17,.39-.17c.14,0,.28,.05,.41,.16s.26,.27,.37,.49c.07,.14,.13,.3,.17,.48,.04,.18,.07,.37,.07,.55,0,.19,0,.37-.04,.54-.04,.17-.1,.32-.19,.42-.09,.1-.17,.21-.25,.33-.08,.12-.16,.23-.25,.35,.16,.38,.37,.78,.61,1.21,.24,.43,.5,.85,.78,1.25,.27,.4,.55,.78,.83,1.12,.28,.34,.53,.61,.76,.82,.24,.22,.41,.48,.51,.77,.09,.3,.13,.59,.12,.87-.01,.28-.08,.55-.18,.78-.11,.24-.24,.41-.4,.52-.16,.11-.34,.14-.53,.09-.19-.05-.38-.22-.56-.51-.26-.42-.5-.86-.72-1.33-.22-.47-.43-.93-.64-1.39-.21-.46-.43-.91-.65-1.33-.23-.43-.48-.81-.75-1.14Z"/>
      <path class="cls-2" d="M57.71,44.29c-.35,.31-.71,.46-1.06,.44-.35-.02-.69-.16-1.02-.42-.33-.26-.63-.62-.92-1.08-.28-.46-.54-.98-.76-1.57-.17-.44-.31-.9-.42-1.39-.11-.49-.19-.98-.23-1.47-.06-.78,0-1.46,.15-2.02,.15-.57,.37-1,.65-1.31,.28-.31,.61-.47,.99-.5,.38-.03,.77,.11,1.16,.4,.35,.26,.67,.62,.95,1.1s.53,1.04,.74,1.7c.17,.53,.32,1.1,.43,1.71,.11,.61,.17,1.19,.18,1.76,0,.56-.06,1.08-.18,1.56-.13,.47-.34,.84-.65,1.11Zm-2.51-3.87c.18,.49,.38,.85,.59,1.09,.21,.24,.4,.37,.59,.4,.18,.03,.35-.03,.5-.19,.15-.16,.25-.38,.32-.67,.07-.29,.08-.63,.05-1.04-.03-.4-.14-.84-.31-1.3-.18-.48-.37-.84-.57-1.07-.2-.23-.39-.35-.58-.38-.18-.02-.35,.04-.49,.19-.14,.15-.25,.37-.32,.66-.07,.29-.09,.63-.06,1.02,.03,.39,.13,.82,.29,1.28Z"/>
      <path class="cls-2" d="M65.06,36.05c.09,.48,.15,.93,.17,1.37,.02,.44,0,.84-.06,1.21-.06,.37-.18,.69-.34,.95-.16,.27-.38,.47-.66,.6-.21,.1-.43,.15-.66,.16-.23,0-.47-.03-.71-.1-.24-.08-.48-.2-.71-.37-.23-.17-.45-.39-.65-.65-.2-.26-.37-.57-.53-.93-.15-.35-.27-.76-.36-1.21-.06-.34-.07-.65-.02-.91,.05-.26,.13-.48,.25-.64,.12-.16,.27-.27,.43-.33,.17-.06,.33-.04,.5,.04,.17,.08,.33,.24,.48,.46,.15,.23,.27,.53,.36,.92,.07,.31,.15,.57,.25,.77,.1,.2,.21,.34,.32,.44,.11,.09,.22,.13,.32,.13,.1,0,.18-.06,.25-.17,.06-.1,.1-.25,.11-.43,0-.19-.02-.41-.1-.69-.04-.16-.1-.33-.16-.49-.06-.16-.13-.31-.19-.46-.13-.28-.26-.56-.4-.83-.14-.27-.29-.54-.44-.82-.13-.22-.28-.51-.46-.88-.18-.37-.35-.75-.5-1.14-.15-.4-.27-.78-.36-1.15-.09-.37-.1-.66-.04-.89,.17-.56,.5-.81,.97-.72,.11,.02,.21,.08,.31,.2,.1,.12,.19,.25,.28,.41,.09,.16,.17,.32,.24,.49,.07,.17,.14,.32,.19,.44,.17,.43,.35,.85,.53,1.27,.18,.42,.36,.84,.53,1.27,.17,.43,.33,.86,.47,1.3,.14,.44,.27,.9,.37,1.38Z"/>
      <path class="cls-2" d="M68.42,38.97c-.43-.07-.82-.27-1.15-.6-.34-.33-.62-.74-.87-1.23-.24-.49-.43-1.04-.57-1.65-.14-.61-.23-1.24-.28-1.89-.04-.49-.04-.97,0-1.45,.03-.47,.1-.92,.21-1.34,.17-.65,.41-1.13,.72-1.43,.31-.3,.65-.44,1.01-.43,.36,.02,.73,.18,1.1,.5,.37,.31,.71,.76,1.01,1.34,.26,.51,.46,1.07,.6,1.69,.13,.62,.21,1.27,.22,1.96,.01,.56-.01,1.13-.08,1.7-.07,.57-.18,1.07-.34,1.51-.16,.44-.37,.79-.62,1.04-.26,.25-.57,.34-.95,.28Zm-1.3-5.22c.04,.54,.12,1,.25,1.36,.13,.37,.28,.64,.45,.83,.17,.19,.35,.28,.53,.29,.19,0,.35-.07,.5-.23,.15-.16,.26-.42,.35-.75,.08-.34,.11-.77,.08-1.28-.04-.53-.12-.98-.24-1.33s-.28-.62-.45-.81c-.17-.18-.35-.28-.53-.29-.18,0-.35,.07-.5,.23-.15,.16-.27,.4-.35,.73s-.11,.74-.09,1.24Z"/>
      <path class="cls-2" d="M72.67,37.24c-.05,.33-.09,.66-.14,.98-.05,.32-.1,.65-.16,.99-.08,.46-.21,.79-.37,.98-.17,.19-.34,.27-.51,.25-.17-.02-.33-.13-.47-.32-.14-.2-.23-.45-.27-.76-.02-.14-.03-.29-.01-.44,.01-.15,.03-.3,.06-.45,.03-.15,.06-.29,.1-.43,.04-.14,.08-.27,.12-.39,.16-.54,.31-1.1,.44-1.67,.14-.57,.25-1.15,.35-1.75,.04-.27,.08-.54,.11-.81,.03-.27,.06-.54,.09-.8,.03-.26,.06-.53,.09-.79,.03-.26,.08-.52,.13-.77,.06-.26,.15-.46,.27-.59,.12-.13,.24-.21,.38-.23,.13-.02,.27,.01,.41,.1,.14,.08,.25,.21,.35,.36s.16,.35,.2,.58c.04,.22,.03,.47-.02,.74-.11,.43-.22,.86-.33,1.28-.11,.43-.22,.86-.32,1.29-.1,.43-.19,.87-.28,1.31-.09,.44-.16,.89-.22,1.35Z"/>
      <path class="cls-2" d="M79.09,37.16c-.07,.4-.13,.8-.17,1.2-.04,.41-.08,.82-.12,1.23-.03,.31-.07,.66-.11,1.05-.04,.39-.11,.76-.18,1.13-.08,.36-.18,.69-.3,.97-.12,.29-.27,.48-.44,.59-.12,.08-.25,.1-.37,.06-.13-.04-.24-.11-.36-.23-.11-.12-.21-.28-.31-.48-.09-.2-.16-.43-.21-.69-.06-.35-.12-.71-.17-1.07-.05-.36-.1-.72-.16-1.08-.04-.26-.08-.5-.13-.72-.05-.22-.09-.36-.14-.44-.05-.08-.09-.06-.14,.05-.05,.11-.09,.36-.12,.74-.02,.25-.03,.49-.05,.72-.02,.23-.05,.46-.11,.68-.07,.25-.17,.44-.28,.58-.12,.14-.24,.22-.37,.25-.13,.03-.26,0-.39-.07-.13-.07-.24-.19-.33-.34s-.16-.35-.2-.59c-.04-.24-.04-.51,0-.82,.05-.32,.11-.64,.19-.95,.08-.31,.16-.62,.25-.93,.17-.61,.29-1.22,.37-1.84,.08-.62,.15-1.26,.2-1.91,.02-.25,.04-.55,.07-.9,.03-.34,.08-.66,.16-.94,.07-.28,.17-.5,.3-.66,.13-.16,.3-.18,.51-.09,.2,.09,.36,.19,.47,.29,.11,.1,.19,.23,.24,.38,.05,.15,.07,.33,.07,.55,0,.21-.02,.48-.05,.81-.02,.28-.05,.59-.07,.94-.02,.35-.04,.7-.05,1.06,0,.36,0,.72,.02,1.07,.02,.35,.07,.66,.14,.94,.05,.22,.11,.38,.19,.48,.08,.11,.15,.14,.23,.09,.08-.05,.15-.19,.21-.42,.06-.23,.12-.59,.15-1.06,.02-.25,.04-.5,.06-.76,.02-.25,.04-.5,.07-.75,.03-.24,.06-.48,.1-.72,.04-.24,.09-.46,.16-.67,.09-.3,.21-.51,.36-.62,.15-.12,.3-.15,.45-.12,.15,.04,.29,.14,.43,.32,.13,.18,.23,.4,.29,.68,.05,.2,.06,.44,.04,.71-.02,.27-.05,.54-.1,.82-.05,.28-.1,.54-.16,.8-.06,.26-.11,.48-.15,.67Z"/>
      <path class="cls-2" d="M83.81,40.25c-.19-.06-.37-.12-.54-.19-.16-.07-.33-.17-.48-.29-.14-.11-.26-.28-.34-.49-.08-.21-.13-.43-.16-.67-.02-.24-.02-.47,.01-.7,.03-.23,.09-.42,.18-.59,.11-.21,.23-.33,.37-.36s.29,0,.43,.09c.15,.08,.29,.2,.43,.34,.14,.14,.26,.28,.36,.42,.17,.18,.34,.33,.52,.46,.17,.12,.35,.23,.52,.31,.17,.09,.35,.16,.52,.23,.18,.07,.35,.14,.53,.21,.15,.07,.29,.19,.4,.36,.11,.17,.2,.37,.26,.59,.06,.22,.09,.46,.09,.71,0,.25-.04,.49-.11,.72-.04,.15-.11,.28-.19,.39-.08,.11-.17,.19-.27,.25-.1,.06-.21,.07-.32,.05-.11-.02-.22-.09-.32-.22-.09-.12-.19-.23-.29-.33-.1-.1-.2-.21-.3-.33-.14,.35-.27,.78-.4,1.28-.13,.5-.25,1.02-.36,1.56-.1,.54-.19,1.08-.26,1.61-.07,.53-.11,1.01-.12,1.43-.02,.45-.09,.78-.21,1-.12,.22-.27,.35-.43,.39-.16,.04-.33,0-.51-.11-.18-.12-.33-.29-.46-.53-.13-.24-.22-.51-.28-.83-.06-.32-.04-.66,.04-1.03,.12-.53,.26-1.02,.42-1.48,.16-.46,.33-.92,.49-1.37,.16-.45,.32-.91,.45-1.38,.14-.47,.24-.97,.31-1.5Z"/>
      <path class="cls-2" d="M88.43,48.23c-.12-.06-.21-.06-.28,0-.07,.07-.13,.2-.17,.38-.03,.13-.06,.26-.09,.39-.03,.13-.06,.26-.1,.38-.05,.16-.11,.31-.19,.44-.07,.13-.15,.23-.23,.3-.08,.07-.17,.1-.27,.09-.1,0-.2-.06-.3-.17-.18-.19-.29-.42-.34-.69-.04-.27-.05-.55-.02-.84,.03-.29,.09-.57,.16-.85,.08-.28,.14-.53,.2-.75,.11-.45,.21-.89,.3-1.33,.09-.44,.16-.9,.21-1.38,.03-.32,.05-.64,.07-.96,.02-.32,.04-.65,.06-.97,.02-.24,.04-.47,.07-.69s.08-.44,.15-.65c.07-.19,.15-.33,.25-.44,.1-.11,.21-.18,.32-.21,.12-.03,.23-.03,.35,.01,.12,.04,.24,.11,.35,.22,.13,.12,.22,.28,.28,.48,.06,.2,.09,.42,.1,.66,.01,.27,0,.53-.05,.77-.04,.24-.09,.47-.15,.69-.07,.34-.15,.66-.23,.96-.08,.3-.16,.62-.23,.95-.04,.18-.07,.35-.09,.51-.02,.16-.02,.31-.01,.45,.01,.14,.04,.28,.09,.41,.05,.13,.13,.24,.23,.35,.13,.14,.25,.22,.36,.24,.11,.02,.2,0,.28-.08,.08-.07,.15-.19,.21-.34,.06-.15,.11-.33,.14-.54,.04-.23,.08-.47,.11-.71,.03-.24,.07-.48,.1-.72,.03-.2,.06-.4,.09-.6,.03-.2,.06-.39,.09-.59,.12-.63,.3-1.01,.56-1.13,.26-.12,.56-.05,.89,.23,.21,.17,.35,.39,.42,.67,.07,.28,.08,.63,.04,1.04-.03,.32-.09,.61-.17,.88-.08,.27-.17,.52-.28,.77-.17,.4-.33,.79-.49,1.18-.16,.39-.3,.81-.43,1.26-.09,.3-.16,.61-.21,.94-.05,.33-.1,.65-.13,.98-.02,.22-.04,.43-.07,.63-.03,.2-.05,.41-.08,.62-.03,.23-.1,.4-.19,.52-.1,.12-.2,.19-.32,.21-.12,.02-.24,0-.36-.08-.12-.07-.23-.18-.31-.32-.09-.14-.14-.32-.18-.53-.03-.21-.02-.45,.04-.72,.04-.17,.08-.35,.12-.53,.04-.18,.07-.36,.09-.53,.02-.17,.02-.33,0-.47-.02-.14-.07-.25-.16-.33-.1-.09-.2-.17-.31-.25s-.22-.14-.31-.19Z"/>
      <path class="cls-2" d="M94.84,48.51c.14,.01,.25,.07,.34,.18,.08,.11,.14,.24,.16,.4,.02,.16,.03,.33,0,.52-.02,.19-.07,.37-.13,.54-.11,.29-.25,.46-.39,.49s-.29-.06-.43-.28c-.17-.26-.3-.41-.4-.44-.1-.03-.19,.01-.25,.13s-.12,.29-.17,.52c-.04,.23-.09,.47-.13,.73-.04,.21-.04,.37,.01,.46,.05,.09,.12,.16,.2,.19,.09,.04,.18,.05,.27,.04,.1,0,.18,0,.24,0,.12,0,.25,.02,.37,.06,.12,.04,.22,.11,.31,.21s.15,.23,.19,.4c.04,.17,.04,.38,0,.63-.08,.5-.23,.92-.47,1.26-.09,.12-.19,.2-.28,.24-.09,.04-.19,.04-.3,.02-.19-.04-.36-.14-.52-.29-.16-.15-.32-.29-.49-.42-.13-.11-.26-.21-.4-.33-.14-.11-.27-.19-.41-.24-.23-.12-.39-.3-.48-.54s-.1-.57-.03-.99c.05-.29,.12-.56,.2-.82,.08-.26,.16-.52,.26-.77,.16-.45,.3-.92,.41-1.4,.11-.48,.22-.97,.31-1.46,.18-.94,.27-1.91,.26-2.9,0-.2,.01-.39,.05-.58,.04-.19,.09-.35,.16-.48,.07-.13,.15-.22,.24-.27,.09-.05,.19-.04,.3,.03,.29,.25,.58,.43,.88,.55,.3,.11,.61,.19,.92,.23,.19-.05,.35-.02,.48,.09,.13,.11,.24,.26,.31,.45,.07,.19,.12,.41,.14,.65,.02,.25,.02,.48-.01,.71-.03,.23-.09,.43-.18,.62-.09,.18-.2,.31-.35,.37-.1,.04-.19,.05-.28,.03-.09-.02-.17-.07-.26-.13-.08-.06-.17-.14-.24-.22-.08-.09-.15-.17-.22-.25-.21-.24-.36-.34-.47-.29s-.21,.28-.31,.68c-.07,.34-.12,.62-.15,.84-.02,.22-.01,.4,.03,.53,.04,.13,.12,.21,.24,.26,.11,.05,.27,.06,.48,.04Z"/>
    </g>
    <g>
      <path class="cls-2" d="M55.16,58.43c.21,.12,.42,.25,.61,.37,.2,.13,.38,.3,.54,.52,.13,.18,.22,.38,.27,.58,.06,.21,.07,.4,.05,.6s-.07,.37-.16,.54c-.09,.17-.21,.3-.37,.41-.16,.11-.32,.14-.46,.09-.15-.05-.28-.14-.42-.26-.13-.12-.26-.27-.39-.42-.13-.16-.25-.3-.38-.42-.4-.48-.83-.89-1.28-1.25-.45-.36-.92-.64-1.4-.86-.16-.07-.3-.16-.44-.28-.14-.12-.25-.26-.35-.41-.1-.16-.18-.33-.23-.51-.06-.19-.08-.38-.08-.58,0-.38,.04-.73,.14-1.05,.1-.32,.24-.61,.43-.87,.2-.33,.42-.58,.66-.76,.25-.18,.51-.28,.78-.32,.27-.04,.55-.01,.84,.08,.29,.09,.58,.25,.86,.45,.32,.25,.58,.55,.78,.9,.2,.35,.33,.72,.39,1.11,.07,.39,.07,.79,0,1.2-.07,.41-.2,.79-.4,1.15Zm-2.12-1.71c.1,.13,.22,.23,.35,.31,.13,.08,.27,.12,.4,.13,.13,.01,.25-.02,.36-.09,.11-.07,.19-.2,.24-.39,.05-.17,.07-.34,.05-.52-.02-.17-.07-.33-.15-.48-.08-.15-.18-.28-.29-.39-.12-.11-.24-.2-.36-.25-.25-.11-.45-.13-.6-.03-.15,.09-.26,.23-.31,.43-.05,.19-.05,.41,0,.65,.05,.24,.16,.45,.31,.64Z"/>
      <path class="cls-2" d="M54.63,51.6c-.15-.23-.24-.47-.28-.72-.04-.24-.03-.47,.02-.68,.05-.21,.13-.39,.24-.55,.12-.16,.25-.26,.4-.32,.15-.06,.31-.06,.49,0,.17,.06,.35,.2,.51,.42,.11,.14,.21,.3,.3,.48,.09,.17,.16,.34,.22,.5,.12,.32,.23,.65,.34,.97,.11,.33,.23,.65,.37,.96,.05,.11,.11,.24,.19,.4,.08,.16,.16,.32,.26,.49,.1,.17,.2,.32,.3,.46,.11,.14,.21,.25,.32,.32,.11,.07,.22,.09,.32,.06,.1-.03,.2-.13,.3-.3,.1-.19,.18-.38,.25-.58,.07-.2,.15-.39,.22-.58,.1-.21,.22-.33,.38-.36,.16-.02,.31,.01,.46,.12,.15,.1,.28,.25,.39,.44,.11,.19,.17,.39,.17,.61,0,.16-.03,.32-.11,.47-.07,.15-.16,.29-.27,.41-.11,.12-.22,.23-.35,.33-.12,.1-.23,.17-.33,.22-.13,.05-.25,.14-.35,.25-.1,.11-.19,.24-.26,.38-.07,.11-.15,.23-.24,.36-.09,.13-.18,.24-.28,.33-.1,.09-.2,.13-.31,.13-.11,0-.23-.08-.35-.23-.09-.11-.17-.23-.25-.36-.1-.15-.24-.35-.41-.61-.17-.26-.35-.52-.54-.79-.38-.52-.75-1.02-1.11-1.52-.36-.49-.7-1-1.04-1.52Z"/>
      <path class="cls-2" d="M61.5,49.57c-.07-.15-.12-.31-.14-.48-.03-.17-.03-.32-.02-.47,.02-.15,.06-.28,.12-.4,.07-.12,.16-.19,.27-.24,.19-.06,.36-.12,.53-.18,.17-.05,.31-.16,.45-.32,.09-.11,.18-.16,.27-.16,.1,0,.19,.04,.29,.11,.09,.07,.17,.16,.25,.27,.07,.11,.12,.22,.15,.34,.07,.22,.15,.44,.24,.65,.09,.21,.19,.42,.28,.63,.15,.31,.25,.61,.3,.91,.05,.3,.05,.58,0,.84-.05,.26-.14,.51-.28,.72s-.32,.4-.55,.55c-.4,.28-.78,.41-1.16,.41-.37,0-.72-.11-1.04-.31-.32-.21-.61-.49-.87-.86-.26-.37-.49-.78-.67-1.24-.18-.46-.32-.94-.42-1.45-.1-.51-.14-1.01-.13-1.49,.01-.47,.07-.9,.18-1.3s.26-.73,.46-1c.2-.27,.43-.47,.71-.61,.28-.13,.6-.18,.95-.13,.2,.02,.37,.1,.51,.24,.14,.13,.26,.31,.36,.53,.1,.24,.15,.47,.15,.71,0,.23-.05,.44-.14,.62-.08,.18-.2,.32-.36,.41s-.33,.13-.51,.09c-.07-.02-.14-.03-.21-.05-.07-.02-.14-.03-.22-.04-.19-.01-.33,.07-.42,.24-.09,.17-.15,.38-.17,.62-.02,.24-.02,.49,0,.75,.03,.26,.07,.47,.11,.64,.06,.21,.13,.42,.22,.62,.09,.2,.19,.39,.3,.57,.18,.28,.39,.49,.61,.62,.23,.13,.47,.15,.74,.07,.22-.07,.36-.23,.44-.48,.08-.24,.08-.49,.02-.75-.05-.23-.12-.34-.19-.34-.07,0-.14,.05-.21,.14-.09,.12-.18,.22-.28,.31-.1,.09-.2,.14-.31,.16-.11,.02-.21,0-.32-.07-.11-.07-.21-.2-.3-.39Z"/>
      <path class="cls-2" d="M67.1,47.53c.07,.14,.16,.25,.27,.33,.11,.07,.23,.13,.35,.16,.12,.03,.25,.05,.37,.04,.12,0,.23-.01,.33-.03,.19-.02,.35,.01,.49,.1,.14,.09,.24,.2,.32,.35,.08,.15,.13,.31,.16,.49,.02,.18,.02,.35-.01,.52-.03,.16-.09,.31-.18,.44-.09,.13-.21,.21-.37,.26-.1,.03-.21,.03-.33,0-.12-.03-.23-.08-.34-.15-.11-.07-.22-.15-.33-.25-.11-.1-.2-.2-.29-.31-.16-.19-.32-.39-.46-.6-.15-.21-.3-.41-.45-.61-.1-.13-.17-.21-.22-.24-.05-.03-.08-.02-.09,.02-.01,.04-.01,.1,0,.18,.02,.08,.04,.17,.07,.26,.04,.13,.09,.26,.13,.39,.05,.13,.09,.27,.13,.41,.12,.38,.15,.72,.12,1.03-.03,.25-.11,.45-.25,.61s-.3,.25-.47,.29c-.17,.04-.35,.01-.52-.07-.17-.09-.31-.25-.4-.48-.05-.13-.1-.26-.13-.41-.03-.15-.05-.3-.07-.46-.02-.15-.03-.31-.04-.46-.01-.15-.03-.29-.05-.42-.09-.72-.22-1.43-.38-2.12-.16-.69-.37-1.37-.64-2.05-.08-.2-.15-.4-.2-.6-.05-.2-.08-.39-.07-.57,0-.18,.04-.35,.11-.49,.07-.15,.19-.27,.36-.37,.24-.14,.49-.25,.76-.33,.27-.08,.55-.13,.83-.14s.55,.03,.82,.11c.27,.08,.51,.2,.74,.38,.23,.18,.43,.41,.6,.69,.17,.29,.3,.64,.38,1.05,.05,.27,.08,.55,.09,.85,0,.3-.03,.59-.1,.86-.07,.28-.2,.53-.36,.77-.17,.24-.4,.42-.69,.56Zm-1.44-2.25c.05,.23,.11,.4,.21,.52,.09,.12,.19,.2,.3,.24,.11,.04,.21,.04,.32,0,.11-.04,.2-.11,.28-.21,.08-.1,.14-.22,.17-.37,.03-.15,.03-.31,0-.49-.05-.21-.12-.39-.21-.53-.09-.14-.19-.24-.3-.3-.11-.06-.22-.08-.33-.07-.11,.01-.21,.07-.29,.16-.08,.09-.13,.23-.17,.4-.03,.17-.02,.39,.03,.64Z"/>
      <path class="cls-2" d="M75.87,46.48c-.2-.08-.39-.17-.56-.26-.17-.09-.33-.19-.49-.32-.15-.12-.25-.26-.33-.44-.07-.18-.11-.36-.12-.55-.01-.19,0-.37,.06-.54,.05-.17,.12-.31,.22-.42,.13-.14,.26-.21,.42-.21,.15,0,.3,.06,.45,.15,.15,.09,.3,.21,.43,.35,.14,.14,.26,.27,.36,.39,.17,.17,.34,.33,.52,.46,.18,.13,.35,.25,.53,.35,.18,.1,.36,.2,.54,.28,.18,.09,.37,.18,.55,.27,.16,.08,.29,.2,.4,.36s.19,.33,.24,.51c.05,.19,.07,.38,.05,.57-.02,.19-.07,.37-.16,.54-.06,.11-.13,.2-.23,.26-.1,.07-.2,.12-.31,.14-.11,.02-.22,.02-.34-.02-.12-.04-.23-.11-.32-.23-.09-.11-.19-.22-.29-.32-.1-.1-.2-.2-.3-.31-.17,.25-.34,.55-.51,.91-.17,.36-.33,.74-.48,1.14-.15,.4-.27,.8-.38,1.2-.11,.4-.18,.76-.23,1.09-.05,.35-.14,.59-.29,.74-.15,.15-.31,.22-.48,.22-.18,0-.35-.06-.54-.19-.18-.13-.33-.29-.46-.5s-.2-.44-.24-.7c-.04-.26,0-.52,.11-.79,.16-.38,.34-.74,.54-1.07,.2-.33,.41-.65,.61-.97s.39-.64,.57-.98c.18-.34,.32-.7,.42-1.1Z"/>
      <path class="cls-2" d="M80.8,52.57c.15,.06,.26,.14,.34,.25,.08,.11,.12,.23,.14,.36,.01,.13,0,.27-.04,.4-.04,.14-.1,.26-.18,.37-.14,.19-.3,.27-.45,.25-.16-.02-.3-.14-.43-.36-.15-.25-.28-.41-.39-.47-.1-.06-.2-.05-.28,.02s-.15,.19-.22,.35c-.07,.16-.13,.33-.2,.52-.06,.15-.07,.27-.02,.36,.04,.09,.11,.16,.2,.21,.09,.05,.18,.09,.28,.12,.1,.03,.19,.05,.25,.07,.13,.04,.26,.1,.38,.17,.12,.07,.23,.16,.31,.26s.14,.23,.17,.37c.03,.14,.01,.3-.05,.48-.12,.36-.32,.64-.59,.82-.11,.06-.21,.09-.31,.09-.1,0-.21-.03-.32-.08-.19-.09-.37-.22-.52-.39-.16-.16-.32-.32-.48-.48-.13-.12-.26-.25-.39-.38-.13-.13-.27-.24-.42-.32-.24-.17-.39-.36-.46-.57-.07-.21-.06-.47,.04-.77,.08-.2,.17-.39,.27-.57,.1-.17,.22-.34,.33-.51,.21-.3,.39-.61,.55-.95,.16-.33,.31-.68,.44-1.02,.27-.66,.44-1.38,.51-2.15,.01-.15,.05-.3,.1-.43,.06-.13,.13-.24,.21-.32,.08-.08,.17-.12,.28-.13,.1,0,.21,.03,.32,.12,.28,.28,.57,.52,.88,.7,.3,.18,.62,.34,.95,.47,.2,.02,.37,.1,.5,.22,.13,.13,.23,.28,.29,.45,.06,.17,.1,.35,.1,.55,0,.2-.02,.38-.07,.54-.05,.17-.13,.3-.24,.42-.11,.11-.24,.17-.39,.17-.11,0-.2-.02-.3-.06-.09-.05-.18-.11-.26-.18-.08-.08-.16-.16-.24-.25-.07-.09-.14-.18-.21-.27-.2-.25-.36-.38-.48-.38-.12,0-.25,.14-.38,.43-.1,.24-.18,.44-.22,.6-.04,.16-.05,.3-.01,.41,.04,.11,.11,.2,.23,.27,.12,.07,.28,.13,.5,.19Z"/>
      <path class="cls-2" d="M85.75,60.77c-.12,.14-.26,.22-.41,.26-.15,.03-.3,.02-.45-.03-.15-.05-.29-.14-.43-.27-.13-.13-.24-.28-.32-.45-.08-.17-.13-.36-.14-.58-.01-.21,.02-.43,.11-.66,.03-.05,.06-.12,.08-.19,.02-.07,.05-.14,.08-.2,.1-.19,.15-.39,.15-.57,0-.19-.04-.35-.12-.49-.08-.14-.17-.24-.3-.31-.12-.07-.25-.08-.37-.03-.13,.04-.24,.15-.35,.33-.11,.18-.18,.44-.23,.78-.03,.25-.1,.44-.2,.57-.1,.13-.22,.21-.35,.24-.14,.03-.28,.02-.43-.03-.15-.05-.3-.13-.44-.24-.14-.11-.26-.24-.37-.39s-.19-.32-.23-.49c-.05-.17-.05-.34-.02-.52,.03-.18,.12-.35,.26-.51,.28-.31,.52-.62,.72-.95,.2-.33,.4-.67,.58-1.01,.19-.34,.39-.7,.6-1.06,.21-.36,.47-.73,.78-1.1,.16-.19,.32-.34,.5-.46,.18-.11,.35-.19,.53-.23,.17-.04,.35-.05,.52-.02,.17,.03,.33,.09,.48,.18,.28,.18,.48,.42,.59,.72,.11,.3,.17,.62,.18,.97,.01,.34-.01,.69-.06,1.04-.05,.35-.1,.66-.14,.94-.07,.52-.15,1.02-.23,1.5-.08,.47-.14,.93-.19,1.38-.02,.17-.03,.34-.04,.52,0,.17-.01,.34-.03,.51-.02,.16-.05,.32-.09,.46-.04,.14-.12,.27-.21,.39Zm-1.93-5.73c-.05,.2-.07,.39-.04,.56,.03,.18,.08,.33,.16,.47,.08,.13,.18,.24,.29,.31,.11,.08,.23,.11,.35,.11,.12,0,.23-.05,.33-.14,.1-.09,.19-.24,.25-.45,.06-.22,.08-.42,.05-.6-.03-.18-.08-.32-.16-.45-.08-.12-.18-.22-.29-.28-.12-.06-.23-.09-.35-.08-.12,.01-.23,.06-.34,.15-.11,.09-.19,.22-.25,.39Z"/>
      <path class="cls-2" d="M88.54,62.35c-.07,.19-.16,.34-.29,.43-.12,.09-.25,.14-.39,.15-.14,0-.27-.04-.4-.12-.13-.08-.24-.2-.32-.36-.07-.12-.12-.26-.15-.42-.03-.16-.04-.32-.04-.48,0-.16,.02-.32,.04-.47,.02-.15,.05-.29,.07-.41,.09-.57,.16-1.14,.21-1.72,.05-.58,.09-1.16,.11-1.75,0-.35,.03-.7,.05-1.03,.03-.34,.08-.67,.15-1.01,.08-.35,.21-.59,.4-.72,.19-.13,.39-.17,.6-.12,.21,.05,.4,.18,.58,.38s.29,.47,.34,.79c.06,.34,.12,.69,.18,1.03,.06,.34,.12,.69,.19,1.05,.06,.38,.16,.64,.29,.8,.13,.15,.28,.23,.44,.23,.16,0,.32-.07,.49-.19,.16-.12,.31-.28,.43-.47,.16-.27,.32-.53,.48-.79,.16-.26,.32-.52,.48-.79,.16-.25,.33-.41,.52-.5,.18-.09,.35-.1,.5-.03,.15,.06,.27,.2,.36,.41,.09,.21,.12,.49,.09,.84-.04,.45-.08,.9-.13,1.33-.05,.43-.09,.86-.13,1.29-.04,.42-.07,.84-.09,1.27-.02,.42-.02,.85,0,1.28,.02,.25,.01,.51,0,.78-.02,.27-.07,.51-.14,.72-.07,.21-.19,.37-.33,.48-.15,.11-.34,.14-.58,.08-.06-.01-.11-.03-.17-.04-.06-.02-.11-.04-.16-.06-.36-.17-.52-.49-.49-.94,.02-.36,.06-.71,.11-1.04,.05-.33,.08-.66,.07-1,0-.16-.05-.26-.11-.32-.07-.05-.15-.04-.25,.05-.14,.12-.26,.25-.37,.39s-.22,.26-.35,.36c-.21,.17-.39,.24-.53,.21-.14-.03-.28-.17-.41-.43-.08-.14-.16-.3-.22-.46-.06-.16-.13-.32-.21-.48-.05-.09-.1-.19-.15-.3-.05-.1-.1-.21-.16-.31-.07-.13-.15-.18-.22-.14-.07,.03-.12,.11-.14,.24-.02,.18-.04,.38-.05,.59-.01,.22-.02,.43-.04,.64-.01,.21-.04,.41-.07,.6-.03,.19-.07,.35-.12,.49Z"/>
    </g>
  </g>
</svg>