<?xml version="1.0" encoding="UTF-8"?>
<svg id="Capa_1" data-name="Capa 1" xmlns="http://www.w3.org/2000/svg" viewBox="0 0 142.57 77.03">
  <defs>
    <style>
      .cls-1 {
        fill: #fff;
        stroke: #1d1d1b;
        stroke-miterlimit: 10;
        stroke-width: 2px;
      }

      .cls-2 {
        fill: #1d1d1c;
      }
    </style>
  </defs>
  <rect class="cls-1" x=".27" width="142.3" height="77.03"/>
  <g>
    <path class="cls-2" d="M78.39,8.28c.7,.12,1.42,.19,2.11,.38,.76,.21,1.49,.54,2.24,.81,.17,.06,.36,.11,.53,.08,1.2-.17,2.34,.1,3.46,.46,1.49,.47,2.87,1.19,4.24,1.92,2.6,1.38,5.32,2.41,8.22,2.9,.39,.07,.79,.1,1.19,.14,.42,.05,.53,.22,.39,.63-.28,.84-.81,1.49-1.5,2.02-.09,.07-.18,.13-.3,.22,.09,.02,.15,.04,.21,.05,.3,.1,.4,.36,.2,.61-.27,.34-.58,.66-.86,.99,.43,.24,.44,.45,.07,.83-.81,.86-1.75,1.48-2.96,1.68,.05,.07,.08,.13,.12,.16,.93,.92,1.81,1.9,2.91,2.64,.32,.22,.28,.58-.09,.71-.65,.22-1.31,.39-1.97,.59-.06,.02-.11,.03-.2,.05,1.33,3.29,2.14,6.67,1.77,10.27,.16,.04,.32,.09,.48,.13,1.42,.36,2.83,.76,4.12,1.48,.6,.34,1.16,.74,1.74,1.11,.19,.12,.3,.27,.21,.5-.09,.24-.28,.26-.5,.21-1.36-.27-2.72-.53-4.07-.79-.81-.16-1.62-.3-2.44-.46-.16,.45-.32,.87-.46,1.3-.07,.2-.17,.34-.4,.33-.22-.01-.3-.16-.35-.35-.09-.35-.19-.7-.29-1.09-.2,.79-.39,1.52-.56,2.26-.01,.06,.1,.2,.18,.24,.77,.43,1.56,.82,2.31,1.26,1.53,.9,2.98,1.92,4.14,3.29,.52,.61,.99,1.27,1.48,1.9,.14,.18,.19,.37,.02,.54-.17,.18-.35,.14-.54,0-1.09-.74-2.15-1.53-3.28-2.21-1.61-.96-3.27-1.83-4.91-2.74-.05-.03-.11-.05-.15-.06-.41,.77-.81,1.53-1.23,2.31,.35,.25,.72,.5,1.08,.77,1.43,1.06,2.78,2.22,3.9,3.64,.84,1.07,1.33,2.28,1.55,3.61,.02,.13-.06,.35-.16,.4-.12,.06-.35,.03-.45-.06-.37-.35-.7-.74-1.06-1.11-1.93-1.98-3.99-3.82-6.21-5.47-.04-.03-.08-.05-.13-.08-.34,.26-.67,.52-1,.77-.15,.12-.33,.23-.48,.07-.11-.11-.16-.3-.18-.47-.02-.2,.02-.4,.03-.56-.51,.49-1.03,1-1.58,1.54,.1,.12,.19,.24,.29,.36,1.51,1.86,2.84,3.82,3.61,6.11,.35,1.04,.56,2.14,.83,3.21,.05,.2,.06,.42-.18,.52-.25,.1-.41-.03-.54-.24-1.42-2.38-2.92-4.71-4.56-6.95-.43-.59-.87-1.17-1.31-1.76-.29,.1-.57,.16-.8,.3-.18,.1-.33,.29-.43,.48-.32,.6-.44,1.27-.5,1.94-.05,.55-.26,.67-.74,.41-.17-.1-.34-.2-.52-.3-.03,.02-.05,.03-.07,.06-.83,1.43-1.6,2.87-2.1,4.46-.29,.94-.29,1.91-.32,2.87-.03,.99-.26,1.89-.98,2.61-.05,.05-.09,.13-.1,.21-.1,1.19-.82,1.9-1.81,2.4-.25,.13-.44,.27-.56,.54-.39,.81-1.09,1.26-1.88,1.59-.92,.38-1.85,.73-2.76,1.14-.38,.17-.68,.19-1.06,.01-.88-.4-1.79-.73-2.68-1.09-.91-.37-1.7-.88-2.12-1.83-.06-.13-.22-.22-.36-.29-.9-.44-1.63-1.04-1.84-2.07-.07-.36-.21-.63-.44-.91-.5-.62-.73-1.37-.7-2.17,.1-2.26-.66-4.27-1.72-6.19-.24-.44-.48-.88-.74-1.33-.24,.13-.45,.26-.67,.37-.34,.18-.59,.05-.62-.34-.06-.68-.2-1.34-.45-1.99-.23-.58-.75-.64-1.21-.83-.04-.02-.16,.09-.22,.16-1.2,1.68-2.41,3.36-3.57,5.07-.77,1.13-1.45,2.32-2.18,3.47-.08,.12-.26,.22-.4,.24-.09,.01-.24-.13-.29-.23-.05-.09,0-.23,.01-.35,.56-3.58,2.22-6.62,4.51-9.35,.07-.08,.14-.17,.23-.28-.54-.5-1.09-.99-1.63-1.49,.03-.03,.05-.06,.08-.09,0,.22,.02,.45,0,.67-.02,.14-.08,.35-.18,.4-.12,.06-.33,.01-.45-.07-.35-.23-.67-.5-1.04-.78-.26,.19-.53,.39-.79,.6-2.33,1.81-4.49,3.81-6.48,5.98-.16,.17-.31,.3-.54,.18-.23-.12-.2-.32-.16-.55,.35-2.19,1.6-3.84,3.18-5.25,1.06-.95,2.19-1.8,3.3-2.71-.37-.7-.78-1.47-1.21-2.27-.95,.51-1.91,1.01-2.87,1.53-1.84,1.01-3.59,2.17-5.3,3.39-.22,.16-.45,.38-.71,.11-.26-.28,0-.5,.15-.71,.91-1.22,1.84-2.43,3.06-3.37,1.45-1.13,3.03-2.04,4.66-2.87,.09-.04,.18-.09,.29-.14-.19-.78-.37-1.56-.58-2.42-.09,.34-.17,.6-.24,.87-.03,.11-.03,.24-.09,.31-.09,.11-.24,.25-.35,.25-.12,0-.29-.14-.34-.27-.18-.43-.33-.88-.49-1.35-1.03,.19-2.04,.38-3.06,.57-1.15,.22-2.31,.45-3.46,.68-.24,.05-.4-.04-.54-.22v-.24c.07-.07,.12-.16,.2-.21,.66-.43,1.31-.88,2-1.26,1.01-.56,2.11-.88,3.21-1.19,.39-.11,.78-.21,1.18-.31-.37-3.61,.43-6.98,1.76-10.28-.08-.02-.13-.04-.19-.05-.66-.19-1.32-.36-1.97-.58-.39-.13-.41-.47-.1-.73,.61-.5,1.22-1,1.81-1.53,.42-.38,.8-.8,1.25-1.25-1.27-.21-2.22-.85-3.03-1.73-.34-.36-.31-.58,.11-.79-.29-.32-.59-.64-.86-.98-.21-.26-.1-.53,.21-.63,.05-.01,.1-.02,.19-.04-.08-.07-.13-.1-.18-.14-.76-.54-1.33-1.24-1.64-2.13-.13-.39-.02-.57,.38-.61,.38-.04,.75-.07,1.13-.13,2.86-.49,5.55-1.48,8.12-2.83,1.48-.78,2.96-1.57,4.57-2.06,1.13-.35,2.27-.61,3.47-.38,.09,.02,.21-.04,.3-.08,.79-.29,1.57-.63,2.38-.86,.66-.19,1.37-.25,2.05-.36h1.14s.07,.03,.11,.03c1.41,.09,2.76,.45,4.04,1.05,.08,.04,.2,0,.3-.02,.73-.25,1.45-.55,2.19-.75,.6-.16,1.23-.21,1.84-.31h1.2Zm20,43.07c-.54-.91-1.23-1.7-2-2.42-2.82-2.65-6.06-4.63-9.6-6.11-.74-.31-1.5-.56-2.26-.84,0-.02,0-.04,0-.06,.42,.05,.83,.09,1.25,.14,.26-.86,.26-1.7,.1-2.57-.3,.34-.55,.69-.87,.95-.49,.41-.94,.84-1.3,1.38-.27,.41-.68,.69-1.23,.88,.78-.66,.97-.89,1.02-1.19-.49,.17-1,.35-1.5,.53-.01-.02-.02-.05-.03-.07,1.21-.66,2.33-1.42,3.14-2.65-.42-.04-.78-.07-1.14-.1,.3-.09,.61-.13,.91-.13,1.2-.02,2.35,.26,3.49,.61,3.41,1.05,6.64,2.54,9.76,4.27,.52,.29,1.03,.58,1.63,.92-2.19-2.31-10.88-5.91-15.47-6.5,.34-.04,.69-.07,1.02-.03,.24,.02,.32-.08,.31-.28,0-.26-.01-.52-.07-.78-.11-.53-.13-.51-.65-.58-.46-.06-.76,.05-1.09,.44-.47,.57-1.06,1.04-1.35,1.76-.02,.05-.07,.1-.11,.14-.61,.71-1.38,1.14-2.26,1.39-.09,.02-.17,.04-.26,.05,1.36-.71,2.17-1.42,2.28-2.02-.26,.08-.52,.16-.78,.24-.01-.02-.02-.04-.04-.07,.82-.52,1.58-1.1,2.17-1.95h-2.13c.1-.09,.22-.15,.34-.17,.53-.09,1.06-.21,1.59-.23,1.82-.09,3.65,.01,5.46,.22,2.34,.27,4.69,.56,7.02,.89,1.68,.24,3.36,.56,5.03,.84,0-.03,0-.06,.01-.08-6.19-1.87-12.53-2.58-18.98-2.5,0-.03,0-.06-.01-.09,.75-.09,1.5-.18,2.27-.27,.04-.74-.27-1.31-.85-1.73-.62-.45-1.33-.54-2.04-.22-.71,.32-1.05,.97-1.38,1.64-.45,.93-.96,1.83-1.45,2.74-.1,.19-.25,.36-.38,.54-.01-.01-.03-.02-.04-.03,.1-.24,.2-.47,.3-.69-.55,.28-1.09,.55-1.63,.82-.01-.03-.03-.05-.04-.08,.12-.08,.25-.15,.36-.25,.23-.22,.5-.42,.67-.67,.37-.54,.1-1.06-.55-1.1-.58-.03-1.1,.13-1.58,.45-.23,.15-.43,.34-.69,.55,.06-.15,.1-.25,.13-.35-.47,.43-.68,.96-.65,1.58,.01,.26,.09,.47,.44,.45-.3,.35-.61,.66-1.03,.66-.24,0-.49-.22-.74-.34-.45,.55-1.14,.44-1.62-.32,.29,.02,.39-.16,.4-.41,.04-.64-.17-1.18-.67-1.7,.06,.18,.09,.27,.15,.44-.19-.16-.31-.28-.44-.38-.55-.44-1.17-.69-1.88-.64-.6,.04-.85,.52-.55,1.05,.1,.18,.25,.34,.4,.48,.21,.18,.44,.34,.66,.51-.01,.02-.02,.05-.03,.07-.53-.26-1.07-.53-1.63-.81,.1,.24,.2,.47,.3,.7-.16-.15-.3-.3-.4-.48-.5-.93-.99-1.86-1.49-2.79-.17-.32-.31-.66-.52-.95-.89-1.19-2.27-1.06-3.05-.35-.46,.42-.75,.95-.67,1.6,.78,.09,1.52,.18,2.26,.27v.12c-3.2-.14-6.38,.06-9.54,.5-4.64,.66-8.7,1.56-9.31,2.03,.13-.02,.23-.04,.32-.05,1.97-.33,3.94-.71,5.92-.98,2.48-.33,4.96-.61,7.45-.82,1.42-.12,2.86-.06,4.3-.03,.44,0,.88,.17,1.33,.26,0,.03-.01,.07-.02,.1h-2.11c.58,.84,1.34,1.42,2.15,1.94-.01,.02-.03,.04-.04,.06-.26-.08-.52-.16-.85-.25,.54,1.03,1.39,1.6,2.36,2.03-1.11-.25-2.12-.72-2.72-1.73-.32-.54-.75-.96-1.12-1.44-.42-.55-.87-.72-1.49-.58-.03,0-.07,0-.09,0-.06,.04-.16,.08-.17,.13-.08,.39-.16,.78-.21,1.18-.03,.22,.07,.32,.32,.29,.33-.03,.67,0,1.01,0,0,.03,0,.06,0,.09-2.17,.21-4.92,1-8.05,2.29-3.12,1.29-6.54,3.28-7.34,4.13,.2-.12,.34-.2,.48-.28,3.27-1.88,6.65-3.51,10.23-4.69,1.2-.39,2.4-.74,3.67-.78,.44-.02,.89,.03,1.33,.04,0,.03,0,.05,0,.08-.36,.03-.72,.06-1.15,.1,.15,.2,.25,.35,.36,.49,.76,.94,1.74,1.6,2.8,2.16-.01,.02-.02,.05-.03,.07-.51-.18-1.02-.36-1.53-.54-.02,.02-.04,.04-.06,.06,.31,.35,.61,.71,.94,1.08-.13-.07-.24-.12-.35-.18-.47-.29-.82-.7-1.11-1.17-.08-.13-.2-.24-.31-.35-.44-.44-.88-.87-1.31-1.31-.04-.04-.06-.11-.09-.17-.21,.92-.24,1.77,.04,2.62,.23-.04,.43-.09,.64-.11,.2-.02,.41,0,.66,0-.1,.04-.15,.07-.2,.08-3.68,1.17-7,3.03-10.04,5.41-1.33,1.04-2.56,2.19-3.51,3.61-.05,.08-.1,.17-.15,.25,.09-.01,.14-.05,.18-.09,2.51-2.39,5.2-4.55,8.15-6.35,1.57-.96,3.19-1.83,4.98-2.29,.37-.09,.75-.13,1.12-.19,0,.03,.01,.06,.02,.09-.47,.16-.93,.31-1.42,.47,.43,.58,.98,.88,1.61,1.05,.07,.02,.18-.04,.26-.1,.34-.23,.66-.48,1.01-.7,.28-.18,.58-.33,.87-.49-.01,.1-.06,.13-.11,.17-1.83,1.35-3.53,2.86-5.07,4.54-1.7,1.84-3.22,3.82-4.37,6.06-.21,.4-.39,.82-.58,1.24,.13-.07,.21-.18,.28-.29,1.77-2.6,3.61-5.14,5.73-7.47,1.09-1.19,2.22-2.35,3.6-3.21,.38-.24,.8-.43,1.2-.64,0,.02,.02,.03,.02,.05-.47,.34-.95,.67-1.47,1.04,1.44,.31,2.51-.33,3.54-1.12,.02,.03,.05,.06,.07,.1-.34,.33-.68,.65-1.02,.99,1.19,.06,2.03-.61,2.9-1.26-.24,.29-.47,.58-.74,.91,.18-.06,.34-.08,.46-.15,1.15-.62,2.29-1.24,3.44-1.87,0-.02-.01-.03-.02-.05-.38,.1-.76,.2-1.23,.32,.12-.12,.18-.18,.24-.23,.59-.5,.62-1.04,.11-1.64-.18-.21-.31-.47-.42-.72-.08-.2-.08-.42-.12-.62,.38,.32,.71,.63,1.07,.9,.36,.28,.73,.43,1.09,0,.49,.36,.54,.39,1.02,.05,.4-.28,.76-.61,1.14-.92,.02,.5-.18,.95-.54,1.34-.48,.52-.43,1.13,.1,1.58,.08,.07,.17,.15,.25,.22-.01,.01-.02,.02-.03,.03-.39-.11-.78-.21-1.17-.32,.63,.38,1.26,.75,1.87,1.13,.82,.51,1.58,.86,1.97,.88-.24-.3-.49-.61-.74-.91,.88,.69,1.73,1.37,2.97,1.25-.33-.32-.67-.65-1-.97,1.67,1.21,2.5,1.27,3.55,1.07-.51-.36-.98-.7-1.45-1.04,.7,.22,1.35,.57,1.89,1.05,.97,.85,1.94,1.71,2.82,2.65,2.21,2.35,4.07,4.98,5.89,7.65,.05,.08,.12,.16,.18,.24-.4-1.11-.95-2.13-1.59-3.11-2.29-3.5-5.19-6.41-8.5-8.92,.53,.28,1.08,.54,1.51,.93,.47,.42,.87,.36,1.33,.07,.19-.12,.38-.25,.56-.4,.12-.1,.22-.23,.36-.38-.52-.17-.98-.32-1.44-.48,.17-.05,.34-.05,.5-.02,1,.14,1.93,.49,2.83,.91,2.66,1.23,5.06,2.89,7.34,4.72,1.29,1.04,2.52,2.16,3.79,3.24Zm-44.79-15.52c-.26-.34-.51-.69-.79-1-.16-.17-.36-.33-.57-.41-.19-.08-.24-.16-.22-.35,.16-1.45,.38-2.88,1.18-4.14,.02-.03,.03-.06,.04-.1-.72,.54-1.29,1.18-1.48,2.09-.47-1.77,.44-3.06,1.44-4.33-.5,.29-.91,.69-1.22,1.17-.31,.48-.57,.99-.85,1.49,.06-.42,.14-.85,.29-1.24,.42-1.1,1.18-1.95,2.01-2.75,.68-.64,1.08-1.43,1.31-2.33,.04-.17,.07-.34,.11-.56-1.17,.65-2.34,.95-3.68,.75,.14-.11,.22-.17,.3-.23,1.05-.8,2.13-1.56,2.98-2.6,.56-.69,1.2-1.25,2-1.65,.34-.17,.65-.43,.95-.68,.18-.15,.31-.35,.46-.53l-.04-.04c-.5,.24-.99,.49-1.49,.73-.01-.02-.03-.05-.04-.07,.4-.48,.8-.97,1.21-1.45,1.25-1.48,2.51-2.94,3.93-4.26,1.73-1.62,3.71-2.46,6.08-2.26,.04,0,.08,0,.12-.01,0-.03,0-.07,.01-.1-.58-.13-1.16-.25-1.74-.38,.59-.14,1.2-.27,1.81-.3,1.75-.1,3.42,.25,5.06,.87,.14,.05,.33,.05,.47,0,1.64-.62,3.33-.98,5.09-.87,.6,.04,1.2,.17,1.8,.25,0,.02-.01,.03-.02,.05-.58,.13-1.16,.26-1.8,.4,.08,.08,.09,.09,.09,.09,.13,0,.26,0,.39,0,1.73-.06,3.35,.29,4.73,1.41,.4,.33,.82,.65,1.2,.99,1.48,1.34,2.74,2.89,4.03,4.41,.33,.39,.65,.78,.97,1.17l-.04,.06c-.5-.24-1-.49-1.58-.77,.11,.15,.17,.24,.23,.31,.4,.49,.93,.8,1.46,1.13,.48,.3,.98,.62,1.34,1.04,1.03,1.22,2.25,2.22,3.53,3.15,.05,.03,.11,.04,.16,.07-.02,.03-.05,.06-.07,.09-1.27,.19-2.45-.12-3.61-.76,.2,1.16,.62,2.12,1.43,2.89,.88,.83,1.66,1.74,2.07,2.92,.12,.35,.18,.72,.26,1.08-.91-1.63-1.53-2.45-1.98-2.57,.36,.61,.8,1.25,1.14,1.95,.35,.72,.44,1.5,.17,2.31-.41-1.1-.92-1.82-1.55-2.16,.86,1.27,1.1,2.68,1.28,4.12,.04,.28,.03,.51-.32,.57-.12,.02-.24,.11-.32,.21-.32,.38-.63,.78-.94,1.16,.79,.11,1.59,.22,2.42,.33v-.91c.2,.23,.35,.42,.52,.62,.23-1.15-.03-2.32,.38-3.4,.1,.63,.17,1.25,.3,1.87,.14,.62,.33,1.22,.51,1.83,.11,.38,.21,.43,.67,.38,.03-.55,.1-1.11,.1-1.67,.02-3.01-.74-5.85-1.91-8.6-.16-.37-.35-.63-.77-.66-.13,0-.25-.06-.37-.11-.47-.2-.94-.41-1.4-.62,.01-.03,.02-.05,.03-.08,1.42,.24,2.84,.63,4.36,.16-.12-.1-.2-.16-.27-.22-.53-.51-1.09-1-1.6-1.55-2.63-2.84-5.24-5.69-7.87-8.53-1.22-1.33-2.45-2.66-3.99-3.63-3.33-2.11-6.78-2.36-10.33-.57-.09,.05-.25,.04-.34-.01-2.57-1.33-5.22-1.52-7.96-.6-2.06,.7-3.71,2.02-5.18,3.58-1.72,1.81-3.36,3.69-5.06,5.52-1.6,1.72-3.24,3.42-4.86,5.12-.29,.3-.61,.58-.94,.9,1.5,.46,2.9,.07,4.39-.19-.12,.09-.18,.14-.25,.17-.63,.27-1.26,.53-1.89,.81-.11,.05-.25,.14-.3,.25-1.3,2.89-2.11,5.9-2.04,9.11,.01,.49,.07,.97,.1,1.44,.41,.04,.61-.1,.69-.46,.15-.64,.36-1.26,.5-1.89,.12-.57,.18-1.15,.27-1.72,.03,0,.05,0,.08-.01,.06,.55,.13,1.11,.18,1.66,.04,.56,.05,1.13,.08,1.69,.03,0,.06,0,.09,0,.15-.18,.3-.36,.49-.6v.93c.83-.12,1.63-.23,2.4-.33Zm18.96,13.85s-.05,0-.08,0c0-.06-.02-.13-.03-.2-.05-.46-.09-.92-.14-1.38-.04-.36-.25-.61-.57-.76-.65-.31-1.29-.32-1.9,.09-.59,.4-.61,1.01-.5,1.62,.2,1.03,.44,2.05,.64,3.07,.06,.31,.08,.64,.1,.96,.03,.32,.04,.64,.06,.95-.35-1.27-.7-2.53-1.05-3.79-.03,0-.05,.01-.08,.02,.08,1.13,.29,2.23,.66,3.3,.15,.45,.2,.94,.27,1.41,.03,.23,0,.46,.03,.69,.03,.41,.1,.8,.47,1.06,.46,.33,.96,.55,1.54,.41,.66-.15,1.31-.16,1.98,0,.61,.15,1.15-.07,1.6-.47,.17-.15,.3-.4,.36-.63,.07-.27,.09-.56,.07-.84-.03-.64,.11-1.23,.33-1.83,.37-.99,.54-2.03,.6-3.08-.03,0-.05-.01-.08-.02-.34,1.24-.69,2.48-1.03,3.72,.04-.76,.1-1.52,.23-2.27,.16-.92,.41-1.82,.58-2.74,.18-.94-.21-1.6-1.03-1.79-.26-.06-.55-.06-.83-.03-.7,.08-1.07,.46-1.16,1.16-.06,.47-.08,.94-.12,1.4-.02,0-.04,0-.07,0v-1.88h-.15c-.1,1.03-.2,2.07-.29,3-.09-.91-.18-1.94-.28-2.96-.05,0-.09,0-.14,0v1.78Zm-3.74-25.92c.75-1.3,.2-3.46-1.15-4.08-1.47-.67-2.98-.87-4.54-.61-.59,.1-1.16,.31-1.78,.47,1.24-.81,2.58-1.15,4.01-1.11-2.11-.49-3.8,.49-5.47,1.59,.32-.34,.65-.66,1.02-.94,.36-.27,.76-.5,1.14-.74-1.06,.36-2.05,.84-2.86,1.63-.42,.41-.72,.88-.85,1.46-.18,.85,.12,1.49,.93,1.78,.35,.13,.74,.22,1.1,.2,1.1-.06,2.19-.01,3.27,.19-.76-.67-1.69-.86-2.65-.96,1.26-.22,2.46-.04,3.56,.63,.35,.21,.72,.39,1.06,.61,.42,.27,.79,.18,1.1-.15,.23-.23,.46-.49,.6-.78,.17-.34,.25-.73,.39-1.14v1.48c.38-.69,.48-1.36,.49-2.07,.23,.57,.23,1.17,.18,1.76,.28-.59,.26-1.22,.25-1.84,.38,.81,.41,1.66,.2,2.6Zm15.76-4.18c-.09-.03-.18-.07-.27-.1-1.95-.74-3.89-.7-5.82,.11-1.17,.49-1.6,1.47-1.71,2.65-.05,.51,.08,1,.32,1.45-.17-.88-.16-1.75,.25-2.64,0,.38-.02,.71,0,1.03,.03,.32,.11,.63,.17,.94,.02-1.16,.06-1.5,.26-1.79-.03,.75,.09,1.45,.5,2.16-.04-.32-.07-.56-.08-.79-.01-.24,0-.47,0-.71,.03,0,.07,0,.1,0,0,.06,.01,.12,.03,.17,.15,.78,.47,1.45,1.17,1.88,.21,.12,.41,.15,.62,.04,.43-.24,.86-.46,1.28-.71,1.11-.66,2.3-.84,3.55-.62-.97,.09-1.9,.28-2.66,.96,1.1-.21,2.21-.23,3.32-.2,.45,.01,.92-.15,1.34-.34,.48-.21,.71-.66,.69-1.21-.02-.71-.33-1.3-.8-1.8-.51-.54-1.12-.93-1.78-1.26-.38-.19-.77-.35-1.16-.52,.79,.51,1.57,1.02,2.22,1.81-.55-.34-1.02-.66-1.51-.94-.89-.5-1.83-.84-2.86-.89-.4-.02-.8,0-1.17,.18,1.45-.05,2.78,.29,3.97,1.13Zm-4.29,12.09c-.09-.04-.19-.09-.3-.13-.56-.2-1.13-.23-1.71-.13-.99,.17-1.58,.76-1.74,1.76-.03,.17,.01,.38,.09,.54,.15,.3,.35,.56,.48,.76-.75-.32-1.55-.69-2.37-1.01-.99-.38-2.01-.5-3.04-.15-.27,.09-.56,.16-.82,.28-.7,.3-1.39,.62-2.04,.92,.15-.23,.34-.5,.5-.78,.07-.13,.13-.31,.11-.45-.07-.91-.71-1.68-1.6-1.82-.49-.08-1.01-.04-1.51,0-.23,.01-.45,.14-.68,.21,.48,.29,.93,.56,1.37,.83-.02,.03-.03,.05-.05,.08-.11-.05-.21-.1-.32-.15-.65-.3-1.34-.47-2.06-.43-.44,.02-.86,.1-1.21,.5,.66-.08,1.26-.04,1.81,.29,.72,.43,1.14,1.08,1.4,1.85,.04,.12,.09,.24,.14,.39,.1-.45,.18-.86,.27-1.27,.2,1.2,.32,1.62,.59,1.91,.51-.42,1.11-.55,1.74-.42,.6,.12,1.18,.31,1.74,.46-.11-.1-.27-.23-.42-.37,1.54,.51,3.06,.51,4.58-.07v.07s-.43,.4-.43,.4c1.18-.45,2.35-.92,3.55-.07,.35-.59,.43-1.22,.49-1.87,.02,0,.05,0,.07,0,.08,.39,.16,.78,.26,1.23,.53-1.68,1.44-2.77,3.32-2.61-1.21-.84-2.39-.35-3.59,.05,.45-.27,.89-.54,1.35-.82ZM57.16,13.63c-.75,.16-1.49,.35-2.34,.28,2.5-.86,4.73-2.13,6.97-3.37-.32,0-.62,.01-.92,.07-1.71,.34-3.28,1.05-4.8,1.87-2.49,1.36-5.08,2.44-7.85,3.08-.59,.14-1.18,.24-1.83,.37,.23,.25,.42,.49,.63,.69,.72,.7,1.65,.91,2.61,1.06,0,.03,0,.06,0,.08-.49,.29-.98,.59-1.48,.88,2.62,.13,4.78-1.16,7.05-2.26-.57,.92-1.1,1.79-1.64,2.66,.02,.01,.04,.03,.06,.04,1.05-1.14,1.9-2.43,2.78-3.77-.84,.37-1.6,.72-2.37,1.04-.78,.33-1.57,.63-2.41,.75,.25-.14,.5-.27,.75-.41,.25-.14,.49-.3,.73-.47,.23-.16,.45-.33,.67-.5-1.9,.52-3.78,1.03-5.75,.54,.29-.05,.59-.05,.88-.09,1.64-.2,3.16-.77,4.67-1.42,.19-.08,.39-.14,.6-.17,1.04-.16,2.02-.51,2.98-.95Zm32.4,1.67c.76,1.33,2.36,3.46,2.87,3.8-.57-.93-1.11-1.8-1.69-2.74,.15,.07,.23,.11,.3,.15,.76,.37,1.51,.77,2.28,1.12,1.08,.48,2.19,.91,3.39,1.03,.35,.04,.72,0,1.12,0-.54-.32-1.02-.61-1.51-.9,.64-.21,1.25-.36,1.82-.6,.58-.25,1.03-.68,1.39-1.25-.45-.08-.85-.14-1.25-.23-2.93-.61-5.67-1.72-8.3-3.15-1.56-.85-3.16-1.59-4.91-1.93-.3-.06-.61-.08-.92-.12,0,.03-.01,.06-.02,.09,.75,.4,1.5,.81,2.26,1.2,.76,.39,1.53,.78,2.31,1.14,.77,.35,1.55,.66,2.33,.98,0,.03,0,.05-.01,.08-.74-.11-1.48-.22-2.24-.33,.98,.42,1.97,.78,3.02,.93,.16,.02,.32,.05,.46,.11,1.81,.79,3.65,1.48,5.65,1.57-1.96,.5-3.84-.02-5.71-.57-.01,.03-.03,.06-.04,.09,.71,.45,1.42,.9,2.12,1.33-1.63-.33-3.14-1.09-4.73-1.81Zm-22.13,44.83c-1.2-1.84-1.23-1.98-.85-4.51-.3,.34-.47,.69-.58,1.08-.16,.57-.3,1.15-.47,1.72-.25,.81-.27,1.62-.12,2.45,.1,.55,.35,.99,.81,1.28,.29,.18,.62,.33,.95,.43,.99,.28,1.99,.28,2.99,.09,1.3-.25,2.6-.4,3.92-.26,.72,.08,1.43,.24,2.15,.32,.98,.11,1.95,.09,2.89-.26,.59-.22,1.13-.56,1.29-1.2,.15-.57,.27-1.19,.19-1.75-.17-1.05-.48-2.07-.76-3.1-.08-.28-.27-.53-.41-.79-.02,.01-.05,.02-.07,.03,.2,.77,.31,1.55,.2,2.35-.12,.81-.49,1.5-1.08,2.13,.55-.07,.96-.31,1.34-.61-.57,.99-1.46,1.35-2.62,1.34,.27,.14,.47,.24,.66,.33-.26,0-.51-.04-.76-.05-.54-.01-1.09-.11-1.6,0-1.37,.31-2.74,.37-4.12,.16-.76-.12-1.5-.31-2.28-.19-.32,.05-.64,.07-1.04,.11,.27-.13,.46-.23,.73-.36-1.37,.02-2.34-.63-2.59-1.36,.36,.33,.76,.56,1.26,.61Zm-11.16-29.59c1.29,.92,2.17,2.17,2.8,3.62-.04,0-.06-.03-.08-.05-.92-1.44-2.21-2.47-3.65-3.32-.23-.13-.38-.1-.52,.11-.09,.14-.2,.27-.3,.41-.02,0-.04-.02-.07-.03,.1-.55,.2-1.1,.3-1.67-.86,.93-.93,3.57-.06,4.66-.1-.92-.11-1.83,.36-2.67-.26,1.39,.19,2.6,.93,3.74,.11,.17,.24,.23,.44,.21,1.24-.07,2.48-.14,3.73-.19,.18,0,.26-.07,.27-.24,.02-.43,.08-.86,.04-1.29-.08-.77-.41-1.44-.87-2.1,.19,.76,.38,1.47,.56,2.19-.03,0-.05,.01-.08,.02-.73-1.74-1.51-2.91-2.1-3.14,1.2,1.82,1.55,2.54,1.63,3.29-.77-1.51-1.77-2.8-3.32-3.56Zm34.95-.89c.09,.53,.19,1.07,.28,1.61-.03,0-.05,.01-.08,.02-.07-.1-.14-.19-.21-.29-.27-.36-.29-.37-.67-.15-.99,.58-1.9,1.26-2.67,2.12-.36,.4-.68,.84-1.04,1.3,.65-1.47,1.52-2.71,2.77-3.66-1.48,.77-2.47,2.02-3.23,3.49,.25-1.27,.86-2.35,1.65-3.35-.33,.29-.65,.59-.92,.94-.26,.34-.49,.71-.69,1.09-.2,.38-.35,.78-.52,1.17-.02,0-.05-.01-.07-.02,.19-.71,.37-1.43,.56-2.14-.21,.31-.41,.63-.56,.98-.33,.75-.46,1.54-.28,2.36,.03,.14,.05,.26,.25,.26,1.27,.05,2.54,.13,3.82,.18,.11,0,.27-.07,.33-.17,.41-.56,.71-1.19,.89-1.86,.17-.63,.18-1.26,.08-1.9,.46,.84,.45,1.75,.35,2.7,.97-1.44,.68-4.03-.05-4.67Zm-22.41,34.43s-.01-.05-.02-.08c.36-.18,.71-.36,1.07-.54-.01-.03-.02-.06-.04-.09-1.16,.14-2.29,.05-3.43-.31,.11,.29,.22,.59,.42,.78,.28,.27,.65,.45,.96,.69,.25,.19,.57,.36,.7,.62,.38,.79,1.01,1.21,1.78,1.51,.85,.33,1.7,.68,2.55,1.02,.09,.04,.22,.06,.31,.02,.98-.39,1.96-.78,2.94-1.19,.61-.25,1.09-.65,1.37-1.28,.15-.34,.41-.56,.75-.7,.46-.18,.87-.46,1.14-.89,.11-.18,.18-.38,.3-.66-1.2,.44-2.33,.52-3.49,.39,0,.03-.02,.06-.03,.09,.35,.18,.7,.35,1.05,.53,0,.03-.02,.06-.02,.08-.42-.1-.85-.2-1.28-.31,.35,.58,.64,1.18,.44,1.96-.15-.4-.33-.7-.7-.88,.02,.6-.03,1.14-.6,1.5,.02-.22,.04-.41,.07-.67-.45,.49-.84,.91-1.24,1.34-.04-.08-.08-.17-.12-.26-.24,.22-.48,.43-.72,.65-.25-.22-.48-.44-.72-.65-.05,.1-.09,.2-.12,.26-.4-.43-.79-.85-1.17-1.26-.02,.01-.04,.02-.06,.03,.02,.18,.03,.35,.05,.55-.29-.12-.44-.36-.51-.63-.07-.26-.08-.54-.14-.93-.26,.33-.47,.59-.67,.86-.18-.69,.14-1.29,.45-1.85-.43,.1-.86,.2-1.28,.3Zm11.97-6.61h.08c.07-.21,.13-.43,.2-.64,.6-1.84,1.54-3.5,2.51-5.16,.76-1.29,1.25-2.71,1.78-4.11,.03-.09,.03-.19,.05-.36-.27,.38-.43,.75-.71,.99-.65,.56-1.12,1.21-1.33,2.05-.18-.98-.08-1.91,.41-2.84-.12,.05-.19,.07-.24,.11-.51,.3-.66,.8-.71,1.35-.05,.6-.1,1.2-.19,1.8-.14,.84-.26,1.7-.67,2.46-.15,.28-.37,.52-.55,.77-.02-.02-.05-.03-.07-.05,.17-.57,.38-1.14,.24-1.83-.1,.16-.17,.26-.22,.36-.51,1.08-.85,2.21-.99,3.4-.02,.14,.03,.28,.05,.42,.02,0,.04,0,.06,0,.2-.35,.41-.7,.61-1.05-.1,.79-.48,1.52-.31,2.33Zm-20.15-10.23s-.05,.02-.08,.03c.02,.11,.03,.24,.07,.34,.33,.83,.64,1.67,1,2.49,.26,.61,.58,1.19,.89,1.77,.66,1.28,1.35,2.56,1.98,3.85,.27,.55,.43,1.16,.63,1.74,.23-.8-.15-1.54-.24-2.31,.2,.34,.4,.68,.6,1.04,.31-.56-.55-3.68-1.12-4.11-.11,.63,.09,1.19,.22,1.79-.23-.24-.48-.48-.59-.78-.24-.68-.47-1.37-.6-2.08-.16-.82-.2-1.66-.31-2.48-.07-.56-.42-.99-.89-1.1,.48,.9,.56,1.84,.39,2.82-.2-.85-.66-1.51-1.32-2.06-.21-.18-.34-.46-.51-.7-.05-.08-.09-.17-.14-.25Zm10.36-24.15c-.31,.58-.58,1.18-.95,1.73-.41,.62-.99,1.1-1.75,1.14-.49,.03-1.02-.07-1.48-.24-.94-.35-1.84-.82-2.77-1.2-1.56-.63-3.08-.74-4.48,.42-.07,.06-.15,.1-.22,.15-.33,.24-.69,.24-1,0-.31-.24-.6-.53-.86-.82-.22-.24-.39-.52-.58-.79,.19,.85,.68,1.52,1.32,2.18-.33-.02-.57-.04-.85-.06,.99,.7,2.99,.6,4.06-.21-.61-.19-1.19-.12-1.78,0,.49-.36,1.05-.49,1.64-.51,.91-.03,1.73,.32,2.57,.62,.39,.14,.77,.3,1.16,.45,0-.01,.01-.03,.02-.04-.32-.27-.65-.54-.97-.82,.2,.04,.38,.13,.55,.22,.88,.43,1.78,.8,2.75,.98,.64,.12,1.29,.18,1.86-.19,1.07-.71,1.54-1.8,1.76-2.99Zm4.03,0c.11,.93,.46,1.75,1.08,2.46,.57,.66,1.27,.88,2.12,.77,1.02-.13,1.97-.49,2.89-.92,.26-.12,.51-.25,.77-.37,0,.01,.01,.03,.02,.04-.32,.27-.64,.54-.97,.82,.56-.17,1.09-.38,1.63-.58,.69-.25,1.39-.49,2.15-.45,.58,.03,1.12,.15,1.6,.51-.59-.11-1.18-.2-1.81,.02,1.77,.9,3.15,.83,4.05,.19-.24,.02-.48,.04-.81,.06,.67-.69,1.16-1.39,1.38-2.26-.18,.23-.33,.48-.52,.7-.28,.32-.56,.65-.89,.93-.35,.3-.75,.33-1.15,.04-.26-.19-.53-.36-.8-.53-.49-.31-1.03-.46-1.61-.46-1.05,0-1.99,.32-2.92,.76-.87,.41-1.78,.76-2.68,1.08-.75,.26-1.43,.04-2.04-.44-.46-.36-.78-.83-1.04-1.35-.16-.33-.3-.68-.45-1.01Zm-9.11,6.49c-.31-.03-.6-.06-.87-.08,.76-.41,1.51-.81,2.26-1.21-.01-.04-.02-.07-.04-.11-.25,.03-.49,.07-.75,.1,.07-.31,.14-.62-.04-.86-.2,.14-.36,.28-.55,.37-.23,.12-.48,.2-.71,.3-1.46,.62-2.86,.57-4.21-.32-.18-.12-.35-.25-.54-.39,.54,1.14,2.53,1.99,4.94,1.1-.3,.21-.59,.43-.93,.56-1.09,.42-2.19,.23-3.28-.06,.82,.75,1.8,1.09,2.9,1.16-.91,.36-1.84,.41-2.78,.1,.75,.81,1.7,1.17,2.74,.98,.86-.16,1.63-.61,1.85-1.64Zm18.96-.66c-1.55,.44-3,.66-4.3-.46,.84,.36,1.72,.42,2.63,.33,.96-.1,1.98-.69,2.25-1.37-2.01,1.63-3.99,1.26-6.02,0v.87c-.26-.03-.49-.07-.73-.1-.01,.04-.02,.07-.03,.11,.76,.4,1.51,.81,2.27,1.21-.29,.02-.58,.05-.88,.08,.18,.84,.98,1.55,1.88,1.67,.96,.13,2.34-.39,2.69-1.03-.94,.32-1.85,.28-2.75-.08,1.11-.06,2.1-.43,3.01-1.22Zm9.42,8.75c-.98-.13-1.88-.25-2.77-.37-.56-.07-1.13-.21-1.71-.01,.35,.27,.65,.57,.77,1.02-1.02-.3-1.95-.18-2.86,.41,.88,.26,1.75,.43,2.55,.78,.76,.32,1.31,.17,1.86-.37,.32-.32,.68-.6,1.08-.95,.06,.35,.12,.65,.19,1.02,.31-.53,.59-1,.9-1.54Zm-41.55,.55c.62,.49,1.19,.94,1.75,1.38,.18,.14,.35,.16,.58,.08,.57-.2,1.15-.38,1.73-.55,.46-.14,.93-.25,1.47-.4-.93-.6-1.87-.72-2.88-.42,.11-.46,.44-.75,.82-1.08-1.57-.08-3.01,.28-4.55,.44,.32,.54,.61,1.02,.91,1.54,.07-.38,.12-.68,.17-.98Zm12.31,6.87c-.1,.04-.15,.06-.21,.09-.5,.25-.53,.28-.44,.83,.25,1.49,.91,2.78,1.88,3.91,.04,.05,.1,.08,.18,.15,.01-.11,.02-.17,.02-.24,.04-.77,.18-1.5,.46-2.23,.22-.57,.3-1.2,.42-1.81,.02-.12-.06-.31-.16-.38-.45-.35-.98-.45-1.57-.46-.13,1.24-.13,2.44,.16,3.64-.53-1.09-.65-2.27-.75-3.49Zm15.09,3.49c.3-1.2,.29-2.41,.16-3.64-.55,.02-1.03,.13-1.47,.39-.2,.12-.29,.27-.27,.52,.06,.68,.24,1.32,.49,1.95,.13,.31,.22,.65,.29,.98,.08,.42,.1,.85,.15,1.27,.02,.01,.05,.03,.07,.04,.32-.46,.67-.91,.97-1.39,.55-.92,.95-1.9,1.03-2.99,0-.1-.02-.24-.08-.29-.17-.13-.36-.22-.59-.34-.1,1.24-.22,2.42-.75,3.51Zm-11.83-20.48c-.12,.3-.11,.29,.1,.43,.33,.21,.66,.42,.96,.67,.89,.76,1.32,1.79,1.67,2.88,.07,.22,.1,.54,.41,.51,.31-.03,.32-.35,.35-.59,.1-.75-.02-1.47-.3-2.16-.22-.52-.46-1.04-.69-1.56,.7,.73,1.15,1.61,1.51,2.55-.06-.66-.25-1.28-.55-1.87-.27-.55-.63-1.03-1.15-1.37-.37-.24-.77-.39-1.21-.37,.26,.35,.5,.68,.75,1.01q-1.07-.68-1.44-.58c.65,.37,1.21,.78,1.47,1.49-.49-.6-1.12-.91-1.88-1.03Zm5.32,2.68c.35-.93,.8-1.78,1.49-2.55-.29,.69-.59,1.32-.82,1.98-.23,.67-.32,1.37-.1,2.07,.04,.12,.2,.29,.28,.28,.12-.02,.27-.16,.33-.28,.1-.2,.15-.44,.22-.65,.47-1.35,1.22-2.48,2.54-3.14,.23-.11,.12-.25,.05-.4-.76,.12-1.4,.44-1.89,1.04,.06-.17,.12-.34,.24-.45,.38-.37,.77-.73,1.14-1.07q-.3-.08-1.37,.67c.26-.35,.52-.71,.77-1.05-1.52-.08-2.7,1.78-2.86,3.54Zm6.07-.12c-.61-.31-1.21-.39-1.85-.17,.21-.14,.43-.27,.66-.34,.23-.07,.47-.08,.76-.13-.75-.35-1.39-.16-2.01,.22,.26-.25,.53-.49,.84-.62,.32-.13,.68-.16,1.01-.23-.34-.45-.72-.58-1.27-.39-.92,.32-1.65,.92-2.09,1.78-.24,.46-.34,1-.46,1.51-.03,.15,.08,.41,.2,.48,.11,.06,.34-.05,.49-.15,.16-.1,.29-.27,.44-.41,.59-.56,1.17-1.13,1.99-1.33,.41-.1,.84-.15,1.29-.23Zm-13.43,.02c1.2,0,2.19,.47,3.02,1.32,.17,.17,.34,.34,.52,.5,.19,.17,.36,.45,.65,.28,.27-.16,.22-.47,.17-.74-.23-1.37-1.02-2.31-2.22-2.91-.26-.13-.57-.18-.86-.19-.33-.01-.57,.19-.76,.5,.95,.04,1.55,.31,1.85,.83-.86-.5-1.5-.58-1.91-.23,.83,.09,1.12,.19,1.34,.5-.64-.29-1.23-.19-1.8,.14Zm-1.65-3.75s0,.03,0,.04c-.06-.01-.11-.02-.17-.05-.46-.22-.91-.44-1.36-.67-.53-.27-1.09-.38-1.67-.31-.53,.06-.83,.57-.56,1.04,.16,.28,.43,.53,.7,.7,.56,.35,1.21,.47,1.86,.46,.62-.01,1.23-.1,1.74-.51,.28-.23,.28-.5-.02-.66-.33-.18-.7-.29-1.05-.44,0,.02-.02,.04-.03,.06,.19,.11,.37,.22,.56,.33Zm17.26-.33s-.02-.04-.03-.06c-.35,.14-.7,.26-1.04,.43-.3,.15-.31,.43-.04,.65,.14,.11,.29,.22,.46,.28,1.17,.42,2.31,.33,3.37-.35,.23-.15,.41-.41,.53-.66,.17-.39-.06-.8-.47-.91-.15-.04-.31-.05-.47-.05-.58,.02-1.11,.18-1.61,.48-.39,.23-.82,.41-1.24,.61-.01-.03-.02-.05-.04-.08l.58-.34Zm9.78,17.02s.05,.01,.07,.02c-.02,.33-.05,.65-.05,.98,0,.09,.02,.21,.08,.26,.25,.18,.52,.33,.78,.49,.64-.89,1.13-1.83,1.52-2.84-.23-.11-.44-.21-.64-.3-.31,.45-.59,.88-.91,1.36-.11-.64-.38-1.09-.77-1.46-.32,.47-.63,.91-.93,1.35-.11,.16-.26,.22-.46,.18-.3-.06-.61-.09-.92-.13,0,.02,0,.04-.01,.05,.56,.3,1.11,.6,1.69,.91,.19-.3,.37-.59,.54-.87Zm-39.15-1.4c-.21,.1-.41,.19-.64,.3,.4,1.03,.88,1.97,1.53,2.84,.23-.14,.43-.28,.65-.39,.19-.09,.25-.22,.22-.43-.04-.3-.04-.6-.06-.9,.02,0,.05,0,.07-.01,.18,.29,.37,.58,.55,.87,.59-.32,1.14-.61,1.68-.91-.15-.03-.29-.04-.42,0-.66,.23-1.07-.07-1.37-.64-.15-.29-.34-.56-.51-.86-.41,.41-.68,.86-.78,1.49-.33-.49-.61-.92-.91-1.37Zm21.89-21.59c2.91-3.2,6.48-4.68,10.78-4.29-1.75-.7-3.53-.65-5.3-.11-2.4,.72-4.13,2.33-5.48,4.4Zm-13.64-4.29c4.3-.39,7.87,1.1,10.77,4.32-.63-1.56-3.27-3.75-5.26-4.37-1.84-.57-3.68-.67-5.51,.05Zm16.98,43.49c1.16-.7,1.57-2.49,.93-4.06-.32,.45-.63,.89-.99,1.41,.15-.07,.23-.11,.36-.18-.22,.42-.55,.6-.9,.73-.34,.12-.55,.36-.7,.66-.18,.39-.17,.78,.07,1.24,.43-.39,.82-.75,1.21-1.11,.01,0,.02,0,.04,.01-.19,.36-.37,.71-.56,1.07,.66-.54,.96-1.3,1.24-2.08-.03,.83-.27,1.6-.69,2.31Zm-8.32-.2c.39-.77,.11-1.59-.58-1.88-.36-.15-.72-.32-.93-.73,.12,.05,.2,.08,.32,.12-.35-.49-.66-.93-.99-1.39-.6,1.62-.14,3.58,.92,4.07-.16-.39-.36-.78-.48-1.19-.13-.42-.18-.86-.27-1.29,.64,1.56,.91,2.04,1.32,2.25-.19-.37-.39-.75-.6-1.16,.45,.42,.86,.79,1.29,1.2Zm3.55-44.32c1.07-1.45,2.37-2.59,4.11-3.14-1.73-.03-2.99,.88-4.11,2.08-1.53-1.71-3.24-2.23-4.13-2.05,1.77,.53,3.06,1.68,4.14,3.11Zm-4.87,30.73s-.07,0-.11,0c-.02,.1-.04,.2-.05,.3-.05,.6-.39,1.17-.2,1.81,.05,.16,.05,.34,.06,.51,.08,1,.17,2.01,.23,3.01,.03,.46,0,.93,0,1.4,0,0-.02,0-.02,0-.03-.19-.06-.39-.1-.58-.17,1.3-.09,2.57,.47,3.76,.21,.45,.68,.85,1.06,.99-.09-.15-.17-.26-.24-.38-.13-.25-.31-.49-.36-.75-.08-.43-.09-.88-.11-1.32-.02-.39,0-.78,0-1.17-.04,0-.09,0-.13,0v1.92h-.07c-.03-.09-.07-.18-.08-.27-.05-.72-.09-1.44-.12-2.17-.06-1.09-.11-2.19-.16-3.28-.03-.85-.05-1.71-.06-2.56,0-.4,0-.81-.01-1.21Zm9.23,7.59s-.09,0-.13-.01c0,.44,0,.88,0,1.32,0,.71-.03,1.41-.52,1.99-.08,.09-.13,.21-.23,.4,.69-.43,1.16-.93,1.34-1.65,.12-.47,.24-.94,.28-1.42,.05-.58,.01-1.16,.01-1.74-.02,0-.04,0-.06,0-.03,.16-.06,.32-.09,.48-.06-.09-.08-.19-.07-.28,.08-1.3,.17-2.61,.26-3.91,.03-.43,.16-.86,.13-1.29-.04-.49-.21-.98-.33-1.46-.09,.34-.16,.69-.12,1.03,.12,.92,.03,1.83-.04,2.74-.08,.97-.12,1.94-.16,2.92-.02,.55,.02,1.11,0,1.66-.02,.37-.09,.74-.14,1.11-.04,0-.07,0-.11,0v-1.86Zm-4.37-30.17c-.39,.51-.78,1.01-1.18,1.52,.74,.39,.94,1.11,1.19,1.86,.22-.79,.47-1.48,1.16-1.87-.4-.52-.79-1.01-1.18-1.51Zm2.51,2.65c-.12-.37-.4-.54-.74-.59-.33-.05-.57,.15-.73,.43-.13,.23-.25,.46-.32,.71-.3,.97-.37,1.97-.39,2.98,0,.09,.04,.19,.08,.35,.38-1.52,.81-2.93,2.1-3.89Zm12.06,21.53c.16,.17,.31,.33,.51,.55,.79-.86,1.56-1.7,2.36-2.57-.28-.18-.49-.32-.72-.46-.43,.52-.83,1.01-1.27,1.54-.15-.44-.2-.86-.6-1.14,.09,.74,.14,1.43-.29,2.07Zm-29.44-2.03s-.06-.04-.09-.06c-.03,.06-.07,.12-.1,.18-.14,.3-.28,.61-.43,.93-.41-.49-.82-.99-1.24-1.5-.22,.15-.43,.28-.65,.43,.7,.95,1.46,1.8,2.36,2.55,.16-.18,.31-.34,.45-.5-.43-.64-.38-1.33-.3-2.03Zm17.27,11.6c-.68,.36-1.37,.25-2.07,.12-.24-.05-.5-.04-.74,.01-.67,.15-1.32,.19-1.95-.14,0,0-.02,.02-.08,.06,.29,.16,.54,.33,.82,.45,.28,.12,.59,.2,.88,.29,0,.01,0,.03,0,.04-.28-.02-.56-.04-.86-.06,.97,.72,2.24,.71,3.23,0-.3,.02-.59,.05-.88,.07,.6-.19,1.18-.39,1.65-.84Zm-8.14-7.99s-.07,0-.11-.01v1.94c-.74-.11-1.13-.64-1.6-1.13-.14,.87,.05,1.62,.44,2.34-.02-.26-.04-.53-.05-.79,.02,0,.04,0,.05-.01,.32,.57,.65,1.14,.99,1.72,.23-1.36,.44-2.7,.29-4.07Zm13.2,.81c-1.12,1.19-1.25,1.03-1.59,1.1,0-.32,0-.64,0-.96,0-.31-.03-.62-.04-.92-.03,0-.05,0-.08,0-.14,1.36,.06,2.69,.29,4.03,.34-.59,.67-1.17,1-1.74,.04,.16,.02,.29,0,.43-.01,.13-.01,.26-.02,.38,.38-.73,.57-1.47,.43-2.32Zm8.86-8.21c-.73-.18-1.42-.44-2.1-.88,.43-.05,.78-.07,1.13-.12,.35-.06,.69-.15,1.04-.22,0-.03,0-.06,0-.08-.76-.25-1.52-.5-2.35-.77-.11,.47-.2,.89-.31,1.32-.05,.2,.03,.32,.21,.4,.76,.35,1.56,.44,2.38,.36Zm-30.53-.85c-.39,.19-.72,.37-1.07,.5-.34,.14-.69,.23-1.06,.35,.82,.1,1.83-.06,2.43-.4,.08-.04,.19-.14,.18-.2-.09-.49-.19-.97-.3-1.49-.84,.27-1.59,.52-2.35,.77,0,.04,0,.08,0,.12,.7,.11,1.39,.22,2.17,.35Zm13.84-11.04c.02-.15,.06-.3,.05-.44-.07-.77-.12-1.55-.26-2.3-.09-.46-.29-.92-.52-1.33-.26-.45-.75-.46-1.14-.1,.78,.81,1.1,1.29,1.11,1.67-.09-.11-.17-.21-.26-.31-.08-.09-.16-.17-.24-.26,.65,.93,.94,1.98,1.27,3.06Zm3.2,13.98c-.48-.36-.91-.61-1.46-.47-.12,.03-.28-.02-.41-.06-.64-.22-1.26-.21-1.9,0-.18,.06-.39,.06-.58,.04-.42-.04-.88,.12-1.19,.48,.17-.06,.31-.14,.46-.16,.21-.02,.44-.03,.63,.04,.18,.07,.32,.1,.5,0,.33-.19,.66-.16,.99,.03,.07,.04,.21,.04,.28,0,.3-.16,.6-.22,.91-.05,.22,.12,.41,.15,.63-.01,.09-.06,.25-.06,.37-.04,.23,.04,.46,.13,.77,.22Zm8.77-29.12c-1.11-1.04-3.65-.86-4.81,.02,1.63-.44,3.21-.54,4.81-.02Zm-23.25,.04c1.64-.55,3.24-.46,4.88,0-1.21-.97-3.97-.97-4.88,0Zm16.15-.69c1.33-.7,2.68-1.33,4.23-1.29-1.33-.5-3.27,.09-4.23,1.29Zm-9.01-.03c-1.01-1.28-3.14-1.75-4.25-1.24,.77-.02,1.5,.08,2.19,.35,.69,.27,1.36,.59,2.06,.89Zm3.78,31.55c.15-.44,.28-.82,.4-1.19,.07-.23,0-.4-.25-.45-.28-.07-.54,.07-.58,.33-.06,.45,0,.88,.42,1.32Zm1.43-.07c.41-.37,.51-.78,.45-1.22-.04-.28-.29-.42-.59-.35-.27,.06-.31,.25-.24,.48,.12,.37,.25,.73,.38,1.09Zm1.75-.37s-.06,0-.09-.01c0-.11,.01-.23,0-.34-.03-.25-.05-.5-.12-.74-.02-.06-.21-.13-.3-.1-.09,.03-.21,.19-.19,.26,.13,.5,.29,.98,.43,1.46,.54-.39,.76-1.08,.45-1.4-.06,.28-.13,.58-.19,.87Zm-4.65,.54c.14-.46,.26-.92,.42-1.37,.06-.17,.03-.27-.12-.35-.21-.11-.36-.05-.4,.2-.05,.32-.07,.65-.11,1.03-.05-.12-.1-.19-.11-.27-.04-.22-.08-.45-.11-.67-.34,.31-.11,1.03,.43,1.43Zm14.72,3.73c.44-.18,.85-.35,1.3-.53-.27-.33-.53-.64-.81-.99-.18,.55-.33,1.03-.49,1.52Zm-25.54-1.52c-.29,.36-.54,.66-.81,1,.46,.19,.87,.35,1.3,.53-.16-.49-.31-.98-.49-1.53Zm34.63-6.81c.23-.95,.45-1.86,.66-2.77-.02,0-.04-.01-.05-.01-.36,.85-.72,1.71-1.09,2.57,.16,.07,.29,.13,.48,.22Zm-43.79-2.65s-.05,.02-.08,.03c.21,.86,.42,1.73,.64,2.62,.2-.09,.34-.16,.47-.23-.35-.82-.69-1.62-1.04-2.42Zm20.6,21.29s-.03-.01-.05-.02c-.05,.1-.11,.2-.15,.31-.2,.49-.16,.57,.34,.65,.09,.01,.23-.01,.28-.07,.14-.17,.05-.82-.13-1.03-.1,.16-.2,.31-.32,.51,.02-.16,.03-.25,.03-.35Zm2.84-.17c-.16,.23-.24,.78-.14,1,.03,.06,.13,.13,.2,.13,.52,.02,.65-.16,.45-.65-.04-.09-.09-.18-.14-.26,0,0-.03,0-.05,0,0,.07-.01,.14-.02,.24-.11-.17-.21-.3-.3-.45Zm-.1,3.77c-.73-.6-1.81-.49-2.3,0h2.3Zm8.15-17.74c-.23,.85-.45,1.65-.67,2.46,.02,0,.03,.02,.05,.03,.35-.84,.7-1.69,1.07-2.56-.18,.03-.33,.05-.45,.07Zm-12.25-28.75c.58,.72,1.16,1.43,1.75,2.15-.24-1-.9-1.66-1.75-2.15Zm-.42,28.92c.03-.43,.07-.83,.09-1.23,0-.19-.13-.21-.23-.12-.09,.07-.15,.21-.17,.33-.03,.13,0,.28,0,.42-.02,0-.04,0-.06,0-.05-.14-.1-.29-.16-.44-.2,.33,.02,.77,.54,1.04Zm6.71,0c.53-.29,.75-.73,.54-1.04-.05,.14-.11,.29-.16,.43-.05-.12-.03-.23-.05-.33-.03-.14-.06-.3-.15-.4-.1-.11-.26-.11-.25,.1,.01,.4,.05,.8,.08,1.23Zm-13.13-.25c.44,.82,.57,1.73,1.1,2.48-.21-.81-.42-1.6-.63-2.4-.11-.02-.26-.04-.47-.08Zm12.69-28.64c-.8,.35-1.73,1.52-1.71,2.12,.56-.7,1.12-1.39,1.71-2.12Zm-.25,42.69s-.03,.02-.04,.02c.03,.08,.05,.16,.08,.26-.17-.14-.31-.25-.45-.36-.03,.02-.06,.04-.09,.06,.07,.29,.13,.58,.23,.86,.03,.07,.19,.14,.28,.13,.44-.08,.53-.32,.25-.67-.08-.1-.17-.19-.26-.28Zm-5.32,.07s-.04-.03-.06-.05c-.11,.15-.24,.29-.34,.44-.12,.2,0,.32,.17,.4,.16,.07,.36,.22,.46-.01,.12-.28,.17-.59,.25-.89-.03-.02-.07-.03-.1-.05-.14,.11-.28,.23-.44,.36,.02-.08,.03-.14,.05-.21Zm2.5,.73c-.04-.2-.05-.4-.12-.59-.07-.21-.24-.23-.34-.04-.09,.18-.14,.39-.18,.6-.04,.2-.04,.38,.26,.38,.25,0,.42-.04,.38-.35Zm.66,.4c.1-.07,.28-.15,.28-.21-.03-.27-.07-.56-.18-.81-.08-.2-.27-.18-.34,.03-.06,.2-.08,.41-.11,.62-.03,.23,.06,.35,.34,.37Zm.56-1.68h-2.13c.73,.36,1.39,.36,2.13,0Zm-2-16.5h1.86c-.6-.44-1.2-.44-1.86,0Zm-1.76,16.35c.24-.34,.21-.57-.14-.81,.05,.28,.1,.55,.14,.81Zm5.53-.81c-.35,.24-.39,.49-.14,.82,.04-.26,.09-.52,.14-.82Z"/>
    <path class="cls-2" d="M68.71,37.16c.07,.13,.14,.27,.22,.41-.04,0-.06,0-.07-.02-.32-.23-.48-.51-.37-.72,.15-.31,.45-.31,.73-.27,.83,.12,1.53,.5,2.03,1.2,.12,.17,.18,.38,.22,.58,.02,.11-.05,.25-.12,.38-.06-.34-.25-.42-.54-.46-.67-.09-1.21-.42-1.64-.95-.09-.11-.26-.16-.39-.23-.02,.03-.05,.06-.07,.09"/>
    <path class="cls-2" d="M77.01,37.58c.08-.13,.16-.27,.25-.42-.22-.08-.35-.02-.47,.13-.42,.56-.98,.88-1.66,.97-.28,.04-.48,.13-.48,.46-.03,0-.05,0-.08,0-.03-.11-.11-.24-.08-.34,.06-.24,.13-.49,.26-.69,.45-.63,1.1-.97,1.85-1.12,.16-.03,.34-.03,.5,0,.38,.07,.5,.39,.27,.7-.09,.13-.19,.25-.29,.38-.03-.02-.06-.05-.08-.07"/>
    <path class="cls-2" d="M76.82,40.97c.4-.81,.97-1.4,1.95-1.56-.38,.28-.71,.51-1.03,.76-.32,.25-.61,.53-.92,.8"/>
    <path class="cls-2" d="M67.29,39.45c.65,0,1.61,.74,1.87,1.5-.64-.51-1.27-1.02-1.87-1.5"/>
    <path class="cls-2" d="M65.89,39.42c.65,.18,1.12,.59,1.5,1.15-.5-.38-1-.76-1.5-1.15"/>
    <path class="cls-2" d="M80,39.47c-.46,.35-.92,.71-1.38,1.06-.02-.02-.04-.05-.05-.07,.39-.45,.83-.83,1.39-1.05,.02,.02,.03,.04,.05,.06"/>
    <path class="cls-2" d="M67.28,41.43c.51,.32,.99,.62,1.49,.94-.65-.08-1.13-.38-1.49-.94"/>
    <path class="cls-2" d="M77.17,42.39c.53-.34,1.01-.64,1.51-.96-.35,.57-.83,.85-1.51,.96"/>
    <path class="cls-2" d="M78.82,42.32c.46-.32,.93-.63,1.45-.99-.36,.59-.85,.87-1.45,.99"/>
    <path class="cls-2" d="M65.76,41.38c.46,.31,.92,.63,1.39,.94-.6-.1-1.07-.41-1.39-.94"/>
    <path class="cls-2" d="M81.47,41.19c-.21,.53-.6,.84-1.14,.98,.38-.33,.76-.65,1.14-.98"/>
    <path class="cls-2" d="M65.64,42.18c-.48-.05-1.05-.54-1.16-.99,.39,.33,.77,.66,1.16,.99"/>
    <path class="cls-2" d="M69.43,37.97c.45,.17,.83,.32,1.28,.49-.52,.02-.9-.12-1.28-.49"/>
    <path class="cls-2" d="M75.32,38.44c.37-.15,.75-.29,1.12-.44-.3,.34-.67,.49-1.12,.44"/>
    <path class="cls-2" d="M73.72,51.73c0,.52-.02,1.1,0,1.68,.03,.57,.1,1.14,.15,1.69-.66-.69-.73-2.52-.16-3.36"/>
    <path class="cls-2" d="M72.07,55.11c.06-.59,.13-1.16,.16-1.73,.03-.56,0-1.12,0-1.62,.57,.77,.51,2.43-.16,3.35"/>
    <path class="cls-2" d="M70.82,56.45c-.26-.27-.32-.68-.18-1.07,.25-.68,.32-1.38,.32-2.09,0-.01,.02-.03,.05-.06,.14,.6,.09,1.18,0,1.77-.08,.5-.13,1-.18,1.46"/>
    <path class="cls-2" d="M74.97,53.23c.02,.3,.01,.6,.06,.9,.05,.35,.13,.71,.23,1.05,.14,.5,.16,.96-.24,1.37,.24-.65-.06-1.26-.12-1.89-.04-.47,0-.95,0-1.43,.02,0,.05,0,.07,0"/>
    <path class="cls-2" d="M70.38,47.4c-.53,.71-.57,.84-.67,1.98-.32-.64,0-1.66,.67-1.98"/>
    <path class="cls-2" d="M75.66,47.44c.58,.29,.84,1.1,.6,1.96-.05-.36-.05-.71-.15-1.03-.1-.33-.3-.63-.45-.93"/>
    <path class="cls-2" d="M59.34,22.52c-.06-.53,.09-.82,.54-1.07,.52-.28,1.09-.35,1.67-.38,.9-.05,2,.27,2.64,.82-.86-.27-1.67-.36-2.51-.26-.84,.11-1.63,.34-2.35,.89"/>
    <path class="cls-2" d="M81.72,21.89c.49-.37,.96-.57,1.46-.69,.83-.2,1.66-.18,2.47,.08,.21,.07,.42,.18,.61,.31,.3,.21,.43,.51,.36,.91-1.51-.99-3.13-1.13-4.9-.6"/>
    <path class="cls-2" d="M69.64,34.53c.97-.6,2.03-1.02,3.15-1.08,1.27-.07,2.42,.46,3.53,1.06-.03,0-.06,.01-.09,0-.04,0-.08-.02-.11-.03-.33-.07-.66-.15-.99-.21-.29-.05-.53-.03-.81,.17-.51,.36-1.15,.37-1.76,.29-.41-.06-.83-.09-1.13-.46-.06-.07-.25-.05-.37-.03-.38,.06-.76,.15-1.14,.22-.09,.02-.19,.04-.28,.07"/>
    <path class="cls-2" d="M70.87,34.89c1.43,.19,2.81,.19,4.22,0-1.41,.69-2.8,.7-4.22,0"/>
    <path class="cls-2" d="M75.68,62.17c.66-.1,1.31-.2,1.97-.31,.21-.04,.42-.11,.63-.17,.99-.28,1.61-.91,1.81-1.95,0-.04,.03-.07,.04-.12,.31,.78-.14,1.82-.99,2.29-.81,.45-1.7,.54-2.6,.45-.29-.03-.58-.1-.88-.15,0-.02,.01-.03,.02-.05"/>
    <path class="cls-2" d="M65.81,59.57c.02,.05,.03,.09,.04,.13,.2,1.14,.9,1.79,1.97,2.03,.67,.15,1.35,.25,2.02,.37,.14,.02,.27,.03,.42,.12-.27,.05-.54,.11-.81,.14-.84,.1-1.67,.01-2.45-.34-.98-.45-1.48-1.47-1.19-2.45"/>
    <path class="cls-2" d="M71.1,61.56c1.25,.21,2.5,.21,3.75,0-1.25,.62-2.5,.61-3.75,0"/>
  </g>
</svg>