<?xml version="1.0" encoding="UTF-8"?>
<svg id="Capa_1" data-name="Capa 1" xmlns="http://www.w3.org/2000/svg" viewBox="0 0 142.57 77.03">
  <defs>
    <style>
      .cls-1 {
        fill: #1f140f;
      }

      .cls-2 {
        fill: #fff;
        stroke: #1d1d1b;
        stroke-miterlimit: 10;
        stroke-width: 2px;
      }
    </style>
  </defs>
  <rect class="cls-2" x=".27" width="142.3" height="77.03"/>
  <g>
    <g>
      <path class="cls-1" d="M34.71,27.91c-.31-.76-.81-1.24-1.5-1.45-.43-.13-1.41-.15-2.93-.08l-4.08,.2-4.2,14.01-.02,.07-.38,1.49-5.89,23.09,8.54-23.21,.51-1.39,.02-.06,1.24-4.43,1.79-.09c1.65-.08,2.86-.29,3.61-.63,.75-.34,1.43-.9,2.05-1.68,.62-.78,1.05-1.73,1.3-2.85,.28-1.24,.25-2.23-.06-2.99Zm-2.67,3.16c-.12,.51-.34,.95-.66,1.31-.32,.36-.67,.62-1.06,.77s-1.09,.25-2.09,.3l-1.49,.07,1.24-4.43,1.27-.06c1.09-.05,1.78-.03,2.09,.08,.31,.1,.53,.33,.67,.67,.14,.34,.15,.77,.03,1.29Z"/>
      <path class="cls-1" d="M15.92,65.32l-.43-.13,6.29-24.66,4.25-14.16,4.24-.2c1.56-.07,2.54-.05,3,.09,.76,.22,1.31,.75,1.64,1.58,.33,.8,.36,1.85,.07,3.13-.26,1.15-.71,2.14-1.34,2.94-.64,.8-1.36,1.39-2.13,1.74-.77,.35-2.01,.57-3.69,.65l-1.63,.08-1.21,4.33-9.06,24.62ZM26.37,26.8l-4.18,13.93-5.19,20.38,7.57-20.59,1.28-4.58,1.95-.09c1.62-.08,2.81-.28,3.53-.61,.71-.32,1.37-.87,1.97-1.62,.59-.74,1.01-1.67,1.26-2.76,.26-1.18,.25-2.14-.05-2.86h0c-.28-.7-.73-1.13-1.36-1.32-.41-.12-1.37-.14-2.86-.07l-3.93,.19Zm1.89,6.88l-1.79,.09,1.37-4.88,1.43-.07c1.12-.05,1.83-.02,2.17,.09,.37,.13,.64,.39,.81,.8,.16,.39,.17,.87,.04,1.43h0c-.13,.54-.37,1.01-.71,1.4-.34,.39-.72,.67-1.15,.83-.42,.16-1.12,.26-2.16,.31Zm-1.2-.39l1.18-.06c.97-.05,1.65-.14,2.02-.28,.36-.14,.68-.38,.97-.71,.29-.33,.49-.74,.61-1.21h0c.11-.47,.11-.85-.02-1.15-.12-.28-.29-.46-.54-.55-.19-.06-.69-.13-2-.07l-1.1,.05-1.11,3.97Z"/>
    </g>
    <g>
      <path class="cls-1" d="M37.75,38.79l2.41-12.75-2.54,.12-3.22,15.38,9.96-.48,.36-2.62-6.98,.33Z"/>
      <path class="cls-1" d="M44.56,41.28l-10.43,.5,3.32-15.84,2.99-.14-2.41,12.75,6.96-.33-.43,3.06Zm-9.88,.03l9.49-.45,.3-2.17-6.99,.33,2.41-12.75-2.08,.1-3.13,14.93Z"/>
    </g>
    <g>
      <path class="cls-1" d="M57.2,27.69l.14-2.6-9.34,.45-1.97,15.45,10.76-.52,.13-2.6-7.76,.37,.45-4.19,6.76-.32,.15-2.59-6.63,.32,.37-3.42,6.95-.33Z"/>
      <path class="cls-1" d="M57,40.69l-11.23,.54,2.02-15.9,9.78-.47-.16,3.05-6.96,.33-.32,2.97,6.62-.32-.17,3.04-6.77,.32-.4,3.74,7.75-.37-.15,3.05Zm-10.72,.07l10.29-.49,.11-2.16-7.78,.37,.5-4.64,6.75-.32,.12-2.15-6.65,.32,.41-3.87,6.94-.33,.11-2.16-8.91,.43-1.91,15Z"/>
    </g>
    <g>
      <path class="cls-1" d="M71.11,31.55l-5.79,.28,.03,2.6,3.14-.15,.07,1.94c-.45,.42-.96,.77-1.54,1.03-.58,.26-1.15,.4-1.7,.43-1.17,.06-2.1-.31-2.78-1.11-.78-.93-1.15-2.32-1.11-4.17,.03-1.73,.4-3.03,1.11-3.9,.69-.87,1.59-1.34,2.69-1.39,.71-.03,1.33,.15,1.85,.54,.53,.39,.9,.98,1.12,1.76l2.58-.7c-.34-1.46-.99-2.55-1.94-3.27-.94-.72-2.15-1.04-3.65-.97-1.25,.06-2.32,.41-3.23,1.04-.91,.64-1.68,1.57-2.29,2.8-.62,1.23-.97,2.69-1.04,4.39-.07,1.65,.18,3.07,.74,4.26,.57,1.19,1.39,2.07,2.43,2.63,1.06,.56,2.29,.81,3.69,.74,1.15-.05,2.28-.34,3.41-.86,1.11-.52,1.96-1.12,2.54-1.8l-.34-6.1Z"/>
      <path class="cls-1" d="M65.52,40.54c-1.44,.07-2.72-.19-3.81-.77-1.09-.58-1.94-1.5-2.53-2.73-.57-1.22-.83-2.68-.76-4.37,.07-1.71,.42-3.22,1.06-4.48,.62-1.26,1.42-2.23,2.36-2.88,.94-.66,2.06-1.02,3.34-1.08,1.54-.07,2.82,.27,3.79,1.02,.99,.75,1.67,1.89,2.02,3.4l.05,.21-3,.81-.06-.21c-.21-.73-.56-1.28-1.04-1.64-.49-.37-1.04-.53-1.71-.5-1.04,.05-1.87,.48-2.53,1.31-.67,.84-1.03,2.1-1.06,3.77-.03,1.79,.32,3.14,1.06,4.02,.63,.75,1.48,1.09,2.6,1.03,.52-.02,1.06-.16,1.62-.41,.53-.23,1-.54,1.41-.92l-.06-1.61-3.15,.15-.03-3.04,6.23-.3,.36,6.41-.06,.07c-.6,.7-1.47,1.32-2.61,1.85-1.14,.53-2.32,.83-3.49,.89Zm-.31-15.86c-1.2,.06-2.24,.4-3.11,1-.88,.61-1.63,1.53-2.22,2.72-.61,1.2-.95,2.65-1.01,4.3-.06,1.61,.18,3.01,.72,4.16,.55,1.14,1.34,1.99,2.34,2.53,1.02,.54,2.22,.78,3.57,.71,1.12-.05,2.23-.34,3.32-.84,1.04-.49,1.85-1.05,2.4-1.67l-.32-5.79-5.36,.26,.02,2.15,3.14-.15,.08,2.26-.07,.07c-.46,.44-1,.8-1.6,1.07-.61,.27-1.2,.42-1.78,.45-1.24,.06-2.24-.34-2.96-1.19-.81-.96-1.2-2.41-1.17-4.32,.03-1.77,.42-3.12,1.16-4.04,.73-.92,1.69-1.42,2.86-1.47,.76-.04,1.43,.16,2,.58,.51,.38,.9,.94,1.14,1.66l2.16-.59c-.34-1.3-.95-2.29-1.8-2.94-.89-.68-2.07-1-3.5-.93Z"/>
    </g>
    <g>
      <path class="cls-1" d="M79.03,24.05l-2.69,.13-3.96,15.55,3.04-.15,.85-3.52,5.52-.26,1.7,3.4,3.1-.15-7.56-14.99Zm-2.17,9.38l1.2-5.76,2.5,5.58-3.7,.18Z"/>
      <path class="cls-1" d="M86.94,39.25l-3.59,.17-1.7-3.4-5.21,.25-.85,3.52-3.5,.17,4.08-16,3-.14,.07,.13,7.71,15.3Zm-3.32-.29l2.61-.12-7.34-14.56-2.38,.11-3.85,15.09,2.57-.12,.85-3.52,5.84-.28,1.7,3.4Zm-2.72-5.5l-4.32,.21,1.4-6.71,2.92,6.5Zm-3.76-.27l3.09-.15-2.09-4.65-1,4.8Z"/>
    </g>
    <g>
      <path class="cls-1" d="M97.96,35.51c-.97-1.15-1.7-1.95-2.2-2.39-.49-.44-1.08-.84-1.75-1.2,1.09-.24,1.85-.74,2.28-1.49,.42-.75,.48-1.72,.18-2.91-.24-.94-.64-1.73-1.2-2.39-.55-.65-1.15-1.1-1.81-1.35-.65-.24-1.66-.33-3.03-.27l-5.35,.26,2.63,15.23,2.85-.14-1.23-6.35,.56-.03c.63-.03,1.1,0,1.41,.11,.31,.1,.62,.29,.94,.58,.32,.29,.97,1.01,1.96,2.17l2.81,3.21,3.41-.16-2.47-2.88Zm-4.83-5.79c-.31,.12-1.07,.2-2.28,.26l-1.98,.09-.75-3.86,2.03-.1c1.16-.06,1.87-.05,2.13,.01,.37,.09,.69,.28,.96,.57,.27,.28,.46,.67,.58,1.15,.12,.5,.11,.91-.02,1.23-.13,.31-.35,.53-.66,.64Z"/>
      <path class="cls-1" d="M100.89,38.58l-3.97,.19-2.89-3.29c-1-1.18-1.64-1.88-1.94-2.16-.3-.27-.59-.45-.86-.54-.28-.09-.73-.12-1.33-.1h-.3s1.23,6.37,1.23,6.37l-3.3,.16-2.71-15.67,5.6-.27c1.41-.07,2.43,.02,3.12,.28,.69,.26,1.33,.73,1.9,1.41,.58,.68,.99,1.51,1.24,2.48,.32,1.24,.25,2.28-.2,3.07-.39,.68-1.02,1.17-1.9,1.45,.49,.3,.94,.62,1.32,.96,.5,.44,1.22,1.23,2.22,2.41l2.77,3.22Zm-3.78-.27l2.85-.14-2.17-2.53c-.98-1.17-1.69-1.94-2.18-2.37-.48-.43-1.05-.82-1.71-1.17l-.53-.28,.59-.13c1.02-.23,1.74-.69,2.14-1.38,.39-.69,.44-1.62,.15-2.74-.23-.9-.62-1.67-1.15-2.3-.53-.62-1.1-1.06-1.72-1.28-.62-.23-1.61-.32-2.94-.25l-5.1,.24,2.56,14.79,2.39-.11-1.23-6.35,.82-.04c.66-.03,1.15,0,1.49,.12,.34,.11,.68,.32,1.02,.63,.32,.29,.95,.99,1.98,2.2l2.74,3.12Zm-6.26-8.12l-2.18,.1-.83-4.3,2.29-.11c1.6-.08,2.02-.03,2.2,.02,.41,.1,.77,.32,1.06,.63,.3,.31,.51,.73,.63,1.25,.13,.55,.12,1.01-.03,1.36-.16,.37-.42,.63-.79,.77h0c-.33,.13-1.1,.22-2.35,.28Zm-1.81-.36l1.79-.09c1.47-.07,2.02-.17,2.21-.25,.25-.09,.43-.27,.54-.52,.11-.27,.12-.63,0-1.09-.1-.44-.28-.79-.52-1.05-.24-.26-.52-.42-.85-.5-.16-.04-.65-.07-2.07,0l-1.77,.08,.66,3.42Z"/>
    </g>
    <g>
      <path class="cls-1" d="M99.88,23.05l-2.53,.12,4.16,15.16,2.85-.14-4.47-15.14Z"/>
      <path class="cls-1" d="M104.64,38.4l-3.31,.16-4.28-15.6,2.99-.14,4.6,15.58Zm-2.98-.3l2.39-.11-4.34-14.7-2.08,.1,4.03,14.72Z"/>
    </g>
    <g>
      <path class="cls-1" d="M119.08,37.49l-.37-1.02-.36-.48-10.06-13.33-2.69,.13-.33,15.37,3.04-.15,.03-3.48,5.52-.26,2.52,3.36h.05s10.72,22.29,10.72,22.29l-8.06-22.42Zm-10.77-5.56l-.15-5.69,3.85,5.51-3.7,.18Z"/>
      <path class="cls-1" d="M126.94,60.01l-10.66-22.16h-.02s-2.52-3.36-2.52-3.36l-5.19,.25-.03,3.48-3.49,.17,.34-15.82,3.02-.14,.07,.09,10.46,13.87,8.43,23.44-.41,.17Zm-10.46-22.61h.08s.06,.13,.06,.13l8.84,18.39-6.96-19.34-10.33-13.69-2.37,.11-.32,14.93,2.59-.12,.03-3.48,5.85-.28,2.52,3.36Zm-4.05-5.44l-4.33,.21-.17-6.66,4.51,6.45Zm-3.9-.26l3.07-.15-3.19-4.57,.12,4.72Z"/>
    </g>
  </g>
</svg>