<?xml version="1.0" encoding="UTF-8"?>
<svg id="Capa_1" data-name="Capa 1" xmlns="http://www.w3.org/2000/svg" viewBox="0 0 110.92 88.29">
  <defs>
    <style>
      .cls-1 {
        fill: #fff;
      }
    </style>
  </defs>
  <path class="cls-1" d="M58.39,16.35c6.45,0,12.9-.02,19.35,0,3.57,.01,4.19,1.17,2.8,4.44-.65,1.54-1.06,3.31-1.07,4.98-.09,11.84-.04,23.69-.05,35.53,0,6.64-3.94,10.62-10.54,10.64-7.51,.02-15.02,.01-22.53,0-6.67,0-10.73-4.01-10.76-10.78-.06-10.11-.11-20.22,.04-30.33,.04-2.78-.6-4.43-3.6-4.58-2.3-.12-2.59-1.65-2.19-3.48,.82-3.77,4.48-6.36,9.2-6.41,6.45-.06,12.9-.02,19.35-.02Zm-18.87,15.59h35.72c.17-3.92,.33-7.63,.5-11.52-12.56,0-25.15-.04-37.75,.07-1.22,.01-2.42,1.02-3.64,1.57,5.2,1.66,5.42,5.54,5.16,9.87Z"/>
</svg>