<?xml version="1.0" encoding="UTF-8"?>
<svg id="Capa_1" data-name="Capa 1" xmlns="http://www.w3.org/2000/svg" viewBox="0 0 110.92 88.29">
  <defs>
    <style>
      .cls-1 {
        font-family: BebasNeue-Regular, 'Bebas Neue';
        font-size: 10.37px;
      }

      .cls-1, .cls-2 {
        fill: #fff;
      }

      .cls-2 {
        font-family: BebasNeueBold, 'Bebas Neue';
        font-size: 35.18px;
      }
    </style>
  </defs>
  <text class="cls-1" transform="translate(62.84 15.38) rotate(19.77)"><tspan x="0" y="0">P</tspan></text>
  <text class="cls-1" transform="translate(66.25 16.59) rotate(25.91)"><tspan x="0" y="0">L</tspan></text>
  <text class="cls-1" transform="translate(69.12 17.96) rotate(32.11)"><tspan x="0" y="0">E</tspan></text>
  <text class="cls-1" transform="translate(71.98 19.71) rotate(38.73)"><tspan x="0" y="0">G</tspan></text>
  <text class="cls-1" transform="translate(74.83 21.96) rotate(45.7)"><tspan x="0" y="0">A</tspan></text>
  <text class="cls-1" transform="translate(77.46 24.62) rotate(52.76)"><tspan x="0" y="0">R</tspan></text>
  <text class="cls-1" transform="translate(79.74 27.67) rotate(57.86)"><tspan x="0" y="0">I</tspan></text>
  <text class="cls-1" transform="translate(80.66 29.02) rotate(62.95)"><tspan x="0" y="0">A</tspan></text>
  <text class="cls-1" transform="translate(82.35 32.41) rotate(67.69)"><tspan x="0" y="0"> </tspan></text>
  <text class="cls-1" transform="translate(82.89 33.64) rotate(71.28)"><tspan x="0" y="0">-</tspan></text>
  <text class="cls-1" transform="translate(83.68 36) rotate(74.89)"><tspan x="0" y="0"> </tspan></text>
  <text class="cls-1" transform="translate(84.08 37.25) rotate(79.55)"><tspan x="0" y="0">P</tspan></text>
  <text class="cls-1" transform="translate(84.74 40.77) rotate(85.92)"><tspan x="0" y="0">L</tspan></text>
  <text class="cls-1" transform="translate(84.99 43.95) rotate(92.14)"><tspan x="0" y="0">E</tspan></text>
  <text class="cls-1" transform="translate(84.9 47.32) rotate(98.8)"><tspan x="0" y="0">G</tspan></text>
  <text class="cls-1" transform="translate(84.38 50.89) rotate(105.67)"><tspan x="0" y="0">A</tspan></text>
  <text class="cls-1" transform="translate(83.38 54.51) rotate(112.65)"><tspan x="0" y="0">R</tspan></text>
  <text class="cls-1" transform="translate(81.89 58.02) rotate(117.76)"><tspan x="0" y="0">I</tspan></text>
  <text class="cls-1" transform="translate(81.19 59.48) rotate(122.87)"><tspan x="0" y="0">A</tspan></text>
  <text class="cls-1" transform="translate(79.1 62.66) rotate(127.72)"><tspan x="0" y="0"> </tspan></text>
  <text class="cls-1" transform="translate(78.3 63.73) rotate(131.33)"><tspan x="0" y="0">-</tspan></text>
  <text class="cls-1" transform="translate(76.65 65.59) rotate(134.97)"><tspan x="0" y="0"> </tspan></text>
  <text class="cls-1" transform="translate(75.77 66.57) rotate(139.65)"><tspan x="0" y="0">P</tspan></text>
  <text class="cls-1" transform="translate(73.04 68.89) rotate(145.98)"><tspan x="0" y="0">L</tspan></text>
  <text class="cls-1" transform="translate(70.41 70.7) rotate(152.13)"><tspan x="0" y="0">E</tspan></text>
  <text class="cls-1" transform="translate(67.47 72.29) rotate(158.67)"><tspan x="0" y="0">G</tspan></text>
  <text class="cls-1" transform="translate(64.09 73.64) rotate(165.57)"><tspan x="0" y="0">A</tspan></text>
  <text class="cls-1" transform="translate(60.48 74.6) rotate(172.64)"><tspan x="0" y="0">R</tspan></text>
  <text class="cls-1" transform="translate(56.68 75.06) rotate(177.81)"><tspan x="0" y="0">I</tspan></text>
  <text class="cls-1" transform="translate(55.06 75.18) rotate(-177.06)"><tspan x="0" y="0">A</tspan></text>
  <text class="cls-1" transform="translate(51.28 74.95) rotate(-172.23)"><tspan x="0" y="0"> </tspan></text>
  <text class="cls-1" transform="translate(49.95 74.8) rotate(-168.63)"><tspan x="0" y="0">-</tspan></text>
  <text class="cls-1" transform="translate(47.52 74.3) rotate(-165.06)"><tspan x="0" y="0"> </tspan></text>
  <text class="cls-1" transform="translate(46.25 74.04) rotate(-160.23)"><tspan x="0" y="0">P</tspan></text>
  <text class="cls-1" transform="translate(42.82 72.82) rotate(-154.1)"><tspan x="0" y="0">L</tspan></text>
  <text class="cls-1" transform="translate(39.96 71.46) rotate(-147.94)"><tspan x="0" y="0">E</tspan></text>
  <text class="cls-1" transform="translate(37.11 69.71) rotate(-141.31)"><tspan x="0" y="0">G</tspan></text>
  <text class="cls-1" transform="translate(34.25 67.46) rotate(-134.34)"><tspan x="0" y="0">A</tspan></text>
  <text class="cls-1" transform="translate(31.62 64.81) rotate(-127.29)"><tspan x="0" y="0">R</tspan></text>
  <text class="cls-1" transform="translate(29.34 61.76) rotate(-122.18)"><tspan x="0" y="0">I</tspan></text>
  <text class="cls-1" transform="translate(28.42 60.41) rotate(-117.1)"><tspan x="0" y="0">A</tspan></text>
  <text class="cls-1" transform="translate(26.72 57) rotate(-112.31)"><tspan x="0" y="0"> </tspan></text>
  <text class="cls-1" transform="translate(26.18 55.77) rotate(-108.72)"><tspan x="0" y="0">-</tspan></text>
  <text class="cls-1" transform="translate(25.4 53.43) rotate(-105.16)"><tspan x="0" y="0"> </tspan></text>
  <text class="cls-1" transform="translate(24.99 52.16) rotate(-100.45)"><tspan x="0" y="0">P</tspan></text>
  <text class="cls-1" transform="translate(24.33 48.64) rotate(-94.08)"><tspan x="0" y="0">L</tspan></text>
  <text class="cls-1" transform="translate(24.07 45.49) rotate(-87.9)"><tspan x="0" y="0">E</tspan></text>
  <text class="cls-1" transform="translate(24.16 42.14) rotate(-81.28)"><tspan x="0" y="0">G</tspan></text>
  <text class="cls-1" transform="translate(24.69 38.52) rotate(-74.33)"><tspan x="0" y="0">A</tspan></text>
  <text class="cls-1" transform="translate(25.67 34.92) rotate(-67.39)"><tspan x="0" y="0">R</tspan></text>
  <text class="cls-1" transform="translate(27.17 31.41) rotate(-62.29)"><tspan x="0" y="0">I</tspan></text>
  <text class="cls-1" transform="translate(27.86 29.95) rotate(-57.17)"><tspan x="0" y="0">A</tspan></text>
  <text class="cls-1" transform="translate(29.97 26.76) rotate(-52.29)"><tspan x="0" y="0"> </tspan></text>
  <text class="cls-1" transform="translate(30.77 25.68) rotate(-48.67)"><tspan x="0" y="0">-</tspan></text>
  <text class="cls-1" transform="translate(32.4 23.84) rotate(-45.08)"><tspan x="0" y="0"> </tspan></text>
  <text class="cls-1" transform="translate(33.28 22.86) rotate(-40.39)"><tspan x="0" y="0">p</tspan></text>
  <text class="cls-1" transform="translate(36.02 20.52) rotate(-34.02)"><tspan x="0" y="0">l</tspan></text>
  <text class="cls-1" transform="translate(38.63 18.72) rotate(-27.91)"><tspan x="0" y="0">e</tspan></text>
  <text class="cls-1" transform="translate(41.58 17.13) rotate(-21.37)"><tspan x="0" y="0">g</tspan></text>
  <text class="cls-1" transform="translate(44.97 15.77) rotate(-14.43)"><tspan x="0" y="0">a</tspan></text>
  <text class="cls-1" transform="translate(48.56 14.82) rotate(-7.41)"><tspan x="0" y="0">r</tspan></text>
  <text class="cls-1" transform="translate(52.36 14.36) rotate(-2.23)"><tspan x="0" y="0">i</tspan></text>
  <text class="cls-1" transform="translate(53.98 14.23) rotate(2.9)"><tspan x="0" y="0">a</tspan></text>
  <text class="cls-1" transform="translate(57.77 14.46) rotate(7.73)"><tspan x="0" y="0"> </tspan></text>
  <text class="cls-1" transform="translate(59.1 14.61) rotate(11.33)"><tspan x="0" y="0">-</tspan></text>
  <text class="cls-1" transform="translate(61.54 15.11) rotate(14.94)"><tspan x="0" y="0"> </tspan></text>
  <text class="cls-2" transform="translate(38.98 57.02)"><tspan x="0" y="0">[P]</tspan></text>
</svg>