<?xml version="1.0" encoding="UTF-8"?>
<svg id="Capa_1" data-name="Capa 1" xmlns="http://www.w3.org/2000/svg" viewBox="0 0 90.97 73.02">
  <defs>
    <style>
      .cls-1 {
        fill: none;
        stroke: #fff;
        stroke-miterlimit: 10;
        stroke-width: 2px;
      }
    </style>
  </defs>
  <path class="cls-1" d="M31.72,6.07c.81,7.55,7.26,13.29,14.76,13.24,7.35-.05,13.64-5.64,14.54-13.02,3.69,1.45,7.38,2.89,11.07,4.34,4.2,4.49,8.39,8.97,12.59,13.46-2.6,4.27-5.21,8.54-7.81,12.81-2.82-1.3-5.64-2.6-8.47-3.91-.07,12.16-.14,24.31-.22,36.47H24.99c-.07-12.37-.14-24.75-.22-37.12-2.75,1.66-5.5,3.33-8.25,4.99-2.82-4.27-5.64-8.54-8.47-12.81,4.27-4.63,8.54-9.26,12.81-13.89,3.62-1.52,7.24-3.04,10.85-4.56Z"/>
  <path class="cls-1" d="M32.08,5.31c1.38,1.16,6.58,5.27,14.4,5.31,7.64,.04,12.8-3.82,14.23-4.97"/>
</svg>