<?xml version="1.0" encoding="UTF-8"?>
<svg id="Capa_1" data-name="Capa 1" xmlns="http://www.w3.org/2000/svg" viewBox="0 0 90.97 73.02">
  <defs>
    <style>
      .cls-1 {
        fill: none;
        stroke: #fff;
        stroke-miterlimit: 10;
        stroke-width: 2px;
      }
    </style>
  </defs>
  <path class="cls-1" d="M31.53,3.81c4.96,5.39,9.91,10.78,14.87,16.17,4.92-5.32,9.85-10.64,14.77-15.95,3.73,1.46,7.46,2.93,11.2,4.39,4.24,4.54,8.49,9.07,12.73,13.61-2.63,4.32-5.27,8.64-7.9,12.95-2.85-1.32-5.71-2.63-8.56-3.95-.07,12.29-.15,24.59-.22,36.88H24.72c-.07-12.51-.15-25.03-.22-37.54-2.78,1.68-5.56,3.37-8.34,5.05-2.85-4.32-5.71-8.64-8.56-12.95l12.95-14.05c3.66-1.54,7.32-3.07,10.98-4.61Z"/>
  <path class="cls-1" d="M31.49,3.52c3.29,1.17,8.33,2.53,14.6,2.62,6.51,.09,11.75-1.24,15.12-2.38"/>
</svg>