<?xml version="1.0" encoding="UTF-8"?>
<svg id="Capa_1" data-name="Capa 1" xmlns="http://www.w3.org/2000/svg" viewBox="0 0 110.92 88.29">
  <defs>
    <style>
      .cls-1 {
        fill: #fff;
      }
    </style>
  </defs>
  <path class="cls-1" d="M53.81,77.03c-6.32,0-12.64,.01-18.97,0-3.14-.01-3.65-.6-3.55-3.71,.31-10.33,.53-20.66,.92-30.99,.09-2.25-.71-3.04-2.84-3.21-8.18-.65-6.38-.22-8.06-7.51-.47-2.05-.77-4.13-1.18-6.19-.39-1.97,.18-3.26,2.24-3.96,6.96-2.35,13.89-4.84,20.85-7.21,.96-.33,2.06-.4,3.09-.38,4.3,.11,8.61,.6,12.89,.37,3.64-.2,6.95,.43,10.31,1.7,5.09,1.92,10.26,3.65,15.42,5.36,2.29,.76,3.24,1.9,2.57,4.46-.84,3.23-1.34,6.55-1.84,9.85-.29,1.89-1.1,3-3.09,3.06-.09,0-.19,.03-.28,.05-2.19,.48-5.28,.26-6.31,1.62-1.09,1.45-.27,4.37-.21,6.65,.21,8.8,.39,17.6,.71,26.4,.1,2.79-1,3.72-3.7,3.67-6.32-.12-12.64-.04-18.97-.04Zm18.01-4.7c0-1.29,.02-2.33,0-3.37-.23-9.08-.48-18.17-.72-27.25-.11-4.28,1.47-6.19,5.6-6.81,.95-.14,1.95-.12,2.83-.45,.75-.28,1.84-.86,1.95-1.45,.45-2.54,.59-5.13,.82-7.71,0-.06-.32-.17-.5-.23-5.19-1.82-10.38-3.64-15.48-5.43-6.79,9.96-16.58,10.31-24.1,1.17-.37-.45-1.32-.89-1.8-.73-5.23,1.72-10.42,3.56-15.68,5.39,.64,3.19,1.22,6.06,1.77,8.8,1.77,.26,3.18,.46,4.6,.67,3.96,.59,5.67,2.56,5.62,6.56-.02,2.1-.19,4.21-.2,6.31-.02,8.1,0,16.21,0,24.53h35.3Zm-10.77-53.58h-14.33c2.82,5.3,10.41,5.58,14.33,0Z"/>
</svg>