<?xml version="1.0" encoding="UTF-8"?>
<svg id="Capa_1" data-name="Capa 1" xmlns="http://www.w3.org/2000/svg" viewBox="0 0 110.92 88.29">
  <defs>
    <style>
      .cls-1 {
        fill: #fff;
      }
    </style>
  </defs>
  <path class="cls-1" d="M53.97,3.46c19.01,.03,34.21,15.34,34.14,34.39-.07,18.72-15.54,33.99-34.39,33.95-18.91-.04-33.94-15.38-33.91-34.61,.04-18.69,15.3-33.75,34.16-33.72Zm15.35,21.92c-.51-.62-1.3-1.51-2.38-2.44-.72-.62-7.48-6.28-16.49-4.71-2.46,.43-4.87,1.33-7.09,2.72-7.4,4.62-10.84,13.67-8.42,22.13,2.25,7.86,9.36,13.52,17.82,14.2,7.52,.6,15.6-4.29,18.88-11.41,.08-.17,.15-.35,.23-.53,.77-1.71,1.19-3.47-.96-4.41-2.11-.93-3.05,.43-3.87,2.22-3.02,6.61-9.33,9.82-16.3,8.44-5.86-1.17-10.76-6.61-11.2-12.45-.51-6.76,3.02-12.58,9.06-14.91,6.03-2.33,12.49-.54,16.5,4.84-.38,.48-.99,1.25-1.78,2.19-1.35,1.59-1.87,2.07-1.72,2.49,.17,.46,1,.41,2.84,.57,2.35,.2,3.9,.53,6.81,.5,.62,0,1.39-.03,1.91-.57,.38-.39,.54-.99,.51-1.83-.07-1.83,.09-3.67-.05-5.49-.11-1.56-.5-3.1-.76-4.65-1.18,1.03-2.36,2.07-3.54,3.1Z"/>
</svg>