<?xml version="1.0" encoding="UTF-8"?>
<svg id="Capa_1" data-name="Capa 1" xmlns="http://www.w3.org/2000/svg" viewBox="0 0 88.85 77.42">
  <defs>
    <style>
      .cls-1 {
        fill: #1e1e1c;
      }

      .cls-2 {
        fill: #fff;
        stroke: #fff;
        stroke-miterlimit: 10;
      }
    </style>
  </defs>
  <circle class="cls-2" cx="44.43" cy="38.71" r="33.54"/>
  <path class="cls-1" d="M45.21,18.86c2.13-.03,4.26-.06,6.39-.09,0,1.12,.18,2.92,1.21,4.75,2.58,4.59,8.12,5.13,8.73,5.18v6.31c-1.24,0-3.08-.14-5.18-.86-2.23-.77-3.85-1.88-4.84-2.68v15.38c-.1,.98-.73,6.37-5.1,9.33-5.63,3.81-14.91,1.83-18.14-4.75-2.21-4.5-1.17-10.29,2.49-13.93,4.11-4.1,9.62-3.6,10.38-3.52v6.57c-.32-.12-2.46-.86-4.61,.35-2.3,1.3-2.68,3.75-2.74,4.14-.34,2.51,1.12,4.27,1.38,4.58,1.23,1.43,3.33,2.46,5.53,1.99,2.53-.55,3.68-2.78,3.89-3.2,.65-1.27,.71-2.47,.69-3.11-.03-8.81-.06-17.62-.09-26.44Z"/>
</svg>