<?xml version="1.0" encoding="UTF-8"?>
<svg id="Capa_1" data-name="Capa 1" xmlns="http://www.w3.org/2000/svg" viewBox="0 0 110.92 88.29">
  <defs>
    <style>
      .cls-1 {
        fill: #fff;
      }
    </style>
  </defs>
  <path class="cls-1" d="M69.2,71h-27.4c-1.2,3.76-7.01,5.63-10.24,3.36-.45-.31-.96-.78-1.08-1.27-1.01-3.96-2.63-7.92-2.75-11.92-.36-12.5-.14-25.03-.13-37.54,0-5.52,2.46-8.12,8.01-8.15,13.28-.07,26.56-.06,39.83,0,5.56,.02,7.92,2.53,7.92,8.15,0,12.8,0,25.6,.01,38.4,0,2.51,.06,4.99-1.91,6.95-.24,.24-.44,.68-.43,1.01,.07,2.62-.36,4.79-3.64,5.03-5.76,.42-6.61,.03-8.21-4.02Zm-13.59-4.66c6.69,0,13.38-.05,20.07,.03,2.35,.03,3.32-.99,3.28-3.25-.04-2.01-.07-4.02,0-6.02,.09-2.34-1.06-3.3-3.28-3.3-13.38,0-26.76,0-40.14,0-2.34,0-3.58,.91-3.41,3.44,.13,1.81,.14,3.64,0,5.44-.21,2.77,1,3.74,3.69,3.7,6.59-.1,13.19-.03,19.78-.03Zm-2.44-37.86c-6.34,0-12.53-.1-18.7,.12-.8,.03-2.17,1.66-2.2,2.59-.22,5.15-.2,10.31-.01,15.46,.03,.88,1.26,2.44,1.97,2.46,6.26,.19,12.53,.11,18.95,.11V28.49Zm4.78,20.81c6.35,0,12.35,0,18.35,0,1.79,0,2.62-.93,2.63-2.65,.01-5.15,.12-10.3-.1-15.44-.04-.93-1.43-2.56-2.24-2.59-6.16-.22-12.34-.12-18.64-.12v20.8Zm-2.45-25.38c6.68,0,13.36,0,20.05,0,1.43,0,3.32,.12,3.08-1.88-.1-.81-1.97-2-3.04-2.01-13.36-.14-26.73-.14-40.09,0-1.11,.01-3.05,1.17-3.13,1.95-.19,1.84,1.58,1.95,3.08,1.95,6.68-.02,13.36,0,20.05,0Z"/>
  <path class="cls-1" d="M39.3,64.52c-2.44,.08-4.74-2.05-4.73-4.37,.01-2.33,1.98-4.26,4.43-4.32,2.51-.07,4.5,1.66,4.64,4.03,.14,2.48-1.81,4.58-4.34,4.66Z"/>
  <path class="cls-1" d="M71.64,64.52c-2.49-.08-4.6-2.28-4.45-4.65,.14-2.27,2.3-4.12,4.71-4.05,2.49,.07,4.39,1.94,4.38,4.31-.01,2.51-2.09,4.48-4.64,4.4Z"/>
</svg>