<svg id="Capa_1" data-name="Capa 1" xmlns="http://www.w3.org/2000/svg" viewBox="0 0 110.92 88.29"><defs><style>.cls-1{fill:none;stroke:#f6f6f6;stroke-miterlimit:10;stroke-width:3px;}</style></defs><path class="cls-1" d="M26.87,25.82a5.21,5.21,0,0,0-.33,1.58c-.13.91-.19,1.36-.23,2C26.2,31.14,25,40.25,23.7,51.17c-2.67,22.2-2.57,24.32-3.05,26.6a30.73,30.73,0,0,0-.44,4c-.17,2.09-.1,2.55.21,2.92.7.85,2.1.5,4.41.46,2,0,3.93.11,5.89,0H88.58q1.71,0,3.48,0l.87,0,1,0c.44,0,.59,0,.7-.11s.14-.64.09-.92a15.91,15.91,0,0,0-.38-2.19c-.07-.2-.27-1.57-.67-4.3-1.8-12.12-2.85-26.15-2.85-26.15-.47-5.94-1.21-11.86-1.66-17.8,0-.62-.33-2.21-.91-5.39a4.31,4.31,0,0,0-.62-2c-1.37-1.8-5-1-6-1-8.87,0-17.73-.12-26.6,0-8.67.11-17.07.23-20.48,0-.32,0-1.46,0-3.74,0S27.4,25.08,26.87,25.82Z"/><circle class="cls-1" cx="40.81" cy="36.11" r="4.46"/><circle class="cls-1" cx="73.83" cy="36.11" r="4.46"/><path class="cls-1" d="M40.81,31.65a43.23,43.23,0,0,1-.3-8.32c.32-5.34.55-9.33,3.14-13.07a17.26,17.26,0,0,1,13.5-7.2c.43,0,8.9-.16,13.66,6,2.71,3.5,3,7.4,3.4,14.6a59.89,59.89,0,0,1-.09,8.49"/></svg>